<svg xmlns="http://www.w3.org/2000/svg" version="1.1" xmlns:xlink="http://www.w3.org/1999/xlink" xmlns:svgjs="http://svgjs.dev/svgjs" viewBox="0 0 800 800" opacity="0.39"><defs><linearGradient x1="50%" y1="0%" x2="50%" y2="100%" id="uundulate-grad"><stop stop-color="hsl(0, 0%, 0%)" stop-opacity="1" offset="45%"></stop><stop stop-color="hsl(90, 69%, 72%)" stop-opacity="1" offset="100%"></stop></linearGradient></defs><g stroke-width="2" stroke="url(#uundulate-grad)" fill="none"><path d="M721.0539375928838 95.97262520539982C785.0640531918489 202.70411833649393 798.9522950998096 544.6930800179593 657.797557534617 668.0714755141188C516.6428199694244 791.4498710102785 107.52131287892456 794.9204167180606 43.51119727995956 688.1889235869667C-20.498918319005384 581.4574304558726 209.39426509439272 279.1387039810254 350.5490026595853 155.7603084848659C491.7037402247779 32.38191298870635 657.0438219939189 -10.75886792569429 721.0539375928838 95.97262520539982C785.0640531918489 202.70411833649393 798.9522950998096 544.6930800179593 657.797557534617 668.0714755141188 "></path><path d="M705.7655923619914 110.45011197714791C766.7276072181485 212.0991530543804 779.9545042733491 537.8029260843474 645.5214208779277 655.3061598902137C511.0883374825062 772.80939369608 121.44880692012532 776.1146753225394 60.48679206396821 674.4656342453068C-0.4752227921889016 572.8165931680743 218.47066617295218 284.8939965253628 352.90374956837366 167.39076271949654C487.33683296379513 49.88752891363032 644.8035775058341 8.80107089991543 705.7655923619914 110.45011197714791C766.7276072181485 212.0991530543804 779.9545042733491 537.8029260843474 645.5214208779277 655.3061598902137 "></path><path d="M690.4773692014113 124.927598748896C748.3912833147606 221.49418777226686 760.9568355172012 530.9127721507355 633.2454062915508 642.5408442663085C505.53397706590044 754.1689163818814 135.37642303163858 757.3089339270177 77.4625089182893 660.7423449036469C19.54859480494008 564.175755880276 227.54718932182413 290.6492890697001 355.2586185474745 179.02121695412717C482.97004777312486 67.39314483855429 632.563455088062 28.36100972552515 690.4773692014113 124.927598748896C748.3912833147606 221.49418777226686 760.9568355172012 530.9127721507355 633.2454062915508 642.5408442663085 "></path><path d="M675.189085005675 139.40508552064404C730.0548983762164 230.88922249015326 741.959105725897 524.0226182171236 620.9693306700177 629.7755286424032C499.97955561413835 735.5284390676828 149.3039781079956 738.5031925314962 94.4381647374542 647.019055561987C39.57235136691281 555.5349185924778 236.62365143553978 296.4045816140374 357.6134264914191 190.6516711887578C478.60320154729845 84.89876076347821 620.3232716351337 47.92094855113481 675.189085005675 139.40508552064404C730.0548983762164 230.88922249015326 741.959105725897 524.0226182171236 620.9693306700177 629.7755286424032 "></path><path d="M659.9008008099388 153.88257229239213C711.7185134376723 240.28425720803972 722.9613759345929 517.1324642835118 608.6932550484846 617.010213018498C494.42513416237625 716.8879617534843 163.23153318435266 719.6974511359749 111.41382055661904 633.2957662203272C59.596107928885544 546.8940813046796 245.70011354925543 302.1598741583748 359.9682344353637 202.2821254233885C474.23635532147205 102.40437668840218 608.0830881822052 67.48088737674453 659.9008008099388 153.88257229239213C711.7185134376723 240.28425720803972 722.9613759345929 517.1324642835118 608.6932550484846 617.010213018498 "></path><path d="M644.6125166142025 168.36008958171834C693.382128499128 249.6793224435043 703.9636461432887 510.2423408674779 596.4171794269515 604.2449279121709C488.87071271061427 698.2475149568638 177.1590882607096 700.8917402580314 128.38947637578394 619.5725073962453C79.61986449085822 538.2532745344595 254.77657566297114 307.9151972202902 362.3230423793083 213.91261017559725C469.8695090956455 119.91002313090428 595.8429047292768 87.04085671993232 644.6125166142025 168.36008958171834C693.382128499128 249.6793224435043 703.9636461432887 510.2423408674779 596.4171794269515 604.2449279121709 "></path><path d="M629.3242324184662 182.83757635346637C675.045743560584 259.0743571613907 684.9659163519844 503.35218693386605 584.1411038054184 591.4796122882657C483.3162912588523 679.6070376426653 191.08664333706668 682.0859988625099 145.36513219494879 605.8492180545854C99.64362105283095 529.6124372466611 263.8530377766868 313.6704897646275 364.67785032325287 225.54306441022788C465.502662869819 137.4156390558282 583.6027212763483 106.60079554554204 629.3242324184662 182.83757635346637C675.045743560584 259.0743571613907 684.9659163519844 503.35218693386605 584.1411038054184 591.4796122882657 "></path><path d="M614.0359177051517 197.31507838400353C656.7093281044617 268.46940713806623 665.9681560431022 496.4620482590432 571.8649976663071 578.7143119231496C477.7618392895122 660.9665755872559 205.01416789584556 663.2802727257774 162.34075749653556 592.1259439717148C119.66734709722556 520.971615217652 272.9294693728243 319.425797567754 367.03262774961934 237.17353390364758C461.13578612641436 154.92127023954123 571.3625073058417 126.16074962994082 614.0359177051517 197.31507838400353C656.7093281044617 268.46940713806623 665.9681560431022 496.4620482590432 571.8649976663071 578.7143119231496 "></path><path d="M598.7476792857826 211.79256515575162C638.3729889422848 277.8644418559527 646.9704720281652 489.57189432543123 559.5889678211413 565.9489962992443C472.2074636141173 642.3260982730574 218.94176874856976 644.474531330256 179.3164590920676 578.4026546300549C139.69114943556548 512.3307779298539 282.0059772629072 325.1810901120913 369.3874814699311 248.8039881382782C456.76898567695514 172.42688616446515 559.1223696292805 145.7206884555505 598.7476792857826 211.79256515575162C638.3729889422848 277.8644418559527 646.9704720281652 489.57189432543123 559.5889678211413 565.9489962992443 "></path><path d="M583.4593798312573 226.27008244507783C620.0365887449516 287.2595070914173 627.9727269780719 482.6817709093975 547.312876940819 553.1837111929173C466.6530269035661 623.685651476437 232.8693085661377 625.6688204523126 196.29209965244343 564.6793958059732C159.71489073874915 503.6899711596336 291.0824241178338 330.9364131740067 371.74227415508665 260.434472890487C452.40212419233956 189.93253260696724 546.882170917563 165.28065779873833 583.4593798312573 226.27008244507783C620.0365887449516 287.2595070914173 627.9727269780719 482.6817709093975 547.312876940819 553.1837111929173 "></path><path d="M568.1710956355209 240.74756921682587C601.7002038064074 296.65454180930374 608.9749971867677 475.7916169757856 535.036801319286 540.4183955690121C461.09860545180413 605.0451741622385 246.7968636424947 606.8630790567911 213.26775547160827 550.9561064643133C179.73864730072188 495.04913387183547 300.1588862315495 336.69170571834405 374.09708209903124 272.0649271251176C448.03527796651315 207.43814853189122 534.6419874646346 184.840596624348 568.1710956355209 240.74756921682587C601.7002038064074 296.65454180930374 608.9749971867677 475.7916169757856 535.036801319286 540.4183955690121 "></path><path d="M552.8828114397847 255.22507124736302C583.3638188678633 306.04959178597926 589.9772673954636 468.9014783009627 522.7607256977528 527.6530952038959C455.54418400004215 586.404712106829 260.7244187188517 588.0573529200587 230.24341129077317 537.2328323814424C199.7624038626946 486.40831184282615 309.23534834526515 342.44701352147047 376.4518900429759 283.69539661853736C443.66843174068663 224.9437797156042 522.4018040117062 204.40055070874678 552.8828114397847 255.22507124736302C583.3638188678633 306.04959178597926 589.9772673954636 468.9014783009627 522.7607256977528 527.6530952038959 "></path><path d="M537.5945272440484 269.7025580191111C565.0274339293192 315.4446265038657 570.9795376041594 462.0113243673509 510.48465007621985 514.8877795799906C449.98976254828017 567.7642347926305 274.65197379520873 569.2516115245371 247.219067109938 523.5095430397826C219.78616042466734 477.767474555028 318.31181045898086 348.20230606580776 378.8066979869205 295.325850853168C439.3015855148601 242.44939564052817 510.1616205587777 223.9604895343565 537.5945272440484 269.7025580191111C565.0274339293192 315.4446265038657 570.9795376041594 462.0113243673509 510.48465007621985 514.8877795799906 "></path><path d="M522.3062277895231 284.18004479085914C546.691033731986 324.8396612217522 551.9817925540663 455.12117043373894 498.2085591958976 502.1224639560854C444.435325837729 549.1237574784319 288.5795136127767 550.4458701290157 264.19470767031385 509.78625369812266C239.809901727851 469.12663726722974 327.38825731390745 353.9575986101451 381.161490672076 306.9563050877986C434.93472403024464 259.95501156545214 497.9214218470603 243.52042835996616 522.3062277895231 284.18004479085914C546.691033731986 324.8396612217522 551.9817925540663 455.12117043373894 498.2085591958976 502.1224639560854 "></path><path d="M507.017974111365 298.65753156260723C528.3546793110199 334.2346959396386 532.9840932803402 448.231016500127 485.9325140919426 489.35714833218026C438.88093490354515 530.4832801642334 302.5070992067118 531.6401287334942 281.1703940070568 496.0629643564629C259.83368880740187 460.4857999794315 336.4647499452012 359.71289115448246 383.51632913359873 318.58675932242926C430.56790832199624 277.46062749037605 485.68126891170994 263.0803671855759 507.017974111365 298.65753156260723C528.3546793110199 334.2346959396386 532.9840932803402 448.231016500127 485.9325140919426 489.35714833218026 "></path><path d="M491.72968991562857 313.13504885193345C510.0182943724758 343.62976117510317 513.986363489036 441.3408930840933 473.6564384704095 476.5918632258531C433.32651345178306 511.842833367613 316.4346542830688 512.8344178555508 298.1460498262217 482.3397055323811C279.85744536937455 451.84499320921134 345.5412120589169 365.4682142163979 385.8711370775433 330.217244074638C426.2010620961698 294.96627393287815 473.4410854587816 282.64033652876367 491.72968991562857 313.13504885193345C510.0182943724758 343.62976117510317 513.986363489036 441.3408930840933 473.6564384704095 476.5918632258531 "></path><path d="M476.4414057198924 327.6125203648924C491.68190943393165 353.02478063420057 494.98863369773176 434.4507238916923 461.3803628488764 463.8265323431589C427.7720920000211 493.20234079462546 330.36220935942583 494.0286612012403 315.12170564538656 468.61640093193216C299.8812019313473 443.204140662624 354.6176741726326 371.22349150194617 388.225945021488 341.8476830504796C421.8342158703433 312.47187459901306 461.2009020058531 302.2002600955843 476.4414057198924 327.6125203648924C491.68190943393165 353.02478063420057 494.98863369773176 434.4507238916923 461.3803628488764 463.8265323431589 "></path><path d="M461.15312152415606 342.09002239542957C473.3455244953875 362.4198306108761 475.99090390642766 427.56058521686947 449.1042872273433 451.0612319780427C422.21767054825904 474.56187873921596 344.2897644357829 475.22293506450785 332.09736146455145 454.89312684906133C319.90495849332 434.56331863361487 363.6941362863482 376.9787993050726 390.58075296543257 353.4781525438993C417.46736964451685 329.97750578272604 448.9607185529247 321.7602141799831 461.15312152415606 342.09002239542957C473.3455244953875 362.4198306108761 475.99090390642766 427.56058521686947 449.1042872273433 451.0612319780427 "></path><path d="M445.8648525872088 356.5675244259667C455.0091548156324 371.8148805875516 456.9931893739125 420.67044654204665 436.8282268645993 438.29593161292655C416.66326435528606 455.9214166838065 358.21733477092897 456.4172089277754 349.07303254250536 441.16985276619056C339.9287303140818 425.92249660460567 372.770613658853 382.73410710819894 392.9355761681662 365.10862203731904C413.10053867747945 347.4831369664391 436.7205503587853 341.32016826438183 445.8648525872088 356.5675244259667C455.0091548156324 371.8148805875516 456.9931893739125 420.67044654204665 436.8282268645993 438.29593161292655 "></path><path d="M430.57656839147256 371.0450111977148C436.6727698770883 381.209915305438 437.99545958260836 413.78029260843476 424.5521512430662 425.5306159890214C411.1088429035241 437.28093936960795 372.144889847286 437.6114675322539 366.04868836167026 427.44656342453067C359.95248687605454 417.28165931680746 381.84707577256864 388.4893996525363 395.2903841121108 376.73907627194967C408.7336924516529 364.98875289136305 424.48036690585684 360.88010708999155 430.57656839147256 371.0450111977148C436.6727698770883 381.209915305438 437.99545958260836 413.78029260843476 424.5521512430662 425.5306159890214 "></path><path d="M415.28826893694725 385.52249796946285C418.3363696797551 390.6049500233245 418.9977145325151 406.8901386748228 412.27606036274403 412.76530036511616C405.554406192973 418.64046205540944 386.0724296648539 418.80572613673246 383.02432892204604 413.72327408287083C379.9762281792382 408.6408220290092 390.9235226274953 394.2446921968736 397.64517679726634 388.3695305065803C404.3668309670374 382.49436881628696 412.24016819413936 380.4400459156012 415.28826893694725 385.52249796946285C418.3363696797551 390.6049500233245 418.9977145325151 406.8901386748228 412.27606036274403 412.76530036511616 "></path></g></svg>