<svg xmlns="http://www.w3.org/2000/svg" version="1.1" xmlns:xlink="http://www.w3.org/1999/xlink" xmlns:svgjs="http://svgjs.dev/svgjs" viewBox="0 0 800 800"><defs><linearGradient x1="50%" y1="0%" x2="50%" y2="100%" id="ffflurry-grad" gradientTransform="rotate(270)"><stop stop-color="hsl(0, 0%, 0%)" stop-opacity="1" offset="0%"></stop><stop stop-color="hsl(0, 0%, 34%)" stop-opacity="1" offset="45%"></stop><stop stop-color="hsl(101, 45%, 20%)" stop-opacity="1" offset="100%"></stop></linearGradient></defs><rect width="100%" height="100%" fill="hsl(0, 0%, 0%)"></rect><g fill="url(#ffflurry-grad)"><rect width="179" height="3" x="677.5" y="307.5" rx="1.5" transform="rotate(63, 767, 309)" opacity="0.21"></rect><rect width="636" height="3" x="88" y="639.5" rx="1.5" transform="rotate(63, 406, 641)" opacity="0.59"></rect><rect width="21" height="3" x="501.5" y="14.5" rx="1.5" transform="rotate(63, 512, 16)" opacity="0.94"></rect><rect width="143" height="3" x="180.5" y="147.5" rx="1.5" transform="rotate(63, 252, 149)" opacity="0.68"></rect><rect width="292" height="3" x="448" y="699.5" rx="1.5" transform="rotate(63, 594, 701)" opacity="0.66"></rect><rect width="258" height="3" x="-85" y="343.5" rx="1.5" transform="rotate(63, 44, 345)" opacity="0.22"></rect><rect width="275" height="3" x="489.5" y="619.5" rx="1.5" transform="rotate(63, 627, 621)" opacity="0.39"></rect><rect width="292" height="3" x="73" y="84.5" rx="1.5" transform="rotate(63, 219, 86)" opacity="0.53"></rect><rect width="220" height="3" x="461" y="171.5" rx="1.5" transform="rotate(63, 571, 173)" opacity="0.33"></rect><rect width="322" height="3" x="334" y="666.5" rx="1.5" transform="rotate(63, 495, 668)" opacity="0.12"></rect><rect width="191" height="3" x="359.5" y="444.5" rx="1.5" transform="rotate(63, 455, 446)" opacity="0.80"></rect><rect width="173" height="3" x="510.5" y="433.5" rx="1.5" transform="rotate(63, 597, 435)" opacity="0.80"></rect><rect width="56" height="3" x="361" y="373.5" rx="1.5" transform="rotate(63, 389, 375)" opacity="0.45"></rect><rect width="320" height="3" x="262" y="565.5" rx="1.5" transform="rotate(63, 422, 567)" opacity="0.81"></rect><rect width="155" height="3" x="144.5" y="322.5" rx="1.5" transform="rotate(63, 222, 324)" opacity="0.60"></rect><rect width="233" height="3" x="383.5" y="305.5" rx="1.5" transform="rotate(63, 500, 307)" opacity="0.10"></rect><rect width="471" height="3" x="-166.5" y="543.5" rx="1.5" transform="rotate(63, 69, 545)" opacity="0.85"></rect><rect width="407" height="3" x="-171.5" y="758.5" rx="1.5" transform="rotate(63, 32, 760)" opacity="0.54"></rect><rect width="174" height="3" x="455" y="88.5" rx="1.5" transform="rotate(63, 542, 90)" opacity="0.52"></rect><rect width="201" height="3" x="667.5" y="195.5" rx="1.5" transform="rotate(63, 768, 197)" opacity="0.71"></rect><rect width="364" height="3" x="419" y="304.5" rx="1.5" transform="rotate(63, 601, 306)" opacity="0.36"></rect><rect width="193" height="3" x="506.5" y="244.5" rx="1.5" transform="rotate(63, 603, 246)" opacity="0.08"></rect><rect width="91" height="3" x="45.5" y="40.5" rx="1.5" transform="rotate(63, 91, 42)" opacity="0.79"></rect><rect width="220" height="3" x="224" y="741.5" rx="1.5" transform="rotate(63, 334, 743)" opacity="0.67"></rect><rect width="389" height="3" x="573.5" y="672.5" rx="1.5" transform="rotate(63, 768, 674)" opacity="0.13"></rect><rect width="185" height="3" x="3.5" y="759.5" rx="1.5" transform="rotate(63, 96, 761)" opacity="0.51"></rect><rect width="122" height="3" x="608" y="245.5" rx="1.5" transform="rotate(63, 669, 247)" opacity="0.20"></rect><rect width="313" height="3" x="570.5" y="764.5" rx="1.5" transform="rotate(63, 727, 766)" opacity="0.32"></rect><rect width="340" height="3" x="-106" y="615.5" rx="1.5" transform="rotate(63, 64, 617)" opacity="0.89"></rect><rect width="491" height="3" x="419.5" y="452.5" rx="1.5" transform="rotate(63, 665, 454)" opacity="0.27"></rect><rect width="267" height="3" x="410.5" y="244.5" rx="1.5" transform="rotate(63, 544, 246)" opacity="0.45"></rect><rect width="193" height="3" x="74.5" y="635.5" rx="1.5" transform="rotate(63, 171, 637)" opacity="0.24"></rect><rect width="323" height="3" x="206.5" y="477.5" rx="1.5" transform="rotate(63, 368, 479)" opacity="0.74"></rect><rect width="293" height="3" x="315.5" y="364.5" rx="1.5" transform="rotate(63, 462, 366)" opacity="0.17"></rect><rect width="109" height="3" x="449.5" y="407.5" rx="1.5" transform="rotate(63, 504, 409)" opacity="0.78"></rect><rect width="223" height="3" x="178.5" y="338.5" rx="1.5" transform="rotate(63, 290, 340)" opacity="0.32"></rect><rect width="291" height="3" x="26.5" y="494.5" rx="1.5" transform="rotate(63, 172, 496)" opacity="0.55"></rect><rect width="138" height="3" x="557" y="18.5" rx="1.5" transform="rotate(63, 626, 20)" opacity="0.57"></rect><rect width="280" height="3" x="78" y="562.5" rx="1.5" transform="rotate(63, 218, 564)" opacity="0.59"></rect><rect width="396" height="3" x="527" y="263.5" rx="1.5" transform="rotate(63, 725, 265)" opacity="0.30"></rect><rect width="125" height="3" x="402.5" y="145.5" rx="1.5" transform="rotate(63, 465, 147)" opacity="0.90"></rect><rect width="248" height="3" x="370" y="218.5" rx="1.5" transform="rotate(63, 494, 220)" opacity="0.97"></rect><rect width="549" height="3" x="463.5" y="539.5" rx="1.5" transform="rotate(63, 738, 541)" opacity="0.24"></rect><rect width="486" height="3" x="-115" y="156.5" rx="1.5" transform="rotate(63, 128, 158)" opacity="0.85"></rect><rect width="49" height="3" x="138.5" y="755.5" rx="1.5" transform="rotate(63, 163, 757)" opacity="0.93"></rect><rect width="181" height="3" x="348.5" y="239.5" rx="1.5" transform="rotate(63, 439, 241)" opacity="0.18"></rect><rect width="331" height="3" x="445.5" y="767.5" rx="1.5" transform="rotate(63, 611, 769)" opacity="0.64"></rect><rect width="180" height="3" x="326" y="35.5" rx="1.5" transform="rotate(63, 416, 37)" opacity="0.12"></rect><rect width="487" height="3" x="257.5" y="528.5" rx="1.5" transform="rotate(63, 501, 530)" opacity="0.22"></rect><rect width="174" height="3" x="416" y="51.5" rx="1.5" transform="rotate(63, 503, 53)" opacity="0.53"></rect><rect width="486" height="3" x="-197" y="108.5" rx="1.5" transform="rotate(63, 46, 110)" opacity="0.38"></rect><rect width="64" height="3" x="398" y="499.5" rx="1.5" transform="rotate(63, 430, 501)" opacity="0.28"></rect><rect width="466" height="3" x="-207" y="671.5" rx="1.5" transform="rotate(63, 26, 673)" opacity="0.62"></rect><rect width="203" height="3" x="189.5" y="481.5" rx="1.5" transform="rotate(63, 291, 483)" opacity="0.51"></rect><rect width="89" height="3" x="373.5" y="283.5" rx="1.5" transform="rotate(63, 418, 285)" opacity="0.41"></rect><rect width="216" height="3" x="537" y="68.5" rx="1.5" transform="rotate(63, 645, 70)" opacity="0.38"></rect><rect width="272" height="3" x="268" y="184.5" rx="1.5" transform="rotate(63, 404, 186)" opacity="0.12"></rect><rect width="398" height="3" x="152" y="120.5" rx="1.5" transform="rotate(63, 351, 122)" opacity="0.76"></rect><rect width="59" height="3" x="537.5" y="347.5" rx="1.5" transform="rotate(63, 567, 349)" opacity="0.53"></rect><rect width="296" height="3" x="216" y="316.5" rx="1.5" transform="rotate(63, 364, 318)" opacity="0.49"></rect><rect width="219" height="3" x="-69.5" y="449.5" rx="1.5" transform="rotate(63, 40, 451)" opacity="0.72"></rect><rect width="154" height="3" x="322" y="414.5" rx="1.5" transform="rotate(63, 399, 416)" opacity="0.07"></rect><rect width="408" height="3" x="116" y="412.5" rx="1.5" transform="rotate(63, 320, 414)" opacity="0.44"></rect><rect width="284" height="3" x="-116" y="34.5" rx="1.5" transform="rotate(63, 26, 36)" opacity="0.36"></rect><rect width="113" height="3" x="477.5" y="596.5" rx="1.5" transform="rotate(63, 534, 598)" opacity="0.52"></rect><rect width="103" height="3" x="363.5" y="331.5" rx="1.5" transform="rotate(63, 415, 333)" opacity="0.82"></rect><rect width="349" height="3" x="-40.5" y="349.5" rx="1.5" transform="rotate(63, 134, 351)" opacity="0.51"></rect><rect width="118" height="3" x="196" y="220.5" rx="1.5" transform="rotate(63, 255, 222)" opacity="0.35"></rect><rect width="525" height="3" x="-29.5" y="420.5" rx="1.5" transform="rotate(63, 233, 422)" opacity="0.91"></rect><rect width="560" height="3" x="-153" y="427.5" rx="1.5" transform="rotate(63, 127, 429)" opacity="0.89"></rect><rect width="428" height="3" x="-34" y="223.5" rx="1.5" transform="rotate(63, 180, 225)" opacity="0.72"></rect><rect width="201" height="3" x="238.5" y="355.5" rx="1.5" transform="rotate(63, 339, 357)" opacity="0.82"></rect><rect width="216" height="3" x="562" y="356.5" rx="1.5" transform="rotate(63, 670, 358)" opacity="0.18"></rect><rect width="41" height="3" x="114.5" y="272.5" rx="1.5" transform="rotate(63, 135, 274)" opacity="0.42"></rect><rect width="84" height="3" x="672" y="146.5" rx="1.5" transform="rotate(63, 714, 148)" opacity="0.58"></rect><rect width="316" height="3" x="456" y="533.5" rx="1.5" transform="rotate(63, 614, 535)" opacity="0.83"></rect><rect width="478" height="3" x="185" y="746.5" rx="1.5" transform="rotate(63, 424, 748)" opacity="0.58"></rect><rect width="336" height="3" x="161" y="245.5" rx="1.5" transform="rotate(63, 329, 247)" opacity="0.29"></rect><rect width="260" height="3" x="171" y="37.5" rx="1.5" transform="rotate(63, 301, 39)" opacity="0.89"></rect><rect width="339" height="3" x="435.5" y="109.5" rx="1.5" transform="rotate(63, 605, 111)" opacity="1.00"></rect><rect width="46" height="3" x="141" y="45.5" rx="1.5" transform="rotate(63, 164, 47)" opacity="0.07"></rect><rect width="98" height="3" x="188" y="733.5" rx="1.5" transform="rotate(63, 237, 735)" opacity="0.29"></rect><rect width="163" height="3" x="376.5" y="91.5" rx="1.5" transform="rotate(63, 458, 93)" opacity="0.78"></rect><rect width="68" height="3" x="287" y="554.5" rx="1.5" transform="rotate(63, 321, 556)" opacity="0.23"></rect><rect width="348" height="3" x="-126" y="257.5" rx="1.5" transform="rotate(63, 48, 259)" opacity="0.08"></rect><rect width="141" height="3" x="620.5" y="672.5" rx="1.5" transform="rotate(63, 691, 674)" opacity="0.50"></rect><rect width="212" height="3" x="437" y="472.5" rx="1.5" transform="rotate(63, 543, 474)" opacity="0.42"></rect><rect width="190" height="3" x="6" y="690.5" rx="1.5" transform="rotate(63, 101, 692)" opacity="0.59"></rect><rect width="28" height="3" x="544" y="393.5" rx="1.5" transform="rotate(63, 558, 395)" opacity="0.41"></rect><rect width="331" height="3" x="131.5" y="642.5" rx="1.5" transform="rotate(63, 297, 644)" opacity="0.46"></rect><rect width="110" height="3" x="520" y="34.5" rx="1.5" transform="rotate(63, 575, 36)" opacity="0.43"></rect><rect width="486" height="3" x="512" y="407.5" rx="1.5" transform="rotate(63, 755, 409)" opacity="0.25"></rect><rect width="346" height="3" x="592" y="27.5" rx="1.5" transform="rotate(63, 765, 29)" opacity="0.58"></rect><rect width="211" height="3" x="408.5" y="753.5" rx="1.5" transform="rotate(63, 514, 755)" opacity="0.33"></rect><rect width="282" height="3" x="387" y="150.5" rx="1.5" transform="rotate(63, 528, 152)" opacity="0.72"></rect><rect width="232" height="3" x="500" y="185.5" rx="1.5" transform="rotate(63, 616, 187)" opacity="0.24"></rect><rect width="294" height="3" x="514" y="159.5" rx="1.5" transform="rotate(63, 661, 161)" opacity="0.98"></rect><rect width="363" height="3" x="589.5" y="100.5" rx="1.5" transform="rotate(63, 771, 102)" opacity="0.30"></rect><rect width="399" height="3" x="507.5" y="77.5" rx="1.5" transform="rotate(63, 707, 79)" opacity="0.85"></rect><rect width="326" height="3" x="-121" y="184.5" rx="1.5" transform="rotate(63, 42, 186)" opacity="0.58"></rect><rect width="228" height="3" x="580" y="21.5" rx="1.5" transform="rotate(63, 694, 23)" opacity="0.17"></rect></g></svg>