<svg xmlns="http://www.w3.org/2000/svg" version="1.1" xmlns:xlink="http://www.w3.org/1999/xlink" xmlns:svgjs="http://svgjs.dev/svgjs" viewBox="0 0 800 800"><defs><linearGradient x1="50%" y1="0%" x2="50%" y2="100%" id="ccchaos-grad"><stop stop-color="hsl(89, 73%, 48%)" stop-opacity="1" offset="0%"></stop><stop stop-color="hsl(212, 72%, 59%)" stop-opacity="1" offset="100%"></stop></linearGradient></defs><g stroke-width="2" stroke="url(#ccchaos-grad)" fill="none" stroke-linecap="round"><path d="M377.86 40.03C386.46 38.99 403.61 38.43 412.18 38.93 417.9 39.48 423.64 40.31 429.39 41.4 435.18 42.62 441 44.09 446.87 45.82 458.76 49.59 470.99 54.26 483.66 59.72 496.74 65.43 510.44 71.76 524.81 78.6 539.65 85.43 555.13 92.61 571.11 100.06 587.15 107.29 603.18 114.68 618.75 122.17 633.34 129.33 646.5 136.56 657.59 143.85 666.48 150.78 672.51 157.8 675.39 164.92 675.95 171.74 673.87 178.73 669.79 185.93 665.58 192.9 661.56 200.15 659.09 207.69 660.01 215.11 664.63 222.89 673.54 231.04 686.92 239.12 703.76 247.62 722.66 256.51 741.84 265.39 759 274.68 771.91 284.36 779.29 294.05 779.83 304.12 773.47 314.56 768.32 319.78 761.98 325.09 754.72 330.49 747.12 335.89 739.32 341.37 731.71 346.93 724.85 352.5 718.91 358.15 714.2 363.87 711.13 369.6 709.72 375.41 710.08 381.3 712.35 387.19 716.24 393.09 721.54 398.99 728.15 404.9 735.56 410.83 743.39 416.76 751.46 422.69 759.18 428.64 766.19 434.6 772.35 440.57 777.18 446.56 780.46 452.55 782.31 464.6 776.98 476.73 765.29 488.94 749.12 501.26 730.24 513.69 711.04 526.23 693.73 538.9 679.76 551.69 670.04 564.55 665.17 577.52 664.36 590.52 666.57 603.49 671.31 616.44 676.45 629.24 680.66 641.74 683.72 654.01 683.96 665.79 681.03 676.89 675.37 687.47 666.55 697.13 655.08 705.68 641.64 713.41 626.61 719.83 610.69 724.8 594.23 728.81 577.81 731.33 561.8 732.35 546.2 732.56 531.36 731.48 517.32 729.24 503.89 726.74 491.17 723.56 479.01 719.96 467.29 716.9 455.89 714.02 444.68 711.6 436.38 710.61 419.81 710.35 411.49 711.18 405.94 712.25 400.35 713.6 394.71 715.24 389.07 717.27 383.39 719.56 377.65 722.08 371.92 724.94 366.2 727.93 360.51 731.02 354.83 734.33 349.18 737.64 343.56 740.91 337.96 744.27 332.41 747.5 326.92 750.55 321.45 753.56 316.05 756.3 310.73 758.75 300.18 763.11 290.03 765.89 280.38 766.92 270.88 766.7 261.93 764.56 253.56 760.54 245.3 755.22 237.57 748.19 230.32 739.67 222.96 730.21 215.88 719.62 208.97 708.17 201.58 696.3 194.1 683.96 186.41 671.34 177.99 658.8 169.24 646.26 160.19 633.86 150.56 621.82 140.85 610.03 131.25 598.52 121.68 587.46 112.69 576.68 104.54 566.13 97.04 555.99 90.68 545.99 85.52 536.09 81.06 526.47 77.61 516.83 74.99 507.12 72.43 497.57 70.2 487.84 68.1 477.9 65.41 468.03 62.6 457.88 59.71 447.43 57.24 439.56 52.44 423.41 50.28 415.13 48.36 406.75 45.85 389.59 45.4 380.81 45.37 374.92 45.65 369.03 46.23 363.14 46.97 357.25 47.97 351.35 49.22 345.47 50.56 339.59 52.08 333.72 53.76 327.87 55.43 322.03 57.2 316.21 59.02 310.42 62.34 298.88 65.65 287.49 68.83 276.31 71.34 265.23 73.83 254.4 76.48 243.9 78.96 233.54 82.08 223.54 86.05 213.99 90.59 204.61 96.3 195.7 103.19 187.33 110.83 179.13 119.48 171.47 128.91 164.39 138.6 157.46 148.62 151.07 158.74 145.24 168.46 139.47 177.96 134.18 187.16 129.35 195.67 124.44 203.88 119.89 211.88 115.65 219.31 111.16 226.74 106.87 234.31 102.75 241.62 98.24 249.28 93.8 257.37 89.45 265.44 84.64 274.04 79.9 283.17 75.26 292.38 70.25 302.11 65.43 312.28 60.88 320.01 57.42 335.95 51.05 344.14 48.22 352.4 45.62 369.27 41.48 377.85 40.03" stroke-dasharray="9 8" transform="rotate(0, 400, 400)" opacity="0.67"></path><path d="M382.24 53.14C393.39 51.68 404.73 51.26 416.25 51.88 427.83 53.01 439.69 55.17 451.88 58.31 464.24 61.89 477.05 66.35 490.33 71.59 503.87 77.09 517.94 83.21 532.47 89.86 547.14 96.55 562.08 103.6 577.02 110.95 591.56 118.13 605.54 125.49 618.47 132.97 630.1 140.17 639.92 147.44 647.46 154.79 652.98 161.8 655.9 168.89 656.22 176.07 655.06 182.94 652.19 189.96 648.42 197.14 645.5 204.09 643.68 211.27 644.08 218.7 648.05 225.97 655.63 233.56 667.01 241.46 681.94 249.29 699.28 257.47 717.56 266.02 735.16 274.53 750.06 283.43 760.43 292.7 765.47 301.95 764.22 311.58 756.89 321.59 745.51 331.58 731.31 341.93 716.79 352.64 705.3 363.34 698.3 374.4 697.3 385.8 703.15 397.2 714.13 408.7 728.09 420.26 743.24 431.84 756.17 443.51 764.67 455.26 767.95 467.06 764.7 478.97 755.39 490.97 741.5 503.04 724.34 515.22 705.98 527.49 688.42 539.83 673.12 552.26 661.19 564.7 653.44 577.18 649.56 589.62 648.96 601.94 651.39 614.17 655.14 626.15 659.02 637.75 662.8 649.05 664.8 659.78 664.41 669.79 661.97 679.24 656.66 687.76 648.7 695.18 638.71 701.83 626.71 707.23 613.26 711.28 598.81 714.49 583.74 716.35 568.52 716.88 553.23 716.76 538.25 715.52 523.79 713.31 509.66 710.96 496.12 708.07 483.15 704.87 470.53 702.25 458.36 699.84 446.56 697.88 434.95 697.16 423.56 697.27 412.33 698.33 401.15 700.92 390.04 704.5 378.97 708.97 367.91 714.66 357.14 720.67 346.69 726.69 336.26 733.07 326.18 738.81 316.52 743.64 306.91 747.93 297.74 750.8 289.08 752.11 280.46 752.33 272.32 750.78 264.66 747.5 256.94 743.04 249.59 736.95 242.53 729.41 235.16 720.95 227.89 711.34 220.59 700.81 212.73 689.8 204.64 678.2 196.27 666.23 187.24 654.2 177.92 642.04 168.4 629.9 158.51 618 148.72 606.24 139.24 594.69 130 583.5 121.52 572.52 114 561.77 107.22 551.36 101.6 541.11 97.17 530.98 93.36 521.12 90.46 511.29 88.28 501.44 86.03 491.77 83.99 481.99 81.96 472.08 79.27 462.25 76.38 452.22 73.35 441.97 69.76 431.75 66.35 421.27 63.4 410.53 60.62 399.8 58.81 388.79 58.18 377.54 58.29 366.28 59.67 355.04 62.15 343.88 65.02 332.73 68.54 321.67 72.43 310.75 75.92 299.89 79.36 289.2 82.62 278.75 85.14 268.39 87.55 258.3 89.99 248.55 92.14 238.92 94.79 229.67 98.16 220.85 101.99 212.18 106.93 203.96 113.02 196.25 119.9 188.67 127.87 181.6 136.76 175.06 146.1 168.62 155.98 162.67 166.15 157.21 176.16 151.76 186.11 146.73 195.86 142.1 205.05 137.34 213.94 132.89 222.56 128.7 230.58 124.23 238.46 119.93 246.3 115.76 253.74 111.21 261.34 106.72 269.2 102.31 276.88 97.47 284.96 92.7 293.48 88.04 301.95 83.04 310.92 78.24 320.35 73.73 329.78 69.08 339.68 64.88 350.01 61.25 360.33 57.75 371.07 55.01 382.23 53.14" stroke-dasharray="1 11" transform="rotate(4.04, 400, 400)" opacity="0.72"></path><path d="M390.67 66.26C401.6 64.79 412.85 64.32 424.4 64.85 436 65.85 447.98 67.86 460.32 70.81 472.78 74.19 485.66 78.42 498.91 83.42 512.25 88.7 525.89 94.6 539.68 101.04 553.31 107.54 566.8 114.44 579.82 121.65 592.14 128.74 603.46 136.04 613.38 143.49 621.9 150.69 628.51 157.99 632.94 165.37 635.76 172.44 636.48 179.6 635.33 186.83 633.55 193.77 631.01 200.83 628.5 208.03 627.57 214.99 628.38 222.14 631.75 229.5 638.57 236.69 648.66 244.15 661.85 251.88 677.64 259.51 694.83 267.46 711.98 275.74 727.68 283.96 740.21 292.53 748.11 301.46 751.01 310.35 748.23 319.61 740.17 329.23 728.86 338.82 715.4 348.79 701.99 359.11 691.58 369.42 685.33 380.09 684.52 391.13 689.92 402.16 699.98 413.31 712.88 424.55 727.14 435.81 739.73 447.18 748.64 458.64 753.11 470.13 751.74 481.74 744.7 493.42 733.13 505.16 717.94 516.98 700.84 528.85 683.61 540.76 667.64 552.69 654.1 564.58 643.94 576.45 637.24 588.21 633.77 599.77 633.52 611.18 635.21 622.26 637.85 632.88 641.3 643.17 643.94 652.84 645.07 661.74 644.94 670.1 642.48 677.52 637.66 683.87 631.03 689.53 622.26 694.01 611.76 697.25 599.99 699.78 587.13 701.1 573.61 701.24 559.62 700.89 545.49 699.58 531.49 697.45 517.53 695.31 503.91 692.73 490.73 689.94 477.74 687.75 465.19 685.79 453.07 684.26 441.09 683.89 429.46 684.27 418.15 685.5 406.89 688.12 395.87 691.6 385.08 695.85 374.3 701.22 363.97 706.86 354.09 712.5 344.19 718.49 334.75 723.93 325.77 728.54 316.77 732.74 308.22 735.67 300.13 737.19 291.97 737.78 284.19 736.76 276.77 734.15 269.13 730.48 261.7 725.27 254.39 718.68 246.67 711.2 238.89 702.57 230.96 692.99 222.44 682.88 213.68 672.1 204.64 660.85 195.07 649.45 185.34 637.81 175.56 626.08 165.65 614.47 156.02 602.91 146.91 591.46 138.24 580.28 130.45 569.26 123.72 558.42 117.76 547.87 112.94 537.46 109.24 527.19 106.07 517.15 103.67 507.18 101.84 497.24 99.82 487.47 97.88 477.65 95.85 467.76 93.08 457.97 90.07 448.04 86.87 437.97 83.12 427.94 79.56 417.72 76.44 407.32 73.56 396.93 71.65 386.34 70.97 375.56 71.07 364.79 72.47 354.09 75.02 343.51 78 332.94 81.66 322.5 85.7 312.25 89.37 302.03 92.97 292.02 96.36 282.28 98.97 272.6 101.38 263.22 103.7 254.19 105.62 245.25 107.88 236.69 110.72 228.56 113.88 220.53 118.03 212.94 123.27 205.82 129.27 198.8 136.4 192.25 144.55 186.18 153.29 180.15 162.75 174.56 172.71 169.41 182.73 164.22 192.9 159.39 203.03 154.91 212.77 150.25 222.3 145.85 231.59 141.68 240.33 137.21 248.86 132.87 257.25 128.65 265.18 124.05 273.11 119.51 281.16 115.04 288.91 110.17 296.92 105.39 305.24 100.72 313.43 95.75 322.03 90.99 331.06 86.53 340.03 81.95 349.48 77.82 359.41 74.25 369.32 70.82 379.73 68.12 390.66 66.26" stroke-dasharray="8 5" transform="rotate(8.08, 400, 400)" opacity="0.11"></path><path d="M401.23 79.38C411.98 77.9 423.06 77.38 434.45 77.82 445.88 78.71 457.65 80.56 469.72 83.31 481.83 86.48 494.21 90.49 506.76 95.24 519.23 100.27 531.73 105.93 544.03 112.13 555.96 118.43 567.38 125.14 577.97 132.18 587.72 139.14 596.23 146.34 603.18 153.72 608.91 160.89 612.85 168.18 614.94 175.56 615.99 182.68 615.57 189.88 614.05 197.16 612.69 204.17 611.38 211.28 610.85 218.5 612.35 225.5 615.92 232.65 622.09 239.98 631.36 247.13 643.36 254.5 657.69 262.12 673.66 269.61 690.11 277.39 705.7 285.46 719.28 293.45 729.4 301.77 734.97 310.41 735.96 319 731.9 327.94 723.35 337.22 712.27 346.47 699.6 356.08 687.29 366.04 677.92 375.99 672.38 386.3 671.74 396.96 676.7 407.63 685.89 418.43 697.76 429.31 711.11 440.22 723.25 451.23 732.39 462.33 737.84 473.46 738.13 484.68 733.21 495.96 723.95 507.27 710.87 518.63 695.38 529.99 679 541.35 662.96 552.68 648.46 563.91 636.47 575.07 627.37 586.05 621.2 596.76 618.16 607.27 617.38 617.4 618.13 627.01 620.33 636.27 622.59 644.88 624.19 652.71 625.32 660.01 624.8 666.41 622.41 671.79 618.64 676.54 612.87 680.21 605.32 682.76 596.5 684.71 586.31 685.6 575.08 685.46 563.15 684.97 550.66 683.66 537.92 681.68 524.95 679.78 512.02 677.54 499.29 675.16 486.58 673.4 474.18 671.87 462.13 670.74 450.17 670.7 438.55 671.32 427.29 672.69 416.08 675.31 405.18 678.69 394.6 682.73 384.02 687.79 373.97 693.07 364.42 698.33 354.84 703.95 345.74 709.07 337.09 713.47 328.37 717.54 320.05 720.48 312.11 722.17 304 723.07 296.17 722.51 288.55 720.51 280.63 717.55 272.79 713.16 264.93 707.46 256.62 700.93 248.17 693.26 239.51 684.64 230.36 675.46 220.98 665.56 211.43 655.11 201.54 644.43 191.64 633.43 181.88 622.22 172.23 611.05 163.05 599.82 154.56 588.63 146.65 577.61 139.72 566.69 133.88 555.9 128.8 545.33 124.8 534.88 121.8 524.56 119.19 514.45 117.21 504.41 115.64 494.43 113.75 484.61 111.82 474.78 109.71 464.95 106.82 455.2 103.64 445.38 100.27 435.49 96.37 425.64 92.66 415.67 89.42 405.59 86.45 395.52 84.49 385.32 83.75 375 83.84 364.69 85.26 354.5 87.84 344.48 90.9 334.46 94.66 324.61 98.83 314.99 102.68 305.38 106.46 296.02 110.01 286.94 112.78 277.91 115.27 269.19 117.58 260.82 119.37 252.52 121.35 244.59 123.74 237.07 126.3 229.62 129.71 222.59 134.09 216 139.15 209.46 145.34 203.35 152.57 197.67 160.5 191.99 169.27 186.69 178.71 181.78 188.45 176.79 198.52 172.1 208.74 167.71 218.8 163.12 228.79 158.74 238.62 154.55 248.04 150.06 257.26 145.68 266.3 141.4 274.9 136.75 283.41 132.16 291.92 127.64 300.09 122.76 308.38 117.96 316.87 113.31 325.16 108.38 333.75 103.67 342.7 99.27 351.55 94.78 360.82 90.73 370.56 87.23 380.26 83.87 390.47 81.22 401.22 79.38" stroke-dasharray="9 0" transform="rotate(12.12, 400, 400)" opacity="0.30"></path><path d="M411.5 92.49C422.04 91.02 432.82 90.46 443.82 90.8 454.84 91.58 466.06 93.27 477.42 95.83 488.75 98.79 500.13 102.55 511.44 107.04 522.55 111.81 533.38 117.21 543.74 123.15 553.61 129.21 562.7 135.7 570.76 142.54 578.01 149.34 583.96 156.41 588.44 163.67 592 170.77 594.1 178.02 594.84 185.37 595.14 192.5 594.63 199.72 593.75 207.01 593.65 214.07 594.22 221.22 596.07 228.47 600.13 235.51 606.33 242.67 614.92 249.99 626.08 257.13 639.31 264.45 654.06 271.99 669.59 279.39 684.81 287.04 698.52 294.95 709.85 302.77 717.62 310.88 721.04 319.28 720.36 327.62 715.29 336.29 706.46 345.27 695.74 354.22 683.93 363.5 672.71 373.12 664.32 382.73 659.44 392.68 658.95 402.98 663.51 413.27 671.87 423.69 682.73 434.19 695.16 444.7 706.76 455.31 715.97 465.99 722.17 476.69 723.88 487.45 720.9 498.24 713.86 509.03 702.98 519.83 689.35 530.59 674.26 541.32 658.73 551.96 643.89 562.44 630.73 572.81 619.76 582.95 611.28 592.75 605.59 602.33 602.22 611.48 600.68 620.08 600.99 628.32 602.02 635.9 603.12 642.7 604.65 651.76 600.57 664.43 593.91 667.88 587.85 669.38 580.34 669.94 571.63 669.62 562.12 669.06 551.77 667.83 540.83 666.04 529.5 664.4 517.9 662.52 506.21 660.55 494.41 659.19 482.69 658.07 471.16 657.32 459.64 657.57 448.36 658.41 437.37 659.89 426.41 662.51 415.72 665.78 405.34 669.62 394.96 674.37 385.08 679.3 375.69 684.2 366.25 689.45 357.24 694.25 348.62 698.42 339.89 702.34 331.48 705.26 323.34 707.07 314.99 708.21 306.8 708.05 298.7 706.58 290.28 704.26 281.84 700.64 273.3 695.77 264.36 690.14 255.25 683.41 245.97 675.72 236.33 667.48 226.57 658.49 216.77 648.9 206.85 639.02 197.1 628.73 187.7 618.17 178.59 607.55 170.13 596.79 162.48 585.99 155.5 575.28 149.53 564.59 144.65 553.99 140.45 543.54 137.21 533.18 134.84 522.92 132.71 512.83 131.03 502.82 129.62 492.88 127.76 483.08 125.77 473.31 123.51 463.56 120.45 453.9 117.09 444.21 113.53 434.51 109.49 424.85 105.67 415.13 102.33 405.36 99.31 395.6 97.31 385.77 96.53 375.89 96.61 366.01 98.02 356.31 100.6 346.8 103.71 337.3 107.54 328.02 111.81 318.97 115.82 309.95 119.79 301.18 123.53 292.71 126.5 284.28 129.15 276.16 131.54 268.39 133.31 260.66 135.13 253.29 137.2 246.32 139.27 239.38 142.02 232.83 145.59 226.69 149.73 220.55 154.92 214.81 161.13 209.44 168.06 204.04 175.93 198.97 184.58 194.24 193.7 189.38 203.33 184.79 213.31 180.45 223.35 175.89 233.49 171.51 243.61 167.28 253.49 162.75 263.25 158.32 272.86 153.98 282.13 149.28 291.27 144.65 300.34 140.1 309.1 135.21 317.88 130.43 326.74 125.79 335.39 120.92 344.22 116.29 353.31 111.96 362.28 107.56 371.58 103.61 381.26 100.19 390.89 96.91 400.96 94.32 411.49 92.49" stroke-dasharray="7 6" transform="rotate(16.16, 400, 400)" opacity="0.48"></path><path d="M419.16 105.61C429.39 104.14 439.72 103.54 450.1 103.8 460.47 104.47 470.86 106 481.18 108.36 491.42 111.1 501.47 114.61 511.2 118.83 520.68 123.33 529.65 128.45 537.94 134.11 545.74 139.91 552.63 146.15 558.45 152.75 563.63 159.36 567.62 166.24 570.4 173.34 572.64 180.34 573.87 187.49 574.27 194.77 574.77 201.87 575.08 209.07 575.62 216.36 577.35 223.44 580.16 230.61 584.5 237.87 590.96 244.93 599.41 252.11 609.86 259.41 622.24 266.55 636 273.85 650.51 281.32 665.06 288.66 678.65 296.22 690.28 303.99 699.33 311.67 704.87 319.61 706.37 327.81 704.3 335.94 698.47 344.37 689.56 353.08 679.32 361.75 668.4 370.74 658.24 380.03 650.78 389.3 646.52 398.9 646.17 408.82 650.34 418.73 657.91 428.74 667.81 438.82 679.3 448.91 690.3 459.07 699.42 469.27 706.16 479.47 709.06 489.71 707.8 499.93 702.85 510.14 694.16 520.31 682.53 530.39 669.07 540.42 654.54 550.3 639.97 559.96 626.3 569.5 614.1 578.75 603.81 587.62 595.85 596.26 590.02 604.44 586.09 612.04 583.74 622.61 583.95 639.5 583.78 645.54 582.24 650.01 571.82 654.02 562.84 653.77 555.73 653.22 547.63 652.11 538.74 650.55 529.38 649.21 519.5 647.68 509.26 646.11 498.82 645.14 488.22 644.4 477.59 644 466.91 644.51 456.29 645.53 445.8 647.12 435.32 649.72 425 652.87 414.87 656.5 404.73 660.95 395 665.54 385.65 670.1 376.26 674.99 367.19 679.48 358.41 683.4 349.51 687.15 340.82 690.02 332.28 691.91 323.55 693.24 314.87 693.41 306.19 692.4 297.23 690.65 288.19 687.71 279.05 683.62 269.6 678.83 260.04 672.99 250.39 666.22 240.55 658.91 230.73 650.84 221.03 642.13 211.43 633.1 202.18 623.6 193.44 613.76 185.15 603.8 177.62 593.62 170.99 583.33 165.04 573.06 160.08 562.75 156.13 552.45 152.75 542.26 150.2 532.11 148.35 522.04 146.56 512.09 145.08 502.21 143.71 492.4 141.79 482.7 139.65 473.05 137.19 463.45 133.93 453.92 130.37 444.41 126.64 434.92 122.49 425.47 118.58 416.01 115.19 406.55 112.14 397.1 110.12 387.64 109.31 378.17 109.38 368.71 110.76 359.46 113.32 350.44 116.43 341.43 120.3 332.66 124.64 324.15 128.79 315.66 132.93 307.43 136.88 299.52 140.09 291.62 142.95 284.04 145.5 276.79 147.36 269.57 149.14 262.69 151.02 256.18 152.74 249.68 154.96 243.54 157.83 237.76 161.11 231.96 165.32 226.5 170.48 221.38 176.32 216.19 183.12 211.29 190.77 206.68 198.98 201.92 207.86 197.38 217.24 193.05 226.88 188.5 236.79 184.09 246.84 179.82 256.85 175.25 266.85 170.76 276.79 166.36 286.53 161.63 296.17 156.97 305.71 152.4 315.02 147.53 324.3 142.77 333.57 138.18 342.65 133.38 351.83 128.83 361.13 124.59 370.32 120.31 379.73 116.46 389.38 113.12 399 109.94 408.91 107.41 419.15 105.61" stroke-dasharray="6 9" transform="rotate(20.200000000000003, 400, 400)" opacity="0.13"></path><path d="M422.44 118.73C432.26 117.27 441.99 116.64 451.58 116.81 461.15 117.37 470.52 118.75 479.63 120.91 488.62 123.43 497.23 126.69 505.34 130.63 513.2 134.85 520.4 139.68 526.83 145.03 532.87 150.55 538.01 156.51 542.19 162.84 545.96 169.21 548.79 175.87 550.76 182.78 552.6 189.61 553.87 196.63 554.84 203.79 556.35 210.81 558.13 217.95 560.57 225.18 564.4 232.25 569.49 239.4 576.12 246.64 584.61 253.71 594.75 260.88 606.4 268.16 619.31 275.29 632.94 282.56 646.62 289.97 659.73 297.27 671.43 304.74 680.86 312.39 687.7 319.96 691.18 327.75 691.02 335.76 687.82 343.71 681.48 351.91 672.68 360.36 663.02 368.78 653.01 377.48 643.88 386.44 637.31 395.39 633.61 404.63 633.39 414.14 637.18 423.66 644.02 433.25 652.98 442.87 663.54 452.49 673.87 462.16 682.78 471.82 689.85 481.49 693.7 491.14 693.93 500.73 690.88 510.31 684.31 519.79 674.77 529.14 663.16 538.41 650.03 547.49 636.27 556.31 622.71 564.99 609.93 573.34 598.46 581.29 588.74 589.01 580.81 596.24 574.64 602.9 568.91 612.11 564.41 626.52 563.44 631.53 558.94 636.74 541.11 637 531.11 635.24 523.73 634.2 515.65 633.03 507.04 631.85 498.18 631.24 488.95 630.85 479.46 630.77 469.89 631.51 460.17 632.7 450.39 634.36 440.6 636.92 430.79 639.95 421 643.38 411.21 647.55 401.67 651.81 392.36 656.03 383.02 660.56 373.86 664.74 364.87 668.41 355.79 671.97 346.79 674.76 337.85 676.68 328.75 678.15 319.64 678.59 310.48 677.98 301.12 676.73 291.69 674.4 282.18 671.01 272.52 667 262.82 662 253.15 656.11 243.49 649.7 233.99 642.54 224.78 634.73 215.84 626.57 207.39 617.91 199.59 608.86 192.33 599.63 185.88 590.13 180.35 580.45 175.45 570.73 171.48 560.91 168.4 551.05 165.74 541.24 163.74 531.42 162.27 521.65 160.7 511.96 159.27 502.31 157.83 492.73 155.76 483.23 153.41 473.77 150.71 464.39 147.24 455.06 143.49 445.77 139.6 436.53 135.37 427.33 131.4 418.15 127.98 409.01 124.94 399.88 122.92 390.78 122.1 381.71 122.14 372.65 123.49 363.83 125.99 355.28 129.08 346.72 132.95 338.42 137.32 330.4 141.57 322.38 145.86 314.65 150.01 307.23 153.48 299.8 156.6 292.69 159.37 285.9 161.43 279.12 163.3 272.66 165.12 266.53 166.65 260.39 168.49 254.58 170.81 249.1 173.36 243.56 176.68 238.33 180.84 233.39 185.57 228.36 191.22 223.57 197.74 219.03 204.84 214.33 212.7 209.81 221.18 205.47 230.05 200.9 239.34 196.46 248.94 192.13 258.66 187.52 268.53 182.99 278.44 178.54 288.3 173.79 298.13 169.12 307.91 164.54 317.55 159.71 327.15 155 336.69 150.46 346.12 145.76 355.54 141.31 364.99 137.17 374.37 133.01 383.83 129.27 393.39 126.04 402.93 122.96 412.61 120.49 422.43 118.73" stroke-dasharray="9 10" transform="rotate(24.24, 400, 400)" opacity="0.78"></path><path d="M420.61 131.84C429.9 130.41 438.92 129.74 447.65 129.84 456.34 130.29 464.67 131.51 472.57 133.47 480.37 135.78 487.65 138.79 494.33 142.44 500.82 146.37 506.62 150.89 511.67 155.92 516.47 161.13 520.51 166.79 523.79 172.82 526.93 178.91 529.45 185.32 531.47 191.98 533.71 198.61 535.81 205.45 538.02 212.44 541.03 219.33 544.65 226.36 549.15 233.49 555.03 240.49 562.16 247.58 570.65 254.76 580.61 261.8 591.79 268.94 603.92 276.17 616.7 283.27 629.58 290.49 641.96 297.83 653.32 305.06 662.96 312.44 670.21 319.98 674.96 327.44 676.63 335.08 675.07 342.9 671.02 350.68 664.4 358.67 655.85 366.86 646.85 375.03 637.77 383.43 629.64 392.07 623.89 400.69 620.72 409.55 620.61 418.65 624.05 427.76 630.19 436.89 638.26 446.02 647.89 455.15 657.51 464.28 666.09 473.38 673.31 482.46 677.87 491.49 679.35 500.42 677.99 509.31 673.4 518.08 665.93 526.65 656.3 535.15 644.86 543.42 632.33 551.39 619.45 559.22 606.73 566.69 594.72 573.74 583.88 580.57 574.38 586.92 566.34 592.71 557.43 600.67 547.32 612.91 544.56 617.07 539.8 621.33 526.21 621.51 518.53 620.13 512.81 619.4 506.36 618.57 499.26 617.77 491.93 617.5 484.09 617.43 475.83 617.63 467.45 618.57 458.76 619.89 449.81 621.62 440.84 624.13 431.67 627.04 422.35 630.27 413.02 634.15 403.76 638.1 394.58 641.99 385.38 646.17 376.24 650.04 367.13 653.47 357.97 656.82 348.8 659.51 339.62 661.43 330.34 662.99 321.02 663.63 311.64 663.35 302.19 662.53 292.69 660.73 283.18 657.98 273.68 654.67 264.24 650.45 254.97 645.38 245.86 639.84 237.05 633.56 228.67 626.63 220.68 619.36 213.29 611.56 206.61 603.33 200.49 594.9 195.19 586.15 190.76 577.16 186.87 568.08 183.78 558.85 181.44 549.53 179.34 540.21 177.74 530.85 176.49 521.48 174.99 512.16 173.5 502.85 171.88 493.59 169.6 484.38 166.99 475.21 164.02 466.11 160.34 457.06 156.42 448.05 152.41 439.1 148.11 430.19 144.13 421.32 140.72 412.52 137.72 403.73 135.71 394.99 134.88 386.31 134.9 377.64 136.19 369.23 138.62 361.1 141.66 352.97 145.48 345.1 149.84 337.52 154.16 329.94 158.58 322.64 162.9 315.64 166.62 308.64 170.02 301.93 173.07 295.53 175.39 289.11 177.46 283 179.37 277.19 181.68 268.57 187.73 252.67 192.3 245.33 196 240.4 200.53 235.69 205.88 231.19 211.77 226.51 218.44 222 225.79 217.63 233.6 213.04 241.96 208.56 250.73 204.18 259.77 199.54 269.08 194.98 278.56 190.49 288.13 185.75 297.77 181.08 307.42 176.52 317.05 171.74 326.65 167.1 336.2 162.64 345.71 158.05 355.17 153.72 364.58 149.7 373.96 145.67 383.32 142.06 392.66 138.94 401.99 135.96 411.31 133.57 420.6 131.84" stroke-dasharray="7 5" transform="rotate(28.28, 400, 400)" opacity="0.25"></path><path d="M414.07 144.96C422.74 143.55 431.03 142.85 438.91 142.88 446.75 143.23 454.13 144.3 461.01 146.07 467.81 148.16 474.05 150.91 479.7 154.28 485.23 157.91 490.13 162.11 494.42 166.81 498.62 171.69 502.26 177.01 505.4 182.72 508.64 188.51 511.57 194.62 514.36 201 517.59 207.38 521.01 213.97 524.83 220.75 529.56 227.46 535.04 234.32 541.45 241.3 549.07 248.17 557.77 255.16 567.54 262.23 578.31 269.19 589.82 276.25 601.77 283.39 613.81 290.42 625.47 297.56 636.17 304.8 645.6 311.95 653.14 319.23 658.3 326.63 661.16 333.96 661.27 341.44 658.61 349.08 653.96 356.66 647.26 364.43 639.12 372.36 630.84 380.27 622.69 388.37 615.51 396.66 610.53 404.94 607.84 413.42 607.82 422.08 610.94 430.75 616.42 439.4 623.64 448.02 632.36 456.63 641.23 465.2 649.38 473.69 656.58 482.17 661.63 490.55 664.11 498.79 664.2 506.99 661.4 515.01 655.91 522.82 648.3 530.54 638.72 538 627.75 545.14 616.02 552.15 603.93 558.78 592.02 564.98 580.71 570.99 570.26 576.53 560.88 581.52 552.79 586.29 545.89 590.49 540.08 594.07 529.24 601.79 517.95 606.87 513.69 606.67 508.75 606.21 495.3 604.57 486.78 603.86 480.72 603.91 474.09 604.13 466.94 604.58 459.69 605.7 452 607.13 443.92 608.89 435.81 611.34 427.35 614.12 418.59 617.15 409.83 620.76 400.99 624.4 392.09 627.97 383.2 631.83 374.24 635.39 365.23 638.56 356.21 641.7 347.12 644.26 337.98 646.14 328.83 647.75 319.62 648.55 310.4 648.53 301.21 648.07 292.04 646.74 282.96 644.54 273.99 641.86 265.22 638.35 256.72 634.05 248.5 629.32 240.69 623.88 233.41 617.81 226.57 611.41 220.37 604.47 214.9 597.08 209.94 589.47 205.75 581.51 202.33 573.27 199.32 564.92 196.95 556.36 195.18 547.66 193.47 538.93 192.09 530.1 190.89 521.24 189.32 512.38 187.66 503.51 185.79 494.66 183.24 485.84 180.34 477.05 177.1 468.31 173.22 459.59 169.15 450.93 165.05 442.33 160.74 433.75 156.78 425.23 153.4 416.79 150.46 408.36 148.49 399.99 147.66 391.7 147.66 383.42 148.89 375.41 151.22 367.68 154.16 359.94 157.91 352.47 162.22 345.29 166.55 338.1 171.05 331.18 175.52 324.56 179.48 317.91 183.16 311.55 186.51 305.47 189.15 299.36 191.5 293.53 193.62 287.98 196.03 279.7 201.26 264.29 204.87 257.09 207.7 252.24 211.23 247.57 215.47 243.07 220.16 238.41 225.6 233.88 231.72 229.48 238.3 224.87 245.48 220.36 253.16 215.94 261.18 211.28 269.58 206.7 278.25 202.21 287.13 197.49 296.17 192.85 305.3 188.34 314.51 183.64 323.76 179.08 332.98 174.73 342.22 170.26 351.42 166.06 360.53 162.17 369.66 158.3 378.7 154.82 387.63 151.81 396.57 148.95 405.39 146.64 414.06 144.96" stroke-dasharray="3 10" transform="rotate(32.32, 400, 400)" opacity="0.15"></path><path d="M404.33 158.07C412.33 156.69 419.91 155.98 427.05 155.94 434.16 156.19 440.79 157.12 446.93 158.7 453.03 160.57 458.62 163.06 463.7 166.14 468.74 169.48 473.32 173.35 477.45 177.7 481.64 182.24 485.5 187.21 489.12 192.56 493.01 198.02 496.87 203.8 500.85 209.85 505.39 215.94 510.32 222.25 515.8 228.76 522.13 235.23 529.22 241.87 537.15 248.64 546 255.34 555.66 262.15 566.02 269.06 576.92 275.89 588.12 282.81 599.28 289.81 610.11 296.73 620.16 303.75 628.99 310.85 636.41 317.88 641.91 325.01 645.16 332.24 646.38 339.42 645.21 346.72 641.74 354.14 636.73 361.52 630.14 369.04 622.51 376.7 615 384.33 607.76 392.11 601.49 400.04 597.22 407.96 594.97 416.03 595.04 424.24 597.85 432.45 602.71 440.6 609.12 448.68 616.96 456.76 625.06 464.75 632.69 472.62 639.73 480.48 645.06 488.2 648.29 495.74 649.58 503.24 648.34 510.54 644.67 517.59 639.02 524.55 631.38 531.24 622.17 537.58 611.93 543.81 600.95 549.66 589.69 555.09 578.55 560.36 567.81 565.16 557.72 569.47 548.5 573.59 540.2 577.18 532.83 580.23 523.75 584.25 510.35 589.38 505.12 590.6 495.77 591.22 478.84 590.36 471.43 590.14 466.23 590.47 460.48 590.95 454.21 591.62 447.87 592.88 441.05 594.39 433.77 596.17 426.46 598.56 418.73 601.2 410.6 604.03 402.48 607.38 394.18 610.73 385.74 613.99 377.32 617.52 368.77 620.79 360.12 623.7 351.5 626.62 342.8 629.03 334.05 630.85 325.35 632.46 316.63 633.37 307.96 633.55 299.4 633.39 290.93 632.44 282.66 630.73 274.58 628.61 266.79 625.72 259.37 622.12 252.28 618.14 245.66 613.49 239.62 608.24 234 602.67 229.01 596.57 224.72 590.02 220.84 583.25 217.62 576.1 215.05 568.64 212.72 561.05 210.88 553.22 209.46 545.21 207.95 537.14 206.61 528.94 205.31 520.65 203.56 512.36 201.64 504.01 199.45 495.65 196.59 487.3 193.41 478.95 189.92 470.64 185.87 462.34 181.68 454.08 177.53 445.88 173.24 437.69 169.34 429.56 166.04 421.5 163.18 413.45 161.26 405.47 160.44 397.58 160.42 389.68 161.57 382.06 163.79 374.7 166.61 367.34 170.24 360.25 174.45 353.42 178.76 346.58 183.29 340.01 187.86 333.7 192.01 327.37 195.95 321.3 199.6 315.49 202.6 309.65 205.28 304.05 207.7 298.69 210.42 290.69 215.44 275.64 218.41 268.54 221.96 261.42 232.39 247.67 239.44 240.98 244.74 236.36 250.65 231.82 257.1 227.38 263.89 222.73 271.13 218.16 278.73 213.68 286.57 209.01 294.68 204.43 302.96 199.99 311.39 195.39 319.91 190.95 328.47 186.71 337.11 182.4 345.73 178.34 354.28 174.6 362.88 170.88 371.37 167.55 379.73 164.67 388.1 161.93 396.32 159.71 404.32 158.08" stroke-dasharray="4 10" transform="rotate(36.36, 400, 400)" opacity="0.72"></path><path d="M393.6 171.19C400.94 169.84 407.9 169.12 414.45 169.01 420.99 169.17 427.12 169.96 432.84 171.35 441.21 174.14 456.19 182.85 463 188.62 467.62 192.81 472.14 197.41 476.63 202.39 481.48 207.48 486.49 212.9 491.79 218.59 497.65 224.34 503.97 230.33 510.86 236.51 518.45 242.7 526.68 249.06 535.54 255.56 545 262.02 554.94 268.61 565.21 275.29 575.63 281.92 585.94 288.65 595.83 295.46 605.09 302.21 613.34 309.05 620.21 315.96 625.67 322.82 629.29 329.76 630.86 336.79 630.73 343.77 628.58 350.85 624.55 358.02 619.42 365.17 613.1 372.41 606.07 379.76 599.34 387.09 593 394.53 587.58 402.07 583.97 409.61 582.12 417.25 582.26 424.98 584.77 432.72 589.06 440.36 594.71 447.9 601.7 455.42 609.02 462.83 616.07 470.08 622.81 477.31 628.24 484.38 631.99 491.24 634.21 498.06 634.28 504.65 632.22 510.97 628.39 517.22 622.64 523.18 615.28 528.79 606.76 534.31 597.23 539.45 587.08 544.19 576.68 548.79 566.26 552.97 556.09 556.68 546.39 560.25 537.28 563.35 528.85 565.97 521.2 568.45 514.27 570.46 508 572 499.95 573.98 486.6 575.95 480.61 576.14 474.95 576.32 462.63 576.39 455.62 576.61 448.19 577.54 431.05 580.9 421.35 583.47 414.71 585.77 407.65 588.27 400.19 590.92 392.73 594.01 385.07 597.07 377.25 600.05 369.45 603.26 361.51 606.24 353.49 608.9 345.52 611.59 337.48 613.83 329.45 615.56 321.5 617.14 313.59 618.11 305.8 618.45 298.16 618.51 290.71 617.89 283.51 616.58 276.56 614.94 269.95 612.62 263.76 609.64 257.9 606.33 252.53 602.41 247.73 597.91 243.28 593.14 239.41 587.85 236.14 582.11 233.16 576.16 230.71 569.82 228.76 563.16 226.89 556.35 225.36 549.28 224.08 542 222.58 534.64 221.11 527.12 219.59 519.48 217.56 511.8 215.31 504.04 212.77 496.25 209.61 488.44 206.15 480.61 202.44 472.78 198.26 464.97 194.01 457.16 189.85 449.4 185.64 441.65 181.83 433.94 178.63 426.3 175.88 418.66 174.03 411.08 173.22 403.59 173.18 396.09 174.24 388.84 176.33 381.86 179.01 374.86 182.48 368.11 186.56 361.62 190.79 355.1 195.29 348.84 199.91 342.81 204.2 336.76 208.36 330.94 212.28 325.36 217.15 317.03 224.65 301.35 227.58 293.95 229.99 286.59 235.57 272.49 239.25 265.69 242.02 261.04 245.33 256.5 249.18 252.06 253.31 247.45 258.01 242.92 263.22 238.49 268.74 233.87 274.72 229.34 281.1 224.9 287.73 220.3 294.69 215.82 301.89 211.47 309.26 207 316.81 202.69 324.46 198.6 332.21 194.45 340 190.56 347.78 186.98 355.61 183.44 363.38 180.26 371.03 177.51 378.71 174.9 386.25 172.77 393.59 171.19" stroke-dasharray="1 4" transform="rotate(40.400000000000006, 400, 400)" opacity="0.56"></path><path d="M384.33 184.31C391.05 183 397.49 182.26 403.63 182.1 412.7 182.51 429.48 186.5 437.33 190.01 442.58 192.74 447.72 195.94 452.8 199.59 458.08 203.41 463.42 207.64 468.9 212.22 474.73 216.93 480.83 221.96 487.28 227.26 494.2 232.64 501.57 238.25 509.4 244.08 517.71 249.93 526.48 255.95 535.62 262.13 545.04 268.3 554.63 274.59 564.21 281 573.61 287.37 582.6 293.85 590.9 300.4 598.4 306.92 604.77 313.52 609.73 320.18 613.37 326.81 615.33 333.52 615.51 340.29 614.31 347.03 611.47 353.84 607.15 360.72 602.08 367.58 596.17 374.52 589.81 381.53 583.89 388.52 578.4 395.59 573.78 402.72 570.78 409.85 569.28 417.04 569.48 424.29 571.72 431.53 575.47 438.65 580.41 445.63 586.58 452.6 593.11 459.42 599.54 466.06 605.87 472.68 611.23 479.11 615.28 485.32 618.74 494.45 614.4 511.29 606.87 518.89 600.16 523.76 592.29 528.28 583.59 532.42 574.37 536.45 564.79 540.09 555.13 543.32 545.58 546.44 536.29 549.15 527.4 551.43 519 553.62 511.12 555.42 503.78 556.81 493.89 558.68 476.98 560.81 469.52 561.27 462.64 561.78 448.95 562.64 441.77 563.25 434.42 564.49 418.15 568.21 409.16 570.77 403.03 572.99 396.56 575.34 389.74 577.8 382.92 580.64 375.94 583.44 368.84 586.13 361.76 589.04 354.59 591.74 347.38 594.15 340.23 596.6 333.07 598.67 325.98 600.29 318.99 601.81 312.11 602.8 305.41 603.25 298.87 603.48 292.57 603.11 286.59 602.14 278.15 599.98 263.73 592.28 257.94 586.85 253.01 580.54 245.77 565.37 243.22 556.72 241.58 550.7 240.12 544.4 238.78 537.86 237.12 531.24 235.41 524.43 233.55 517.47 231.19 510.47 228.57 503.35 225.68 496.16 222.23 488.95 218.54 481.69 214.66 474.4 210.4 467.12 206.14 459.82 202.03 452.55 197.92 445.28 194.25 438.03 191.18 430.83 188.55 423.63 186.79 416.48 186.01 409.39 185.94 402.3 186.91 395.44 188.85 388.81 191.36 382.17 194.65 375.76 198.55 369.57 202.64 363.37 207.07 357.39 211.66 351.62 216.04 345.82 220.35 340.23 224.5 334.85 228.16 329.42 231.56 324.18 234.7 319.13 238.49 311.53 244.61 297.03 247.37 290.06 249.98 283.06 256.59 269.4 260.92 262.71 264.1 258.14 267.76 253.64 271.88 249.24 276.22 244.69 281.01 240.23 286.2 235.87 291.6 231.38 297.35 227.01 303.39 222.79 309.6 218.47 316.04 214.33 322.64 210.4 329.36 206.44 336.18 202.73 343.05 199.32 349.99 195.95 356.93 192.94 363.83 190.33 370.74 187.85 377.59 185.83 384.32 184.31" stroke-dasharray="1 2" transform="rotate(44.44, 400, 400)" opacity="0.36"></path><path d="M378.62 197.42C384.82 196.16 390.85 195.42 396.72 195.21 405.47 195.48 422.37 198.92 430.68 202.03 436.31 204.46 441.97 207.34 447.7 210.63 453.63 214.08 459.73 217.92 466.04 222.1 472.64 226.4 479.53 231.02 486.74 235.91 494.27 240.88 502.15 246.09 510.34 251.51 518.78 256.98 527.45 262.63 536.24 268.43 545.03 274.24 553.73 280.2 562.13 286.26 570.14 292.31 577.54 298.47 584.09 304.71 589.79 310.93 594.33 317.23 597.53 323.59 599.59 329.93 600.18 336.34 599.26 342.8 597.3 349.24 594.04 355.74 589.65 362.29 584.82 368.82 579.41 375.41 573.76 382.04 568.64 388.66 563.96 395.32 560.09 402.02 557.63 408.72 556.45 415.44 556.69 422.19 558.68 428.93 561.94 435.52 566.22 441.95 571.6 448.37 577.37 454.61 583.14 460.66 588.98 466.69 594.12 472.51 598.27 478.1 602.55 486.31 601.86 501.33 596.83 508.05 591.89 512.36 585.76 516.34 578.68 519.97 570.94 523.53 562.62 526.73 553.94 529.56 545.1 532.33 536.23 534.73 527.48 536.77 518.94 538.76 510.69 540.41 502.81 541.73 495.31 543.05 488.2 544.08 481.46 544.84 472.09 545.97 455.13 547.54 447.2 548.16 439.6 549.12 424.25 551.58 416.29 553.23 410.96 554.74 405.41 556.36 399.64 558.09 393.87 560.21 387.86 562.42 381.62 564.68 375.38 567.28 369.07 569.82 362.72 572.24 356.39 574.87 350.05 577.29 343.74 579.45 337.49 581.68 331.31 583.56 325.25 585.06 316.39 586.98 299.96 588.23 292.59 587.45 285.84 585.83 274.58 579.61 270.13 575.09 266.28 569.78 260.38 556.8 258.06 549.28 256.42 544.02 254.84 538.48 253.27 532.69 251.33 526.81 249.27 520.72 247.03 514.46 244.3 508.15 241.33 501.71 238.12 495.16 234.43 488.58 230.55 481.93 226.56 475.22 222.29 468.51 218.08 461.76 214.06 455.01 210.11 448.25 206.6 441.49 203.69 434.76 201.21 428.03 199.54 421.32 198.79 414.65 198.7 407.98 199.57 401.51 201.35 395.24 203.68 388.96 206.75 382.88 210.43 376.99 214.34 371.09 218.62 365.38 223.13 359.86 227.51 354.3 231.9 348.93 236.21 343.73 240.12 338.48 243.84 333.4 247.34 328.48 251.73 321.07 258.94 306.83 262.03 299.95 264.73 293.03 270.71 279.52 274.3 272.9 278.29 266.18 288.31 253.01 294.37 246.59 298.67 242.24 303.33 238.02 308.29 233.95 313.37 229.81 318.73 225.86 324.31 222.11 329.97 218.35 335.81 214.84 341.78 211.61 347.79 208.44 353.9 205.6 360.06 203.14 366.23 200.8 372.42 198.88 378.62 197.43" stroke-dasharray="4 4" transform="rotate(48.48, 400, 400)" opacity="0.49"></path><path d="M377.8 210.54C386.39 208.96 403.46 208.48 411.99 209.56 423.51 211.9 435.31 216.03 447.57 221.74 460.46 228.06 474.25 235.77 488.94 244.59 504.31 253.75 520.31 263.82 536.21 274.55 551.37 285.4 564.81 296.78 575.15 308.51 582.27 320.22 584.79 332.25 582.29 344.45 576.79 356.62 568.08 368.98 557.96 381.41 553.6 387.62 549.7 393.85 546.5 400.09 544.53 406.33 543.64 412.57 543.91 418.8 545.66 425.03 548.46 431.09 552.13 436.97 556.77 442.85 561.79 448.54 566.89 454.03 577.37 464.95 584.97 474.99 588.24 483.99 587.72 492.85 582.01 500.57 571.97 507.05 559.12 513.34 543.98 518.37 527.93 522.13 511.81 525.85 496.23 528.48 481.67 530.13 468.13 532.14 455.57 533.55 443.81 534.57 432.71 536.51 421.85 538.47 410.96 540.58 405.58 542.12 400.13 543.74 394.59 545.42 389.06 547.42 383.43 549.48 377.69 551.57 371.96 553.93 366.26 556.22 360.62 558.39 355 560.74 349.45 562.89 344.03 564.82 333.28 568.84 323.18 571.51 314.06 572.65 305.31 573.35 297.79 572.2 291.67 569.24 285.89 565.57 281.38 560.1 277.98 553.06 274.17 545.43 270.74 536.44 267.27 526.39 262.27 516 256.55 504.79 250.03 493.04 241.98 481.16 233.69 468.9 225.96 456.48 222.2 450.27 218.9 444.03 216.16 437.78 213.85 431.54 212.29 425.29 211.57 419.06 211.46 412.83 212.23 406.76 213.84 400.85 215.97 394.95 218.8 389.2 222.22 383.62 229.75 372.41 238.44 361.8 247.4 351.81 255.22 341.67 262.4 332.03 268.81 322.89 273.59 313.47 278.02 304.43 282.48 295.78 286.19 286.75 290.67 278.02 296.18 269.68 301.76 260.97 308.65 252.67 316.76 244.96 325.14 237.07 334.6 229.95 344.89 223.87 350.07 220.9 355.43 218.24 360.92 215.93 366.42 213.73 372.05 211.92 377.79 210.54" stroke-dasharray="8 10" transform="rotate(52.52, 400, 400)" opacity="0.31"></path><path d="M382.03 223.66C392.73 221.49 403.77 221.1 415.12 222.39 426.63 224.35 438.69 227.93 451.32 232.96 464.34 238.55 478.07 245.42 492.3 253.34 506.64 261.61 520.96 270.77 534.49 280.59 546.8 290.55 556.98 301.07 564 311.93 568.23 322.83 568.5 334.04 564.78 345.4 559.08 356.76 551.12 368.28 542.41 379.81 535.9 391.34 531.77 402.9 531.13 414.33 535.35 425.75 542.43 436.48 550.83 446.39 560.25 456.26 567.66 465.27 571.78 473.29 573.13 481.21 570.12 488.1 563.18 493.88 553.58 499.56 541.35 504.16 527.6 507.68 513.14 511.26 498.47 513.93 484.23 515.8 470.45 518.06 457.38 519.83 445.08 521.26 433.28 523.51 421.94 525.73 410.98 528.01 400.18 531.37 389.47 534.9 378.85 538.45 368.23 542.94 358.17 546.95 348.81 550.25 339.53 553.82 331.08 556.23 323.67 557.32 313.36 557.73 298.31 549.84 292.88 541.7 288.8 535.31 284.78 527.65 280.49 518.95 274.77 509.95 268.39 500.11 261.41 489.66 253.26 479.09 245.14 468.05 237.75 456.76 230.93 445.44 226.22 433.93 224.35 422.37 224.63 410.81 228.02 399.74 233.95 389.21 240.97 378.64 249.27 368.54 258.08 358.95 266.14 349.22 273.83 339.9 280.92 331.01 286.58 321.88 291.79 313.07 296.81 304.63 300.91 295.88 305.39 287.44 310.53 279.38 315.42 271.05 321.32 263.14 328.27 255.83 335.27 248.42 343.33 241.76 352.35 236.09 361.4 230.63 371.32 226.4 382.02 223.66" stroke-dasharray="8 10" transform="rotate(56.56, 400, 400)" opacity="0.90"></path><path d="M390.36 236.77C400.37 234.71 410.95 234.24 422 235.27 433.15 236.87 444.9 239.93 457.13 244.31 469.49 249.16 482.26 255.21 495.06 262.24 507.57 269.6 519.53 277.8 530.21 286.65 539.53 295.67 546.6 305.23 550.73 315.14 552.63 325.13 551.31 335.42 546.93 345.85 541.43 356.32 534.43 366.91 527.12 377.48 521.93 388.07 518.73 398.63 518.35 409.02 521.96 419.41 527.88 429.11 534.98 438.03 543.25 446.92 550.17 454.99 554.7 462.16 557.34 469.27 556.47 475.46 552.24 480.69 545.7 485.88 536.5 490.16 525.46 493.55 513.36 497.04 500.49 499.8 487.48 501.9 474.47 504.38 461.79 506.46 449.67 508.23 437.82 510.71 426.48 513.12 415.68 515.5 405.01 518.77 394.71 522.09 384.83 525.34 374.95 529.35 365.9 532.88 357.72 535.75 349.55 538.88 342.3 541 336.04 542 327.08 542.55 313.13 536.32 307.24 529.59 302.61 524.29 297.84 517.83 292.73 510.38 286.37 502.68 279.49 494.14 272.23 484.96 264.18 475.66 256.37 465.84 249.43 455.68 243.16 445.49 238.86 435.01 237.14 424.39 237.32 413.76 240.3 403.48 245.62 393.61 252.05 383.71 259.82 374.16 268.29 365.02 276.36 355.77 284.33 346.84 291.91 338.27 298.35 329.51 304.37 321.03 310.09 312.88 314.87 304.51 319.77 296.43 325.02 288.75 329.83 280.87 335.35 273.43 341.69 266.58 347.91 259.68 355.08 253.51 363.2 248.27 371.29 243.24 380.34 239.33 390.36 236.77" stroke-dasharray="7 3" transform="rotate(60.599999999999994, 400, 400)" opacity="0.27"></path><path d="M400.88 249.89C410.22 247.94 420.13 247.41 430.48 248.2 440.88 249.48 451.73 252.05 462.83 255.79 473.87 259.95 484.94 265.19 495.65 271.32 505.84 277.76 515.11 285 522.89 292.84 529.38 300.87 533.74 309.42 535.56 318.32 535.76 327.32 533.48 336.61 528.96 346.05 523.97 355.52 518.05 365.12 512.13 374.69 508.12 384.28 505.74 393.83 505.56 403.2 508.62 412.56 513.48 421.27 519.35 429.27 526.42 437.24 532.65 444.47 537.19 450.9 540.92 460.11 532.14 474.52 520.72 479.85 511.34 483.3 500.81 486.15 489.71 488.46 478.3 491.13 466.82 493.45 455.61 495.48 444.45 498.11 433.66 500.63 423.39 503.05 413.2 506.19 403.45 509.28 394.26 512.22 385.07 515.78 376.8 518.85 369.44 521.31 362.04 524.02 355.51 525.85 349.83 526.72 341.45 527.32 327.2 522.38 320.42 516.83 315.14 512.47 309.63 507.07 303.81 500.75 296.99 494.23 289.84 486.9 282.54 478.92 274.77 470.84 267.42 462.2 261.03 453.16 255.35 444.09 251.48 434.66 249.92 424.99 250.01 415.32 252.59 405.87 257.27 396.71 263.03 387.53 270.15 378.6 278.08 369.97 285.92 361.27 293.89 352.81 301.71 344.65 308.7 336.36 315.38 328.3 321.78 320.56 327.34 312.65 332.87 305.03 338.53 297.81 343.68 290.46 349.27 283.54 355.44 277.2 361.4 270.87 368.12 265.21 375.67 260.42 383.15 255.83 391.54 252.25 400.88 249.89" stroke-dasharray="4 7" transform="rotate(64.64, 400, 400)" opacity="0.28"></path><path d="M411.21 263.01C419.82 261.19 428.84 260.61 438.12 261.19 447.4 262.17 456.87 264.28 466.31 267.42 475.57 270.92 484.54 275.37 492.85 280.64 500.58 286.17 507.22 292.43 512.36 299.27 516.46 306.28 518.7 313.78 518.88 321.63 518.01 329.58 515.32 337.82 511.09 346.21 506.83 354.65 502.05 363.21 497.42 371.75 494.47 380.31 492.8 388.83 492.78 397.18 495.33 405.54 499.25 413.31 503.97 420.44 509.85 427.56 515.22 434.03 519.46 439.81 523.94 448.15 520.56 461.54 512.95 466.72 506.25 470.12 498.26 473.04 489.43 475.51 480.15 478.3 470.46 480.79 460.71 483.01 450.87 485.71 441.17 488.26 431.81 490.66 422.47 493.63 413.49 496.47 405.01 499.1 396.52 502.23 388.87 504.87 382.02 506.95 372.02 510.02 355.04 512.07 347.56 510.71 342.26 509.31 337.09 506.9 331.91 503.53 326.04 499.97 319.96 495.48 313.65 490.16 306.64 484.69 299.48 478.47 292.39 471.61 285.09 464.66 278.34 457.16 272.58 449.2 267.52 441.22 264.1 432.84 262.7 424.15 262.71 415.46 264.88 406.87 268.92 398.48 273.95 390.07 280.31 381.82 287.54 373.8 294.9 365.72 302.6 357.83 310.34 350.18 317.57 342.45 324.65 334.92 331.52 327.68 337.75 320.34 343.88 313.27 350.02 306.59 355.69 299.84 361.6 293.51 367.86 287.73 373.88 281.98 380.45 276.87 387.64 272.54 394.75 268.41 402.59 265.17 411.21 263.01" stroke-dasharray="2 2" transform="rotate(68.68, 400, 400)" opacity="0.71"></path><path d="M418.97 276.12C426.77 274.45 434.71 273.84 442.66 274.24 450.57 274.95 458.4 276.64 465.93 279.23 473.25 282.1 480.04 285.81 486.01 290.24 491.49 294.89 495.86 300.2 498.86 306.04 501.14 312.03 501.91 318.48 501.11 325.27 499.76 332.14 497.13 339.3 493.49 346.62 490.1 353.99 486.45 361.48 483.01 368.98 480.97 376.49 479.89 383.98 480 391.34 482.09 398.7 485.17 405.56 488.86 411.88 493.57 418.2 498.01 423.97 501.71 429.17 506.27 436.72 506.55 449.19 502.03 454.22 497.71 457.56 492.12 460.51 485.58 463.08 478.58 465.92 470.95 468.49 463 470.8 454.88 473.49 446.64 476.01 438.49 478.33 430.33 481.08 422.32 483.66 414.6 485.99 406.89 488.7 399.79 490.94 393.31 492.66 383.72 495.2 366.53 496.84 358.46 495.7 352.77 494.57 347.09 492.6 341.38 489.82 335.14 486.9 328.77 483.19 322.29 478.75 315.38 474.2 308.49 468.96 301.84 463.13 295.18 457.24 289.15 450.79 284.08 443.89 279.68 436.96 276.72 429.61 275.48 421.91 275.42 414.21 277.19 406.53 280.59 398.96 284.87 391.38 290.37 383.89 296.77 376.55 303.44 369.19 310.58 361.96 317.93 354.93 325.04 347.85 332.17 340.95 339.19 334.32 345.78 327.63 352.31 321.2 358.78 315.13 364.9 309.05 371.11 303.35 377.49 298.17 383.67 293.04 390.18 288.49 397.06 284.65 403.88 280.97 411.18 278.08 418.97 276.12" stroke-dasharray="9 6" transform="rotate(72.72, 400, 400)" opacity="0.92"></path><path d="M422.41 289.24C429.29 287.72 436.04 287.11 442.56 287.35 449.04 287.83 455.19 289.14 460.86 291.22 468.76 295.02 480.13 306.18 482.96 313.24 484.02 320.94 480.32 338.22 476.35 347.51 473.87 353.79 471.29 360.21 468.89 366.66 467.62 373.13 467.01 379.61 467.22 385.99 468.9 392.38 471.24 398.37 474.01 403.92 479.38 412.02 488.26 426.05 490.33 431.99 490.54 437.61 483.99 447.13 477.69 451.17 472.81 453.97 467.2 456.53 461.09 458.84 454.81 461.45 448.19 463.86 441.42 466.04 434.61 468.55 427.72 470.85 420.87 472.87 414.02 475.18 407.52 477.05 401.38 478.44 395.18 479.99 389.26 480.98 383.59 481.38 377.76 481.81 372.06 481.59 366.44 480.7 360.56 479.76 354.65 478.13 348.71 475.82 342.44 473.44 336.12 470.38 329.83 466.69 323.33 462.94 316.98 458.58 310.99 453.68 305.12 448.73 299.9 443.27 295.57 437.37 291.84 431.45 289.33 425.11 288.27 418.41 288.14 411.7 289.54 404.96 292.31 398.26 295.82 391.56 300.43 384.89 305.89 378.34 311.68 371.77 318.02 365.29 324.69 358.98 331.32 352.65 338.09 346.47 344.87 340.54 351.44 334.58 357.99 328.86 364.49 323.48 370.76 318.11 377.06 313.09 383.4 308.54 389.59 304.06 395.93 300.08 402.42 296.73 408.87 293.51 415.54 290.98 422.41 289.24" stroke-dasharray="1 7" transform="rotate(76.76, 400, 400)" opacity="0.51"></path><path d="M420.74 302.36C432.48 299.84 442.85 300.34 451.15 303.4 458.94 307.11 463.91 313.18 465.47 320.97 466.27 329.15 464.1 338.76 459.81 349.1 457.15 359.58 454.98 370.58 454.44 381.45 458.07 392.33 462.71 402 466.89 410.24 471.84 418.56 473.78 425.65 472.2 431.43 469.43 437.62 463.2 442.89 454.43 447.13 445.12 452.21 434.16 456.55 422.38 459.75 410.6 463.81 399.13 466.08 388.16 466.5 376.82 467.12 365.38 465.48 354.05 461.68 342.12 457.73 330.39 451.55 319.96 443.45 310.32 435.24 303.51 425.25 301.05 413.84 301.42 402.42 306.52 390.72 315.02 379.32 324.88 367.9 336.62 356.75 348.94 346.43 361.04 336.12 373.32 326.7 385.34 318.87 397.09 311.28 409 305.53 420.74 302.36" stroke-dasharray="6 7" transform="rotate(80.80000000000001, 400, 400)" opacity="0.72"></path><path d="M414.34 315.47C423.98 313.28 431.91 313.5 437.77 315.79 443.37 318.53 446.61 323.19 447.35 329.29 447.97 335.66 446.64 343.28 444 351.6 442.78 360.01 441.81 368.97 441.65 377.99 444.34 387 447.44 395.18 450.16 402.33 454.62 412.71 451.54 429.26 443.4 435.65 436.88 440.17 428.52 443.95 418.79 446.64 409.05 449.9 398.93 451.61 388.83 451.79 378.58 452.14 368.09 450.69 357.82 447.52 347.41 444.31 337.46 439.3 328.88 432.72 321.14 426.07 315.77 417.9 313.83 408.47 313.94 399.03 317.75 389.26 324.31 379.68 332.07 370.12 341.63 360.75 351.97 352.09 362.47 343.49 373.3 335.66 383.87 329.17 394.37 322.9 404.7 318.14 414.34 315.47" stroke-dasharray="8 8" transform="rotate(84.84, 400, 400)" opacity="0.50"></path><path d="M404.67 328.59C415.18 326.77 427.72 332 429.63 338.25 430.52 342.98 430.18 348.74 429.01 355.14 428.89 361.6 428.77 368.61 428.87 375.79 430.75 382.98 432.61 389.66 434.09 395.63 436.83 404.37 434.84 418.77 429.22 424.39 424.73 428.21 418.56 431.36 410.91 433.52 403.25 436.04 394.93 437.26 386.4 437.24 377.86 437.37 369.09 436.09 360.61 433.5 352.26 430.92 344.45 426.95 337.9 421.76 332.06 416.53 328.06 410.09 326.61 402.61 326.53 395.12 329.17 387.33 333.9 379.67 339.53 372.03 346.72 364.55 354.69 357.64 362.97 350.8 371.67 344.59 380.21 339.47 388.79 334.51 397.13 330.73 404.67 328.59" stroke-dasharray="6 0" transform="rotate(88.88, 400, 400)" opacity="0.43"></path><path d="M393.93 341.7C404.95 339.02 411.34 341.66 413.21 347.91 415.97 354.54 416.59 364.23 416.09 375 419.43 385.76 420.95 395.56 419.28 403.07 418.05 411.04 411.73 417.37 400.54 420.4 389.34 424.24 375.75 423.81 363.2 419.73 351.4 415.74 342.15 407.72 339.4 396.59 339.81 385.47 347.2 373.47 357.91 363.19 369.69 353.12 382.91 345.1 393.93 341.7" stroke-dasharray="2 5" transform="rotate(92.92, 400, 400)" opacity="0.48"></path><path d="M384.58 354.82C394.14 353.65 402.45 365.38 403.31 375.65 405.1 386.26 399.53 402.97 390.05 407.29 382.76 409.72 374.13 409.22 366.41 406.34 359.2 403.52 353.73 398.13 352.18 390.78 352.09 383.42 356.16 375.55 362.41 368.86 369.27 362.29 377.39 357.06 384.58 354.82" stroke-dasharray="5 0" transform="rotate(96.96, 400, 400)" opacity="0.08"></path></g></svg>