<svg xmlns="http://www.w3.org/2000/svg" version="1.1" xmlns:xlink="http://www.w3.org/1999/xlink" xmlns:svgjs="http://svgjs.dev/svgjs" viewBox="0 0 800 800"><defs><linearGradient x1="50%" y1="0%" x2="50%" y2="100%" id="ssspill-grad"><stop stop-color="hsl(0, 0%, 0%)" stop-opacity="1" offset="45%"></stop><stop stop-color="hsl(119, 73%, 52%)" stop-opacity="1" offset="100%"></stop></linearGradient><filter id="ssspot-filter" x="-20%" y="-20%" width="140%" height="140%" filterUnits="objectBoundingBox" primitiveUnits="userSpaceOnUse" color-interpolation-filters="sRGB">
	<feTurbulence type="turbulence" baseFrequency="0.022 0.218" numOctaves="2" seed="213" stitchTiles="stitch" x="0%" y="0%" width="100%" height="100%" result="turbulence"></feTurbulence>
	<feGaussianBlur stdDeviation="0 3" x="0%" y="0%" width="100%" height="100%" in="turbulence" edgeMode="duplicate" result="blur"></feGaussianBlur>
	<feDisplacementMap in="SourceGraphic" in2="blur" scale="32" xChannelSelector="R" yChannelSelector="B" x="0%" y="0%" width="100%" height="100%" result="displacementMap"></feDisplacementMap>
</filter></defs><rect width="100%" height="100%" fill="hsl(0, 0%, 0%)"></rect><g fill="url(#ssspill-grad)" filter="url(#ssspot-filter)"><circle r="8.952640895450942" cx="777.4091888030254" cy="48.05690531761829" opacity="0.16681318780024385"></circle><circle r="8.331388265320008" cx="657.9504426631827" cy="403.76502770348196" opacity="0.7036940230159928"></circle><circle r="7.171814339760205" cx="742.3644814110028" cy="435.02779131928924" opacity="0.8327210786643492"></circle><circle r="4.638935068498136" cx="9.008735650490998" cy="72.33039313593082" opacity="0.37721757951237156"></circle><circle r="5.897350744100816" cx="363.73251843789654" cy="577.9667204932623" opacity="0.8415897284762573"></circle><circle r="7.252145060477069" cx="582.9654814017983" cy="366.9089867941539" opacity="0.16428557730494614"></circle><circle r="3.5702815541071877" cx="785.9014921226003" cy="320.10982500998597" opacity="0.5358361545077492"></circle><circle r="7.038297252504509" cx="714.1199292609856" cy="555.0113822097995" opacity="0.3163896701204779"></circle><circle r="8.97482246246631" cx="463.03605999104997" cy="675.7191457600684" opacity="0.6296135028843334"></circle><circle r="11.72537509100883" cx="434.42699635803683" cy="386.2147564078681" opacity="0.711562288977358"></circle><circle r="10.667105628225059" cx="503.9387699929465" cy="229.2153841425235" opacity="0.17009934116453912"></circle><circle r="8.380250509654097" cx="23.158249310926312" cy="168.1489561197214" opacity="0.3620001202476031"></circle><circle r="8.844627368456917" cx="139.98394832790623" cy="121.56442211825215" opacity="0.8292093262561683"></circle><circle r="7.42302386691925" cx="472.710742253448" cy="257.1506392156409" opacity="0.1744205542168629"></circle><circle r="10.12315303972988" cx="256.6805970803145" cy="538.8102127079973" opacity="0.6642297749424092"></circle><circle r="6.723225112668311" cx="668.6814951881099" cy="261.4580282936639" opacity="0.6448248997864581"></circle><circle r="10.433123614172615" cx="774.3050250056615" cy="515.691226442175" opacity="0.12622765874429656"></circle><circle r="5.741192569148857" cx="483.63922185936957" cy="586.8065270511909" opacity="0.5596016447387424"></circle><circle r="7.380754519958218" cx="591.8176891777462" cy="424.1040055467569" opacity="0.8096524811867185"></circle><circle r="6.480496247104364" cx="288.0250910419438" cy="785.1137640595475" opacity="0.11354149525116367"></circle><circle r="4.888026852802952" cx="11.730882398620546" cy="770.2947469813532" opacity="0.4059126769812881"></circle><circle r="4.514090954007408" cx="215.7326563077416" cy="671.5833906225746" opacity="0.8600262439533232"></circle><circle r="5.057693145345248" cx="162.79176928558556" cy="552.6157922693285" opacity="0.319919616310288"></circle><circle r="9.23626546448806" cx="297.0668954972745" cy="519.1182703222079" opacity="0.6267366934562012"></circle><circle r="5.990717797917697" cx="671.2286883344592" cy="301.90162834834734" opacity="0.2829655475446776"></circle><circle r="9.65033674356785" cx="536.319115252756" cy="569.0967245477831" opacity="0.4969848438129191"></circle><circle r="5.697814157003823" cx="42.99242910644604" cy="505.45440610116987" opacity="0.12525540661040474"></circle><circle r="3.9442627278227196" cx="54.819975341354414" cy="708.5875834981762" opacity="0.6967803309100602"></circle><circle r="7.477773943032815" cx="175.10539715285168" cy="482.6132276265857" opacity="0.4846355795643078"></circle><circle r="12.008792816233113" cx="440.94071471504" cy="732.4882622019115" opacity="0.28963552679415905"></circle><circle r="8.368264391789706" cx="773.2540946925369" cy="407.529450836902" opacity="0.7693530721388323"></circle><circle r="5.0825687173184235" cx="777.046951998246" cy="686.6231568596967" opacity="0.6494379962292068"></circle><circle r="8.465713856481598" cx="714.0048940732887" cy="290.7424879373558" opacity="0.30469512982372005"></circle><circle r="5.762329182506975" cx="490.1400589159996" cy="81.39217751416174" opacity="0.24670697360700472"></circle><circle r="8.138847141264108" cx="118.81777502048367" cy="724.9287798550323" opacity="0.6225732282616392"></circle><circle r="3.6561148915015194" cx="549.7988380870352" cy="185.9219756085738" opacity="0.575153107576401"></circle><circle r="3.8437367525875272" cx="26.45568424869838" cy="649.5598869290384" opacity="0.2741892401587119"></circle><circle r="9.363709199455782" cx="417.4649519157018" cy="243.35304458642148" opacity="0.8296629255333903"></circle><circle r="7.187886405520205" cx="252.28990762542713" cy="157.9184873818135" opacity="0.3061704426262448"></circle><circle r="7.350138287687519" cx="632.0147799797351" cy="61.65822855876767" opacity="0.9045690269151225"></circle><circle r="10.914740317971763" cx="152.44344326793083" cy="71.75796830136969" opacity="0.546219674165546"></circle><circle r="8.185660666196892" cx="684.1923682485667" cy="363.4474197062846" opacity="0.7296297626750674"></circle><circle r="7.261959195469666" cx="462.487513191005" cy="346.4825427396605" opacity="0.2621086273888532"></circle><circle r="6.066813234843365" cx="474.95057906650953" cy="149.9026018672099" opacity="0.36457488992325493"></circle><circle r="4.665912115291463" cx="259.51580323880245" cy="714.8308024706346" opacity="0.25592647339276636"></circle><circle r="10.500849198045668" cx="88.1316420665995" cy="120.15439136117212" opacity="0.706210298237294"></circle><circle r="6.020044422347829" cx="540.4340984991832" cy="525.2078413414997" opacity="0.7171887754206194"></circle><circle r="7.310826989679823" cx="700.5765117536068" cy="399.57280749003735" opacity="0.8646330631812785"></circle><circle r="4.951287348120979" cx="687.9420671192381" cy="195.393045167514" opacity="0.7308566124687863"></circle><circle r="10.60369642834539" cx="589.2976227259869" cy="494.030713960394" opacity="0.20989423285113135"></circle><circle r="7.044362026029653" cx="536.4005678428829" cy="394.60916707702177" opacity="0.12899937358463093"></circle><circle r="5.714660187626861" cx="123.2568091324457" cy="528.8253841969752" opacity="0.7973660262922845"></circle><circle r="9.567760113993735" cx="356.7237642792752" cy="109.75760400453595" opacity="0.4080963035064197"></circle><circle r="5.6072647280809615" cx="258.8535793606381" cy="484.6866400301996" opacity="0.9112055699658198"></circle><circle r="8.726036299354835" cx="287.0234753866102" cy="571.1238750948341" opacity="0.40783177122359093"></circle><circle r="10.49374646990545" cx="501.23444928957457" cy="686.7346648702321" opacity="0.5556705734810625"></circle><circle r="6.949091394056403" cx="257.78144229066675" cy="299.1491722563842" opacity="0.8328969648293106"></circle><circle r="4.3580526912716655" cx="12.164859998245605" cy="481.1941252232523" opacity="0.7557263692060041"></circle><circle r="6.53489451493061" cx="231.29192760871163" cy="65.21842175034014" opacity="0.9780031766317938"></circle><circle r="9.34660166306264" cx="437.16286057982353" cy="452.666491032318" opacity="0.8007516765116286"></circle><circle r="6.007307362430069" cx="77.46874274884152" cy="761.5493716540298" opacity="0.3827223192711121"></circle><circle r="6.103758234108127" cx="779.6517908592207" cy="583.1885306945328" opacity="0.7952095494792935"></circle><circle r="4.726564841904684" cx="32.79819553242709" cy="785.4116531236139" opacity="0.22439931926260254"></circle><circle r="7.844663709243983" cx="113.42025811875826" cy="159.63699553870228" opacity="0.8204561237304184"></circle><circle r="3.7011020273061535" cx="787.7427729255201" cy="732.76105376145" opacity="0.6715324097810378"></circle><circle r="8.97413996679503" cx="542.5118888330832" cy="257.5015084765371" opacity="0.27017330089349867"></circle><circle r="6.766263623058649" cx="313.1565669967487" cy="707.6473668063684" opacity="0.3500859893118172"></circle><circle r="9.068176108682723" cx="457.9486423841571" cy="200.45397267372485" opacity="0.25820639457269307"></circle><circle r="9.067218936443531" cx="641.8809662108705" cy="116.84662496387477" opacity="0.17574545830298402"></circle><circle r="8.628997140346595" cx="133.05084518141058" cy="490.55766117369683" opacity="0.6390235308167078"></circle><circle r="9.356087070322086" cx="426.1198797783118" cy="602.42418220417" opacity="0.9908663470679505"></circle><circle r="5.1103933061380165" cx="442.45788026965937" cy="164.0186220282884" opacity="0.1360671695489471"></circle><circle r="4.946070809404398" cx="737.6606054361487" cy="154.27627517265034" opacity="0.13128474910246218"></circle><circle r="6.401219475762336" cx="120.76050119009129" cy="15.838628318624993" opacity="0.3422905360631239"></circle><circle r="6.460266729464461" cx="221.260996419378" cy="153.98673682848624" opacity="0.9785337813046981"></circle><circle r="5.784573895572411" cx="34.262328345313534" cy="248.6346784325566" opacity="0.7869543023172343"></circle><circle r="5.799182681365073" cx="697.243338150789" cy="26.737534517122413" opacity="0.8669909375289687"></circle><circle r="4.404769723327311" cx="204.52483053209752" cy="626.3175734038086" opacity="0.5132814044299867"></circle><circle r="9.560013319077237" cx="384.31978669572504" cy="29.183425484280523" opacity="0.471959137258556"></circle><circle r="11.135258719214715" cx="311.69641367713166" cy="100.25332580609702" opacity="0.9285523298527134"></circle><circle r="6.115394537620579" cx="200.9572190543576" cy="781.981547351767" opacity="0.796868059272767"></circle><circle r="8.242716675572986" cx="215.070828107571" cy="746.1360511915342" opacity="0.866360473136258"></circle><circle r="9.635930785574008" cx="401.3957870150524" cy="424.605451050335" opacity="0.15599860809252067"></circle><circle r="8.129656646858907" cx="19.166696193577195" cy="533.8581787771747" opacity="0.32757382089567316"></circle><circle r="6.257650315467093" cx="63.02601704995716" cy="603.0433865072874" opacity="0.365178326139749"></circle><circle r="8.514131735479204" cx="439.79483345708394" cy="646.2294204988365" opacity="0.12299930240934345"></circle><circle r="4.941422557824864" cx="210.1416531329526" cy="457.109064235446" opacity="0.3210753906220287"></circle><circle r="5.1329010124388645" cx="241.7260322387395" cy="685.0480543824476" opacity="0.9940866945963341"></circle><circle r="8.069628783524923" cx="340.31068866168783" cy="19.798808207141516" opacity="0.6386866900210618"></circle><circle r="5.551630366306989" cx="409.4137019393499" cy="173.88254657386943" opacity="0.7175410071873444"></circle><circle r="9.482382565581075" cx="182.19091514244388" cy="424.20652364738214" opacity="0.9527552126326905"></circle><circle r="5.661870652123879" cx="583.2042334201601" cy="266.37157687628553" opacity="0.6316366775777131"></circle><circle r="4.060920965339409" cx="601.8796456092815" cy="247.76798318887126" opacity="0.8279740534944168"></circle><circle r="6.30269649068688" cx="158.00791316523816" cy="319.66291442291026" opacity="0.6511692706051055"></circle><circle r="8.975944529181746" cx="193.39123236910106" cy="260.1075118257983" opacity="0.8953659402006494"></circle><circle r="6.686993329513655" cx="115.29757988263958" cy="777.7367913539534" opacity="0.9331964125439113"></circle><circle r="5.639161349566187" cx="556.4497710439103" cy="216.7862744664213" opacity="0.7529080270963671"></circle><circle r="7.0126940667280016" cx="648.8598986024914" cy="19.39880952787837" opacity="0.20479352916715798"></circle><circle r="5.826413090619808" cx="20.97078596318602" cy="621.1702167212154" opacity="0.5610633316063707"></circle><circle r="6.593292711784288" cx="223.39032696193436" cy="114.56059970062951" opacity="0.9107309303951531"></circle><circle r="5.2041817596745705" cx="195.57985649338653" cy="692.2763052200559" opacity="0.8228939559403046"></circle><circle r="6.801319307728512" cx="780.5194923726345" cy="95.50639438660485" opacity="0.9482105834252466"></circle><circle r="5.591631653585389" cx="726.1643842500458" cy="759.4274058318812" opacity="0.7492795877185715"></circle><circle r="7.076037252355041" cx="601.3959807591258" cy="337.63284661356147" opacity="0.1672318277177509"></circle><circle r="5.030769366834477" cx="393.907060717245" cy="116.23796408764896" opacity="0.949137371693635"></circle><circle r="8.136343990129115" cx="337.28306393352904" cy="274.84635737498206" opacity="0.48822239199067075"></circle><circle r="8.895072419118815" cx="657.1404670957988" cy="728.5136956595213" opacity="0.5369824233704906"></circle><circle r="10.083868902212853" cx="688.2270367466973" cy="769.9430932933178" opacity="0.235233210075328"></circle><circle r="5.2893721572304075" cx="595.2527363138381" cy="80.58189772784336" opacity="0.4316015139928654"></circle><circle r="6.549236572875592" cx="647.1249023408185" cy="352.1920034110684" opacity="0.4962871799606646"></circle><circle r="7.037045227874231" cx="618.773186887825" cy="159.53084524651018" opacity="0.3587738889748374"></circle><circle r="9.184317077128991" cx="161.0311303221113" cy="25.17808649940323" opacity="0.7872185791469445"></circle><circle r="9.85974434304985" cx="104.13684944843432" cy="680.8332848478763" opacity="0.2944207597067656"></circle><circle r="9.608321309187668" cx="628.3639403695531" cy="774.6290207770681" opacity="0.1852771692035367"></circle><circle r="3.518472733057996" cx="13.737112639851535" cy="23.30976138723643" opacity="0.9797640759688426"></circle><circle r="7.086102339271304" cx="475.70330764709945" cy="549.9007289136487" opacity="0.4154208900957512"></circle><circle r="4.154496060815652" cx="31.822513636407855" cy="71.6825650860986" opacity="0.2147402502824065"></circle><circle r="4.421078902823218" cx="584.7319669920213" cy="163.40868728342105" opacity="0.5804232988946759"></circle><circle r="5.312338891762465" cx="479.5368834238632" cy="779.087631314193" opacity="0.5272266246663998"></circle><circle r="5.693851638536636" cx="787.4705506198245" cy="781.605150749624" opacity="0.3617018026623571"></circle><circle r="8.811655346020391" cx="141.65175213947273" cy="649.701526016279" opacity="0.6632168747931968"></circle><circle r="5.783816905917841" cx="484.79379255614816" cy="41.17877353360825" opacity="0.5220094610552285"></circle><circle r="4.553000479832791" cx="631.2101043763711" cy="193.7177998595997" opacity="0.5918548015102948"></circle><circle r="8.355506107269441" cx="257.9988326265776" cy="617.6657959497345" opacity="0.4700889182239404"></circle><circle r="11.459515899906432" cx="88.14473323151542" cy="231.09981896079714" opacity="0.7394577543687703"></circle><circle r="5.262760384087147" cx="767.0885483528368" cy="359.09075158889397" opacity="0.759071244060963"></circle><circle r="4.867550492485614" cx="158.68960555319896" cy="378.6832246443978" opacity="0.8230731056776704"></circle><circle r="7.198153962994563" cx="191.00900564045187" cy="85.91889468399579" opacity="0.7723948808989879"></circle><circle r="8.027486640586726" cx="741.9462231123787" cy="596.9903684856774" opacity="0.24355064002789337"></circle><circle r="7.661347014742494" cx="436.5209414068655" cy="534.764242201812" opacity="0.9894125381637595"></circle><circle r="7.042258268114489" cx="381.0371109267501" cy="385.83829940720756" opacity="0.6449015943767112"></circle><circle r="10.467025362383517" cx="708.1561158748369" cy="694.1133422243156" opacity="0.722420516458186"></circle><circle r="7.121777165890146" cx="570.0355353956905" cy="397.262785293439" opacity="0.8872943276827167"></circle><circle r="3.233976937047747" cx="737.2687522590162" cy="788.7986430304142" opacity="0.8429380001007671"></circle><circle r="7.649875498824452" cx="175.4196763282834" cy="661.1524058027666" opacity="0.3968240169080357"></circle><circle r="5.564706021573581" cx="607.0601262630634" cy="282.0737396552768" opacity="0.8725975289536513"></circle><circle r="8.366775732440532" cx="237.67511951038287" cy="585.1737355453243" opacity="0.5117589092846202"></circle><circle r="6.42474337648999" cx="24.7239000158362" cy="393.27924196523753" opacity="0.9027143270835776"></circle><circle r="10.731282009932626" cx="405.9154522764724" cy="776.1151554251953" opacity="0.6646210090543974"></circle><circle r="7.256962397297077" cx="114.39127371546545" cy="413.16738196422443" opacity="0.7068918174943286"></circle><circle r="7.026012945088004" cx="48.511233781291324" cy="206.3787412944517" opacity="0.7704909398399737"></circle><circle r="9.820568001778634" cx="440.26665054689147" cy="302.08574446686066" opacity="0.4390723789783889"></circle><circle r="8.024888303901758" cx="96.90862294849053" cy="569.2032743988298" opacity="0.3424798717350428"></circle><circle r="5.980731683132463" cx="735.4477214336773" cy="19.170974191096438" opacity="0.4510396335242085"></circle><circle r="5.7705002384775845" cx="515.7179784111321" cy="12.744937094353096" opacity="0.7692840331043859"></circle><circle r="9.547538789494688" cx="63.508634960471156" cy="75.60491773943205" opacity="0.6621445077880849"></circle><circle r="6.034503796746565" cx="517.9478255742869" cy="500.7863224073415" opacity="0.6027310341031773"></circle><circle r="4.790147429922505" cx="565.5706301177844" cy="282.307592188008" opacity="0.6368408673456929"></circle><circle r="5.375129078925297" cx="218.0223113008723" cy="712.8600409999507" opacity="0.30442766606609145"></circle><circle r="6.973671684790512" cx="21.60541399866001" cy="431.72889502853843" opacity="0.9490921106157664"></circle><circle r="10.75676300155163" cx="161.8320022109388" cy="710.2315381329544" opacity="0.8346593119784574"></circle><circle r="6.830962709056317" cx="16.580169059654676" cy="286.3523187787207" opacity="0.39766027169818785"></circle><circle r="6.7396614646374235" cx="559.0244659535379" cy="346.5495685345139" opacity="0.2540809033328113"></circle><circle r="9.774596581245294" cx="653.4437490177088" cy="542.1713191783488" opacity="0.9779798323114753"></circle><circle r="9.109946331648915" cx="356.0840314444602" cy="776.4689925741147" opacity="0.13533587438860997"></circle><circle r="5.143278222612869" cx="761.8119394640192" cy="737.5364855837794" opacity="0.10938711914039168"></circle><circle r="6.315762627534917" cx="560.1622515696625" cy="109.38619889061377" opacity="0.9209238335201659"></circle><circle r="6.81493642361497" cx="249.77284492597926" cy="785.0011582190612" opacity="0.9813685193910513"></circle><circle r="5.100191485043249" cx="734.9655390693208" cy="723.1023521789746" opacity="0.11417323046435797"></circle><circle r="9.01182420340374" cx="702.9574112833086" cy="503.7843504465885" opacity="0.5883397554073219"></circle><circle r="5.979055081987961" cx="20.84316275273539" cy="580.5978797301049" opacity="0.5797953848679839"></circle><circle r="5.32588175013039" cx="14.713393274684048" cy="697.9803444172428" opacity="0.851451999067389"></circle><circle r="7.538080243159266" cx="16.724311312132546" cy="729.6821024481353" opacity="0.6859997420743636"></circle><circle r="5.759628290469582" cx="98.22275204543568" cy="470.38712710436005" opacity="0.36084900734094827"></circle><circle r="7.606119338191506" cx="291.6448398349749" cy="264.52629211284125" opacity="0.21710569230638466"></circle><circle r="5.424936183783036" cx="510.33382794526244" cy="50.57434727179841" opacity="0.5774065531228257"></circle><circle r="4.417239207569776" cx="287.63946628835583" cy="731.0589222736793" opacity="0.7873102458250388"></circle><circle r="6.8212307928832" cx="680.7648208146513" cy="108.4652749886095" opacity="0.879718905825843"></circle><circle r="7.20580823331461" cx="460.6493689890388" cy="21.5794489055979" opacity="0.22121430470475772"></circle><circle r="4.748338119367795" cx="256.2734166733868" cy="753.3841329580404" opacity="0.6424020388054307"></circle><circle r="11.707306887182423" cx="332.3383000525057" cy="383.66673139599106" opacity="0.5492710028358191"></circle><circle r="7.079150399946256" cx="45.74939005815895" cy="680.7094740859571" opacity="0.28233588827566847"></circle><circle r="9.220829571291208" cx="736.6200247366183" cy="220.96181847698492" opacity="0.1921441346302587"></circle><circle r="4.33549461304437" cx="663.2965392704626" cy="664.333873917739" opacity="0.1981170922180291"></circle><circle r="5.1524934274037415" cx="521.7187014248253" cy="79.42783528017218" opacity="0.238548682423288"></circle><circle r="6.891517025732746" cx="558.8780603737649" cy="780.1378817990689" opacity="0.9781627072502441"></circle><circle r="6.848095970429174" cx="394.1877539809451" cy="545.1548239171308" opacity="0.811598620423027"></circle><circle r="6.171987984002689" cx="162.1959743362805" cy="175.08898902887913" opacity="0.5110580231740987"></circle><circle r="6.098747593062013" cx="661.4973829545551" cy="451.88944368058196" opacity="0.37026972843226325"></circle><circle r="4.986148984538382" cx="587.9098158312355" cy="307.85091764333345" opacity="0.9616603521458414"></circle><circle r="6.998462176418042" cx="454.8489516476055" cy="117.24156741725326" opacity="0.6062056810426066"></circle><circle r="5.8303153371569865" cx="158.82483825687194" cy="764.4375554250746" opacity="0.4142582961405529"></circle><circle r="7.850509751351135" cx="296.55353894137187" cy="675.0405375115407" opacity="0.811593178125668"></circle><circle r="6.227806202022448" cx="507.23988709469745" cy="736.9171765000419" opacity="0.6442770453594437"></circle><circle r="3.7003126312853665" cx="305.09700454372984" cy="25.90078269471856" opacity="0.3090419671042267"></circle><circle r="6.534803286875261" cx="133.48874143654535" cy="363.6636652564237" opacity="0.22383547222914213"></circle><circle r="7.995399836203747" cx="60.7634180294706" cy="365.37674138308984" opacity="0.33885888001902065"></circle><circle r="6.274387661535066" cx="672.0976406021305" cy="631.2804528285852" opacity="0.9971507942496394"></circle><circle r="7.986486493985045" cx="75.82787545865361" cy="275.19664143469214" opacity="0.22811344565112615"></circle><circle r="7.612243180777672" cx="457.46728221133884" cy="74.63402676644822" opacity="0.9667228798541511"></circle><circle r="6.846380720002598" cx="186.80777574200772" cy="372.6055385833541" opacity="0.5930281269744587"></circle><circle r="8.26272676413593" cx="301.32845443711926" cy="604.5350804522386" opacity="0.17245874632312289"></circle><circle r="4.556429490259967" cx="422.64311779278285" cy="142.7150095394923" opacity="0.8018014773422247"></circle><circle r="3.831264484032879" cx="79.56252817910789" cy="9.252396097963297" opacity="0.2657851689449561"></circle><circle r="9.661792243092117" cx="749.9972671507853" cy="308.1666138660612" opacity="0.6369119721306045"></circle><circle r="7.145912686886948" cx="780.7907260193979" cy="222.38115024783596" opacity="0.37936162461602885"></circle><circle r="7.7267360139924754" cx="330.8015156598148" cy="741.2334891858521" opacity="0.46266296173886334"></circle><circle r="6.861601349532101" cx="44.573142679926534" cy="748.5376999906372" opacity="0.36109793358056985"></circle><circle r="8.12562809656002" cx="333.27223071128606" cy="552.7237896148447" opacity="0.7508228812700242"></circle><circle r="5.497098641316709" cx="99.74083393910192" cy="35.80987777504826" opacity="0.2962557564354972"></circle><circle r="10.91898088191781" cx="31.881666821553765" cy="123.91763124988442" opacity="0.6200367035234875"></circle><circle r="6.717383051878478" cx="199.54274862284944" cy="214.3430242181825" opacity="0.5989195328431667"></circle><circle r="5.899414173225501" cx="161.7330482625946" cy="453.0014505887102" opacity="0.2253239848410908"></circle><circle r="7.712967126562232" cx="423.2812800297368" cy="22.661767022258" opacity="0.36740514592382645"></circle><circle r="12.668928566581128" cx="269.44213867408945" cy="206.20643070988905" opacity="0.8270952724753221"></circle><circle r="6.27974000338687" cx="493.75020284362387" cy="299.8054635085058" opacity="0.28021164762514494"></circle><circle r="9.207083807373706" cx="296.6899986192124" cy="151.95674866432668" opacity="0.6965833760127245"></circle><circle r="8.108682936575647" cx="611.6662392138949" cy="642.0250381610833" opacity="0.8526275423822203"></circle><circle r="8.058753058951163" cx="379.4636697511091" cy="724.3887294563572" opacity="0.9534840485147066"></circle><circle r="4.903327521628484" cx="199.41479923827586" cy="175.55681200419" opacity="0.48259129431904557"></circle><circle r="6.952747022681543" cx="129.78140348676772" cy="190.50444944599656" opacity="0.12515634610572446"></circle><circle r="8.316691880833067" cx="241.9454031578316" cy="400.7036490743954" opacity="0.5368814002624906"></circle><circle r="6.028708721106636" cx="40.80128486792198" cy="19.848157503962884" opacity="0.1372260400191238"></circle><circle r="7.762069889112526" cx="692.3245573973145" cy="328.7760280893652" opacity="0.4472428717299577"></circle><circle r="11.149041591149828" cx="103.96371271617353" cy="323.1895622329474" opacity="0.5317062219242327"></circle><circle r="8.665971778308085" cx="468.0429880215097" cy="491.4638695327765" opacity="0.9300916108386879"></circle><circle r="6.3737043039307215" cx="478.09453479538007" cy="417.0786297381416" opacity="0.9040023336546694"></circle><circle r="8.464427761394251" cx="286.0283604079743" cy="414.6371523178863" opacity="0.7472849590061257"></circle><circle r="4.570636053454668" cx="65.55067398213976" cy="34.20267529084685" opacity="0.848861149243589"></circle><circle r="7.2053359778289074" cx="305.674226088124" cy="328.9663655567088" opacity="0.7151267126006515"></circle><circle r="5.152078264047952" cx="82.50395814211346" cy="518.2510731110415" opacity="0.16493852851624263"></circle><circle r="7.855562885016704" cx="133.17363500948895" cy="578.3325448345272" opacity="0.8124717782959724"></circle><circle r="6.10244012820018" cx="699.3163116751971" cy="452.05453785780526" opacity="0.9405933872399123"></circle><circle r="9.972850448373876" cx="121.35680252585388" cy="271.6582063669037" opacity="0.3738050603398513"></circle><circle r="8.846058185821535" cx="325.8540680945656" cy="633.7168084730238" opacity="0.16771614555609055"></circle><circle r="6.567710551990965" cx="163.58625439564017" cy="596.0416929524844" opacity="0.8128380395273311"></circle><circle r="6.196730378597792" cx="557.3042695517938" cy="68.09015098373001" opacity="0.7034104107591307"></circle><circle r="6.6928994086256814" cx="177.39988639794726" cy="518.8287276017215" opacity="0.8110638108413025"></circle><circle r="8.239935367034201" cx="318.1496335591466" cy="461.5342312641939" opacity="0.7803734782614423"></circle><circle r="7.021550801756626" cx="40.224733731025644" cy="463.4242312735184" opacity="0.18627671585270072"></circle><circle r="3.599431122607329" cx="261.3485179606531" cy="673.9476723262512" opacity="0.5795711621544115"></circle><circle r="6.29500481484805" cx="585.151821019806" cy="24.218425296116443" opacity="0.49894364674521663"></circle><circle r="4.732924690088673" cx="242.8076343281087" cy="448.19080178611244" opacity="0.6411026399537182"></circle><circle r="6.676888971877293" cx="538.703995496301" cy="38.170855321214546" opacity="0.8247441925844113"></circle><circle r="7.847071746278775" cx="763.9057149642491" cy="266.3680630759017" opacity="0.35266076505075517"></circle><circle r="7.602038937978142" cx="400.78139268099693" cy="207.13349609105833" opacity="0.7518273165036352"></circle><circle r="5.3422569042962" cx="68.88413834550383" cy="787.8842271718363" opacity="0.20621849176118578"></circle><circle r="11.704928657035625" cx="209.4901535134323" cy="24.994818165263712" opacity="0.30287597422721824"></circle><circle r="4.733276691284562" cx="753.7525004377327" cy="477.69526500561835" opacity="0.8627466695397646"></circle><circle r="7.152466054359019" cx="509.862535559924" cy="457.5630980962744" opacity="0.1222741352661427"></circle><circle r="6.0061397350107715" cx="319.53910520069996" cy="782.324145115337" opacity="0.8915297639067906"></circle><circle r="8.399665700465112" cx="348.92359871394257" cy="678.7813909795534" opacity="0.9331470573836036"></circle><circle r="6.172011021782132" cx="658.6053646291195" cy="219.78103278945815" opacity="0.7962534275452562"></circle><circle r="6.042932725930873" cx="605.8988659774113" cy="218.560264720405" opacity="0.28506480783518023"></circle><circle r="7.288217596082476" cx="502.51323337506915" cy="624.9439375409584" opacity="0.5119736311168809"></circle><circle r="4.410019933900048" cx="777.5220477373855" cy="13.83601668713339" opacity="0.4496407942308158"></circle><circle r="8.536100784978165" cx="616.8588894164825" cy="457.0753842562785" opacity="0.5534888502631984"></circle><circle r="8.923952080512521" cx="346.04078029989256" cy="501.7088502447959" opacity="0.43757954164768"></circle><circle r="9.559622912708258" cx="207.91831407728066" cy="554.5800351427146" opacity="0.5442934466038163"></circle><circle r="5.154885206331793" cx="522.5992313422612" cy="111.54795182645502" opacity="0.3910758465844463"></circle><circle r="7.41616037566111" cx="709.6289936664257" cy="624.8006645589073" opacity="0.6937940581540308"></circle><circle r="8.187307164110448" cx="550.9198944923473" cy="444.01978255273946" opacity="0.5977497214145789"></circle><circle r="8.519450196690556" cx="284.1338277370403" cy="60.544691491926024" opacity="0.44737763006285536"></circle><circle r="5.535152717945357" cx="14.98193770205715" cy="354.50550235387476" opacity="0.5529214559358617"></circle><circle r="3.979453363173183" cx="556.2632906302142" cy="307.02030542358585" opacity="0.6438455035669021"></circle><circle r="6.059521801061545" cx="498.9992874978514" cy="379.8845710103474" opacity="0.9540231847964216"></circle><circle r="9.236640968545876" cx="732.4908093766209" cy="65.48195664835076" opacity="0.7983875020383646"></circle><circle r="10.605372276743093" cx="395.6311553169852" cy="344.0444694621056" opacity="0.8139397021605174"></circle><circle r="7.808698734718481" cx="594.3127913480274" cy="602.4128994076858" opacity="0.9962578771580837"></circle><circle r="4.33506817479842" cx="527.0746960967967" cy="158.01540584921153" opacity="0.3344516192318917"></circle><circle r="4.453511697343328" cx="224.92281585440207" cy="646.2016022730493" opacity="0.10633166855733553"></circle><circle r="5.985487143779053" cx="70.09991238565605" cy="650.0289510117502" opacity="0.409280788315469"></circle><circle r="3.0162519600155258" cx="387.4173016546207" cy="144.4241004146099" opacity="0.6414892726507263"></circle><circle r="6.7174824084123825" cx="133.43345289976057" cy="441.4129607063239" opacity="0.9750085285273749"></circle><circle r="4.412455493773087" cx="291.6852083028843" cy="757.8247621886916" opacity="0.41011139705024446"></circle><circle r="4.649775190978083" cx="765.7370548396672" cy="770.7429003019848" opacity="0.379500453020864"></circle><circle r="5.248095831780311" cx="519.5455657812784" cy="349.1388706368832" opacity="0.9203485466111396"></circle><circle r="5.311295002524648" cx="630.5137782727575" cy="312.39275488645234" opacity="0.4038542378339882"></circle><circle r="6.7854695000844405" cx="274.09878150898976" cy="362.48327411752155" opacity="0.16269783019300094"></circle><circle r="11.068475349518597" cx="399.7923892091049" cy="672.6027874323852" opacity="0.7147053867683355"></circle><circle r="10.745639284869936" cx="237.38868667501853" cy="252.00089905496404" opacity="0.19791668816784802"></circle><circle r="5.752066324383131" cx="724.7676065104674" cy="354.42556394191644" opacity="0.8521593064760005"></circle><circle r="4.340424353260515" cx="214.5756828980602" cy="385.981467051254" opacity="0.7668375747619333"></circle><circle r="9.918851759182385" cx="661.4370216087431" cy="159.57335016858607" opacity="0.3631249173802653"></circle><circle r="7.865913432799459" cx="649.2836690893868" cy="499.6863401071899" opacity="0.46195605541907137"></circle><circle r="8.985639266206654" cx="223.17074936266593" cy="507.108044708951" opacity="0.5891667142807544"></circle><circle r="4.953800204393569" cx="701.0601749068265" cy="242.6050646538152" opacity="0.5551194400352281"></circle><circle r="6.024054546004898" cx="69.68527956681852" cy="424.0471087621887" opacity="0.3538034507952944"></circle><circle r="4.422486425861676" cx="374.3548038572189" cy="170.30788355237976" opacity="0.7443692472554255"></circle><circle r="8.467883064695155" cx="338.49469634781104" cy="174.92527559691234" opacity="0.9001456712385313"></circle><circle r="6.115094349869466" cx="636.0472410581117" cy="270.409744416911" opacity="0.6758731851889809"></circle><circle r="6.4996946917924365" cx="262.79303337763093" cy="103.5456313036306" opacity="0.6509833460900121"></circle><circle r="2.758472785998473" cx="11.99678503871114" cy="670.013975860622" opacity="0.6700576870415562"></circle><circle r="6.764567585985329" cx="356.74443071383064" cy="439.1054527054724" opacity="0.47592539422751545"></circle><circle r="6.474076128099296" cx="76.35731379143206" cy="178.27668055270755" opacity="0.7356932332700933"></circle><circle r="11.607678844152243" cx="218.27848540657618" cy="327.3494292985786" opacity="0.8429468580882477"></circle><circle r="5.4934288672117315" cx="31.369226508700315" cy="328.49100276859" opacity="0.2587169824810307"></circle><circle r="8.137150823447053" cx="255.41286886447458" cy="23.761127451120647" opacity="0.8780665998761652"></circle><circle r="6.701040374260793" cx="501.33443096465083" cy="184.23002596911712" opacity="0.5927866661776149"></circle><circle r="5.635524234765911" cx="558.2070393915285" cy="735.3730377913928" opacity="0.8737706204246591"></circle><circle r="7.435650110209748" cx="97.20575332637969" cy="372.2417772620113" opacity="0.4258122284467529"></circle><circle r="7.374901306041112" cx="339.0877870087754" cy="226.34623032718483" opacity="0.6115222496568187"></circle><circle r="6.706840072354195" cx="57.3236173730101" cy="305.9833230481328" opacity="0.4909439663569354"></circle><circle r="6.4979814165801715" cx="167.44801576109884" cy="279.413479476378" opacity="0.499049434203226"></circle><circle r="5.982253849841052" cx="615.0560225285948" cy="569.5311042342144" opacity="0.7865123964416857"></circle><circle r="3.856493239469857" cx="495.1518165648169" cy="124.55714239858037" opacity="0.6722618281250606"></circle><circle r="7.150724374657921" cx="627.1856853142293" cy="412.07303126951786" opacity="0.15686918208255468"></circle><circle r="10.459044461267126" cx="393.67998855435144" cy="283.22260274843785" opacity="0.8700417477048781"></circle><circle r="8.825637619012786" cx="554.0477096072234" cy="617.6744328918153" opacity="0.44022741624191497"></circle><circle r="4.025447952015885" cx="81.02731114362594" cy="727.701901585839" opacity="0.28405288674379003"></circle><circle r="3.945644352641031" cx="552.7072974912592" cy="141.92237084471645" opacity="0.1257473485661669"></circle><circle r="9.167948705266173" cx="140.83206647862718" cy="225.84352127750785" opacity="0.5004345272278419"></circle><circle r="5.368098129590021" cx="528.4754357314922" cy="310.8920524082335" opacity="0.12277015179340565"></circle><circle r="10.230761690674377" cx="110.01585117843543" cy="620.2851352497472" opacity="0.29856690960889065"></circle><circle r="7.430900576400946" cx="411.5170777178173" cy="69.3875090295189" opacity="0.7008406303639271"></circle><circle r="5.520541351030884" cx="13.58926447130657" cy="215.76112300375328" opacity="0.1157271846274993"></circle><circle r="4.668090300443513" cx="601.7989014232679" cy="119.19241416972035" opacity="0.8149786983626068"></circle><circle r="9.556247360000743" cx="663.1664865015781" cy="588.669585894259" opacity="0.23955641522975224"></circle><circle r="4.417006339351877" cx="284.5810342864304" cy="461.79119186148733" opacity="0.5024194589056268"></circle><circle r="7.08250997794664" cx="613.5462793392608" cy="377.3708754836866" opacity="0.5825850178715377"></circle><circle r="12.537642388052891" cx="551.1207945708335" cy="672.3248288137089" opacity="0.3839441071234374"></circle><circle r="7.628001739952789" cx="777.2469999392118" cy="166.7871748012103" opacity="0.3757733571665376"></circle><circle r="7.315242035953719" cx="679.182598708355" cy="67.79942745705249" opacity="0.3572686648036132"></circle><circle r="6.154044926349889" cx="717.336541027841" cy="109.90774729897979" opacity="0.46974846833568396"></circle><circle r="8.690007904146785" cx="698.2531311695798" cy="149.8274282631242" opacity="0.39979550232375227"></circle><circle r="5.446858196500373" cx="58.31688158080575" cy="553.8138513205395" opacity="0.7019892395349595"></circle><circle r="3.8823114227845528" cx="270.83260441783216" cy="646.4888818187952" opacity="0.5959140428912397"></circle><circle r="3.4928483137752995" cx="282.0587991546963" cy="9.982466618030948" opacity="0.8707286383077371"></circle><circle r="11.29747598140008" cx="396.36631990335263" cy="488.5345546249388" opacity="0.6548065165098721"></circle><circle r="10.986094868839984" cx="372.2538234149125" cy="619.4064845139859" opacity="0.5613309167478038"></circle><circle r="4.2930477277279975" cx="423.8998173726575" cy="104.27561777017702" opacity="0.6704653820251102"></circle><circle r="11.447099872618224" cx="355.2455987481556" cy="318.39579232386916" opacity="0.8165001938525831"></circle><circle r="10.18715712048235" cx="596.3895257678882" cy="713.0963772849335" opacity="0.3633931032264496"></circle><circle r="9.185344700601936" cx="107.26253303394232" cy="70.29149549050679" opacity="0.5857107945110589"></circle><circle r="7.944127767826974" cx="584.590506249405" cy="542.73951684515" opacity="0.6979038229631649"></circle><circle r="8.319581769248842" cx="635.1945691832634" cy="688.8885705732699" opacity="0.5466694056847631"></circle><circle r="5.817148714281756" cx="758.2257060528353" cy="648.5810364285428" opacity="0.9996260787751368"></circle><circle r="5.524212683392565" cx="67.60630999854014" cy="477.16477264944456" opacity="0.3173476766546799"></circle><circle r="7.451302625734298" cx="349.0140571606699" cy="61.52887825423879" opacity="0.8999042110784357"></circle><circle r="4.939363957167283" cx="721.8675885901465" cy="185.6411632246957" opacity="0.36851586809587655"></circle><circle r="5.678856218844489" cx="191.74370538484305" cy="602.4223721712116" opacity="0.8313697286560062"></circle><circle r="6.779478454976251" cx="181.204865713973" cy="132.13966350461786" opacity="0.8620139502561445"></circle><circle r="4.706969191093798" cx="754.6959159333456" cy="118.95584433639445" opacity="0.21901577262293603"></circle></g></svg>