<svg xmlns="http://www.w3.org/2000/svg" xmlns:xlink="http://www.w3.org/1999/xlink" xmlns:svgjs="http://svgjs.dev/svgjs" version="1.1" viewBox="0 0 800 800"><defs><linearGradient x1="50%" y1="0%" x2="50%" y2="100%" id="wwwhirl-grad"><stop stop-color="hsla(206, 100%, 30%, 1.00)" stop-opacity="1" offset="45%"/><stop stop-color="hsla(89, 64%, 31%, 1.00)" stop-opacity="1" offset="100%"/></linearGradient></defs><g stroke-width="2" stroke="url(#wwwhirl-grad)" fill="none" stroke-linecap="round"><path d="M-4.249997196197427 422.1062028811823C11.06250322862114 404.19057738414455 38.625003993294584 329.90963782334967 69.25000484293173 336.1112004954012C99.87500569256886 342.3127631674527 112.1250060324237 448.19870360507315 142.75000688206086 451.87370370702956C173.375007731698 455.54870380898603 185.62500807155288 353.5215134784199 216.25000892119 353.75120098479215C246.87500977082715 353.9808884911645 259.12501011068207 456.19182882682844 289.7500109603192 452.9762037376165C320.37501180995633 449.7605786484046 332.62501214981114 337.6271380374582 363.25001299944824 338.31620055657504C393.8750138490854 339.0052630756919 406.12501418894027 448.70401611909216 436.75001503857743 456.2837038293774C467.37501588821465 463.86339153966253 479.6250162280694 373.09088902133806 510.2500170777066 374.69870156594396C540.8750179273437 376.3065141105499 553.1250182671985 469.74339170279285 583.7500191168357 464.0012040434859C614.3750199664729 458.25901638417895 626.6250203063278 351.7299509287161 657.2500211559649 347.13620080127055C687.8750220056021 342.542450673825 700.125022345457 438.7355783425353 730.750023195094 441.95120343174716C761.375024044731 445.16682852095903 788.9375248094044 379.1087016882917 804.2500252342231 362.57120122948766 " transform="rotate(99, 400, 400)"/><path d="M8.000002718838857 421.4363461510293C22.84848797926898 404.063618396326 49.57576144804324 332.0336163979795 79.27273196890349 338.04725292845364C108.96970248976373 344.0608894589279 120.84849069810787 446.7381650348022 150.5454612189681 450.3018014973054C180.24243173982833 453.8654379598087 192.12121994817247 354.9299806695627 221.81819046903274 355.1527079484692C251.51516098989305 355.3754352273756 263.3939491982371 454.48907434074675 293.09091971909737 451.3708924360564C322.7878902399576 448.25271053136606 334.6666784483017 339.5172529692362 364.36364896916194 340.1854348059556C394.0606194900222 340.853616642675 405.9394076983664 447.22816504839636 435.63637821922663 454.5781652523093C465.3333487400869 461.92816545622225 477.21213694843095 373.9063448323924 506.90910746929126 375.46543578473756C536.6060779901514 377.02452673708274 548.4848661984955 467.6299837962274 578.1818367193558 462.0618018235661C607.8788072402161 456.4936198509048 619.7575954485602 353.1927078940924 649.4545659694205 348.73816231596334C679.1515364902808 344.28361673783434 691.0303246986249 437.56180114385637 720.7272952194851 440.6799830485467C750.4242657403454 443.798164953237 777.1515392091196 379.74179953974146 792.0000244695497 363.7054354584769 " transform="rotate(96, 400, 400)"/><path d="M20.25000263387514 420.76643601511455C34.63447272991682 403.93660600274575 60.52651890279188 334.1575415668475 89.29545909487524 339.98325195574444C118.06439928695863 345.8089623446413 129.57197536379198 445.2775730587696 158.34091555587534 448.7298458818196C187.1098557479587 452.1821187048696 198.61743182479208 356.3383944549438 227.3863720168755 356.55416150638445C256.15531220895883 356.76992855782504 267.6628882857922 452.78626644890335 296.43182847787557 449.7655277287346C325.20076866995896 446.7447890085658 336.70834474679225 341.40731449525254 365.47728493887564 342.05461564957443C394.246225130959 342.70191680389627 405.7538012077924 445.75226057193896 434.5227413998758 452.8725732694796C463.29168159195916 459.99288596702024 474.7992576687925 374.72174723768507 503.5681978608759 376.23211659776945C532.3371380529592 377.74248595785383 543.8447141297926 465.51652248390025 572.613654321876 460.1223461978846C601.3825945139594 454.728169911869 612.8901705907926 354.65541145370696 641.6591107828762 350.3400704248944C670.4280509749595 346.0247293960819 681.9356270517928 436.38797053941585 710.7045672438762 439.40870925958455C739.4735074359595 442.4294479797533 765.3655536088346 380.3748439854295 779.7500237048763 364.8396162817045 " transform="rotate(93, 400, 400)"/><path d="M32.500002548911425 420.0965830996588C46.42045748056468 403.8096508296245 71.47727635754053 336.28152395617457 99.318186220847 341.91930820349415C127.1590960841535 347.5570924508137 138.2954600294761 443.81703830319594 166.1363698927826 447.1579474867927C193.97727975608908 450.4988566703895 205.11364370141172 357.7468654607839 232.95455356471814 357.9556722847587C260.79546342802473 358.1644791087335 271.93182737334735 451.0835157775189 299.77273723665377 448.16022024187174C327.61364709996025 445.23692470622456 338.75001104528286 343.29743324172784 366.59092090858934 343.9238537136522C394.4318307718959 344.5502741855766 405.5681947172185 444.2764133159405 433.4091045805249 451.1670385071088C461.25001444383145 458.05766369827717 472.38637838915406 375.5372068634367 500.22728825246054 376.9988546312603C528.068198115767 378.4605023990839 539.2045620610895 463.40311839203207 567.0454719243961 458.18294779266205C594.8863817877026 452.96277719329214 606.0227457330252 356.11817223378046 633.8636555963318 351.94203575428446C661.7045654596383 347.7658992747885 672.8409294049609 435.21419715543425 700.6818392682673 438.1374926910814C728.5227491315737 441.06078822672856 753.5795680085496 381.00794565157645 767.5000229402028 365.97385432539096 " transform="rotate(90, 400, 400)"/><path d="M44.75000246394771 419.4266805931386C58.20644223121252 403.68264606543875 82.42803381228919 338.4054567544372 109.34091334681878 343.8553148601794C136.25379288134837 349.30517296592166 147.01894469516023 442.3564539565578 173.93182422968982 445.5859995007014C200.84470376421945 448.8155450448449 211.60985557803133 359.1552868755595 238.5227351125609 359.3571334720685C265.4356146470905 359.55898006857745 276.2007664609024 449.38071551507005 303.113645995432 446.55486316394445C330.0265255299616 443.72901081281884 340.7916773437734 345.18750239713864 367.70455687830304 345.79304218666556C394.6174364128326 346.3985819761925 405.3825882266445 442.80051646887756 432.2954677611741 449.4614541536736C459.20834729570373 456.1223918384697 469.97349910951556 376.3526168981239 496.8863786440452 377.76554307368673C523.7992581785747 379.17846924924953 534.5644099923866 461.2896647090994 561.4772895269163 456.2434997963751C588.3901690614458 451.1973348836508 599.1553208752576 357.58088342278955 626.0682004097874 353.54395149261006C652.981079944317 349.5070195624306 663.7462317581288 434.0403741803882 690.6591112926584 436.8662265315138C717.571990827188 439.69207888263935 741.7935824082646 381.640997726659 755.2500221755294 367.10804277801304 " transform="rotate(87, 400, 400)"/><path d="M57.00000237898401 418.75679334540746C69.99242698186036 403.5556565600421 93.37879126703783 340.52940481148886 119.36364047279056 345.7913367756538C145.34848967854327 351.0532687398187 155.74242936084437 440.8958848687088 181.72727856659708 444.0140667733991C207.7121277723498 447.1322486780894 218.1060674546509 360.56372354912423 244.09091666040365 360.75860991816734C270.0757658661564 360.9534962872105 280.4697055484575 447.67793051141024 306.4545547542102 444.94952134480616C332.43940395996293 442.22111217820213 342.83334364226397 347.07758681133856 368.81819284801674 347.662245918468C394.80304205376945 348.2469050255974 405.19698173607054 441.3246348806037 431.1818309418233 447.7558850590275C457.16668014757596 454.1871352374513 467.5606198298771 377.1680421916002 493.5454690356298 378.5322467749022C519.5303182413825 379.8964513582042 529.9242579236836 459.1762262849558 555.9091071294363 454.3040670588772C581.893956335189 449.4319078327985 592.2878960174902 359.04360987058766 618.272745223243 355.1458824897248C644.2575944289957 351.24815510886185 654.6515341112968 432.86656646413115 680.6363833170494 435.59497563073523C706.6212325228021 438.32338479733926 730.0075968079796 382.27406506053063 743.000021410856 368.24224648942413 " transform="rotate(84, 400, 400)"/><path d="M69.25000229402029 418.0869099123736C81.7784117325082 403.4286708693427 104.32954872178648 342.6533566832378 129.38636759876232 347.7273625058254C154.44318647573814 352.801368328413 164.46591402652848 439.43531959555696 189.52273290350433 442.4421378607941C214.5795517804802 445.4489561260312 224.60227933127052 361.97216403738616 249.65909820824635 362.16009017896346C274.7159170852222 362.3480163205408 284.73864463601257 445.9751493224477 309.7954635129884 443.34418334036525C334.8522823899643 440.71321735828275 344.8750099407546 348.9676750402357 369.9318288177304 349.5314534649676C394.98864769470623 350.0952318896996 405.0113752454966 439.8487571070271 430.06819412247245 446.0503197790786C455.12501299944824 452.25188245113014 465.14774055023867 377.9834712997737 490.20455942721446 379.29895429081495C515.2613783041903 380.6144372818562 525.2841058549806 457.0627916755095 550.3409247319564 452.3646381360765C575.3977436089324 447.66648459664356 585.4204711597226 360.5063401330831 610.4772900366986 356.7478173015367C635.5341089136745 352.98929446999034 645.5568364644647 431.6927625625715 670.6136553414406 434.32372854465393C695.6704742184164 436.9546945267364 718.2216112076947 382.90713620909946 730.7500206461825 369.37645401553254 " transform="rotate(81, 400, 400)"/><path d="M81.50000220905657 417.417030294037C93.56439648315605 403.3016889933406 115.28030617653513 344.777312369684 139.40909472473408 349.66339205069426C163.53788327293304 354.54947173170456 173.18939869221262 437.97475813710247 197.3181872404116 440.87021276288635C221.44697578861053 443.76566738867024 231.09849120789013 363.38060834034536 255.22727975608908 363.5615742544569C279.3560683042881 363.7425401685684 289.0075837235677 444.2723719481824 313.1363722717666 441.7388491506215C337.26516081996556 439.2053263530606 346.91667623924513 350.85776708383014 371.0454647874441 351.4006648261646C395.174253335643 351.9435625684991 404.82576875492265 438.37288314814776 428.95455730312165 444.344758313827C453.0833458513206 450.31663347950627 462.7348612706002 378.7989042226445 486.86364981879916 380.06566562142496C510.99243836699804 381.3324270202054 520.6439537862775 454.9493608807604 544.7727423344766 450.42521302797314C568.9015308826756 445.90106517518586 578.5530463019552 361.9690742102757 602.6818348501541 358.3497559280459C626.8106233983532 354.73043764581604 636.4621388176328 430.51896247570903 660.5909273658317 433.0524852732699C684.7197159140305 435.58600807083076 706.4356256074096 383.5402111723656 718.5000198815092 370.51066535633817 " transform="rotate(78, 400, 400)"/><path d="M93.75000212409286 416.7471468610031C105.3503812338039 403.17470330264115 126.23106363128377 346.9012642414329 149.43182185070583 351.5994177808659C172.63258007012791 356.29757132029886 181.91288335789676 436.5141928639507 205.11364157731884 439.29828385028134C228.3143997967409 442.08237483661196 237.59470308450977 364.78904882860735 260.7954613039318 364.963054515253C283.9962195233539 365.1370602018987 293.27652281112273 442.56959075921986 316.4772810305448 440.1335111461805C339.6780392499669 437.6974315331412 348.9583425377357 352.74785531272727 372.1591007571578 353.2698723726643C395.35985897657986 353.7918894326013 404.6401622643487 436.89700537457117 427.8409204837708 442.6391930338781C451.0416787031928 448.38138069318506 460.3219819909617 379.61433333081806 483.5227402103838 380.8323731373377C506.72349842980583 382.0504129438574 516.0038017175746 452.8359262713141 539.2045599369967 448.48578410517246C562.4053181564188 444.13564193903085 571.6856214441876 363.43180447277115 594.8863796636098 359.95169073985784C618.0871378830319 356.4715770069445 627.3674411708007 429.3451585741493 650.5681993902227 431.7812381871886C673.7689576096448 434.2173178002279 694.6496400071246 384.1732823209345 706.2500191168357 371.6448728824466 " transform="rotate(75, 400, 400)"/><path d="M106.00000203912914 416.07725198387743C117.13636598445174 403.04770616785 137.18182108603241 349.02520466909004 159.45454897667761 353.5354320669457C181.72727686732281 358.04565946480136 190.63636802358087 435.0536161467071 212.90909591422607 437.7263434935845C235.18182380487127 440.39907084046195 244.09091496112936 366.1974778727775 266.36364285177456 366.36452333195734C288.6363707424198 366.5315687911372 297.54546189867784 440.8667981261655 319.818189789323 438.52816169764776C342.09091767996824 436.18952526913006 351.00000883622624 354.63793209753266 373.27273672687147 355.1390684750722C395.5454646175167 355.6402048526117 404.45455577377476 435.42111615690277 426.72728366441993 440.9336163098375C449.00001155506516 446.4461164627721 457.9091027113232 380.4297509948998 480.1818306019684 381.59906920915864C502.45455849261356 382.76838742341755 511.3636496488716 450.722480217776 533.6363775395168 446.54634373828003C555.9091054301621 442.3702072587841 564.8181965864202 364.8945232911748 587.0909244770654 361.55361410757797C609.3636523677106 358.2127049239812 618.2727435239688 428.1713432284978 640.5454714146138 430.5099796570155C662.818199305259 432.84861608553325 682.8636544068396 384.8063420254116 694.0000183521622 372.77906896446314 " transform="rotate(72, 400, 400)"/><path d="M118.25000195416543 415.40734947735723C128.9223507350996 402.9207014036642 148.13257854078108 351.14913746735266 169.47727610264937 355.47143872363097C190.82197366451769 359.79373997990933 199.359852689265 433.593031800069 220.7045502511333 436.15439550749323C242.0492478130016 438.7157592149174 250.58712683774897 367.60589928755314 271.9318243996173 367.76598451926714C293.2765219614856 367.9260697509811 301.81440098623295 439.16399786371665 323.1590985481012 436.92280461972047C344.5037961099695 434.6816113757243 353.04167513471685 356.52800125294345 374.38637269658517 357.00825694808555C395.7310702584535 357.4885126432275 404.2689492832008 433.94521930983984 425.6136468450691 439.2280319564023C446.9583444069374 444.51084460296465 455.49622343168477 381.245161029587 476.8409209935531 382.36575765158506C498.1856185554214 383.4863542735832 506.72349758016867 448.60902653484334 528.068195142037 444.60689574199307C549.4128927039053 440.60476494914275 557.9507717286526 366.3572344801838 579.2954692905209 363.1555298459036C600.6401668523893 359.9538252116233 609.1780458771366 426.99752025345174 630.5227434390049 429.23871349744786C651.8674410008732 431.47990674144404 671.0776688065547 385.4393941004941 681.7500175874889 373.9132574170852 " transform="rotate(69, 400, 400)"/><path d="M130.5000018692017 414.7374698590206C140.70833548574743 402.7937195276621 159.08333599552972 353.27309315379887 179.50000322862115 357.4074682684999C199.91667046171256 361.5418433832009 208.08333735494915 432.1324703416145 228.50000458804055 434.5824704095855C248.91667182113198 437.03247047755644 257.08333871436855 369.01434359051234 277.50000594746 369.1674685947605C297.91667318055147 369.3205935990087 306.083340073788 437.46122048945136 326.5000073068794 435.31747042997677C346.91667453997087 433.17372037050217 355.08334143320747 358.4180932965379 375.50000866629887 358.87746830928245C395.91667589939027 359.336843322027 404.08334279262687 432.4693453509605 424.50001002571827 437.52247049115067C444.9166772588097 442.5755956313408 453.0833441520463 382.0605939524578 473.5000113851377 383.13246898219506C493.9166786182291 384.2043440119324 502.08334551146567 446.49559574009436 522.5000127445571 442.6674706338897C542.9166799776485 438.83934552768505 551.0833468708852 367.8199685573765 571.5000141039766 364.75746847241277C591.9166813370681 361.6949683874491 600.0833482303046 425.8237201665893 620.500015463396 427.9674702260638C640.9166826964874 430.1112202855385 659.2916832062697 386.07246906376025 669.5000168228154 375.0474687578909 " transform="rotate(66, 400, 400)"/><path d="M142.750001784238 414.06758642598675C152.49432023639525 402.66673383696275 170.03409345027836 355.3970450255478 189.5227303545929 359.3434939986715C209.01136725890746 363.2899429717952 216.80682202063326 430.6719050684627 236.2954589249478 433.01054149698047C255.78409582926236 435.3491779254982 263.5795505909882 370.4227840787743 283.0681874953027 370.56894885555664C302.5568243996173 370.715113632339 310.3522791613431 435.7584393004888 329.84091606565767 433.7121324255358C349.3295529699722 431.6658255505828 357.125007731698 360.3081815254351 376.6136446360125 360.74667585578214C396.10228154032706 361.1851701861292 403.8977363020529 430.9934675773839 423.38637320636747 435.81690521120174C442.875010110682 440.64034284501963 450.6704648724078 382.8760230606313 470.15910177672237 383.8991764981078C489.64773868103686 384.92232993558434 497.44319344276266 444.382161130648 516.9318303470773 440.7280417110891C536.4204672513918 437.07392229153004 544.2159220131177 369.28269881987194 563.7045589174322 366.35940328422475C583.1931958217468 363.43610774857757 590.9886505834726 424.64991626502956 610.4772874877871 426.6962231399826C629.9659243921016 428.7425300149356 647.5056976059847 386.70554021232914 657.250016058142 376.18167628399925 " transform="rotate(63, 400, 400)"/><path d="M154.99998644048523 413.3977106223474C164.28028972825405 402.53975577565785 180.98483564623797 357.5210045266913 199.5454422217756 361.27952735823766C218.10604879731326 365.03805018978403 225.53029142752834 429.2113474247055 244.090898003066 431.43862021377004C262.65150457860364 433.66589300283454 270.0757472088187 371.8312321964308 288.6363537843564 371.97043674574735C307.1969603598941 372.10964129506385 314.62120299010917 434.0556657409208 333.1818095656468 432.10680205048936C351.74241614118444 430.15793836005787 359.1666587713995 362.19827738372675 377.7272653469372 362.61589103167637C396.2878719224748 363.03350467962593 403.71211455268985 429.51759743320184 422.2727211282276 434.11134756064746C440.83332770376524 438.705097688093 448.2575703339803 383.6914597981994 466.81817690951794 384.6658916434151C485.3787834850556 385.6403234886308 492.80302611527065 442.26873415059623 511.36363269080834 438.7886204176829C529.9242392663459 435.3085066847696 537.348481896561 370.74543671176184 555.9090884720988 367.9613457254312C574.4696950476365 365.17725473910053 581.8939376778515 423.47611999286437 600.4545442533891 425.4249836832958C619.0151508289268 427.37384737372724 635.7196967469106 387.3386189902925 645.0000000346795 377.3158914395022 " transform="rotate(60, 400, 400)"/><path d="M167.24998635552151 412.72783481870806C176.0662744789019 402.412777714353 191.9355931009866 359.6449640278347 209.56816934774739 363.2155607178038C227.20074559450816 366.78615740777286 234.25377609321248 427.75078978094825 251.88635233997326 429.86669893055955C269.518928586734 431.98260808017085 276.5719590854384 373.2396803140873 294.20453533219916 373.371924635938C311.83711157895993 373.5041689577887 318.8901420776642 432.3528921813528 336.522718324425 430.50147167544293C354.1552945711858 428.650051169533 361.20832506989007 364.08837324201846 378.84090131665084 364.48510620757054C396.4734775634116 364.88183917312267 403.5265080621159 428.0417272890198 421.15908430887674 432.40578991009306C438.7916605556375 436.76985253116635 445.8446910543418 384.5068965357674 463.47726730110264 385.43260678872235C481.10984354786336 386.3583170416773 488.16287404656765 440.15530717054446 505.79545029332843 436.84919912427677C523.4280265400893 433.5430910780092 530.4810570387936 372.2081746036518 548.1136332855544 369.5632881666377C565.7462095323151 366.91840172962355 572.7992400310195 422.3023237206992 590.4318162777802 424.15374422660904C608.064392524541 426.0051647325189 623.9337111466257 387.9716977682559 632.7499992700061 378.4501065950051 " transform="rotate(57, 400, 400)"/><path d="M179.4999862705578 412.0579361268851C187.85225922954976 402.2857767648645 202.88635055573525 361.7689006407946 219.59089647371914 365.1515711891863C236.29544239170303 368.5342417375781 242.9772607588966 426.2902092490074 259.6818066768805 428.29475475916547C276.3863525948644 430.29930026932357 283.06817096205793 374.6481055435602 299.77271688004186 374.77338963794506C316.4772627980258 374.89867373232994 323.1590811652193 430.65009573360123 339.8636270832032 428.8961184122129C356.5681730011871 427.14214109082457 363.2499913683806 365.9784462121265 379.95453728636454 366.35429849528117C396.65908320434846 366.7301507784358 403.34090157154196 426.5658342566541 420.0454474895259 430.7002093713552C436.7499934075098 434.83458448605614 443.43181177470336 385.32231038515187 460.1363576926873 386.19929904584603C476.84090361067115 387.0762877065402 483.52272197786465 438.0418573023091 500.22726789584857 434.9097549426871C516.9318138138326 431.7776525830651 523.6136321810261 373.6708896073581 540.3181780990101 371.16520771966054C557.0227240169938 368.6595258319629 563.7045423841874 421.1285045603504 580.4090883021713 422.88248188173867C597.1136342201552 424.636459203127 612.1477255463407 388.60475365803575 620.4999985053327 379.58429886232443 " transform="rotate(54, 400, 400)"/><path d="M191.74998618559408 411.3880450644567C199.6382439801976 402.1587834447706 213.83710801048392 363.892844883149 229.61362359969092 367.08758928996343C245.39013918889793 370.2823336967778 251.70074542458073 424.8296363464611 267.4772610137877 426.7228182171659C283.2537766029948 428.61600008787076 289.5643828386776 376.0565384024276 305.34089842788455 376.17486226934665C321.1174140170916 376.2931861362657 327.42802025277444 428.9473069152441 343.2045358419814 427.2907727783774C358.98105143118846 425.63423864151065 365.29165766687123 367.8685268116292 381.06817325607824 368.22349841238633C396.8446888452852 368.5784700131435 403.155295080968 425.089948853683 418.9318106701751 428.9946364620117C434.7083262593821 432.89932407034047 441.01893249506486 386.13773186393087 456.7954480842719 386.96599893236424C472.5719636734789 387.7942660007976 478.8825699091617 435.9284150634682 494.6590854983687 432.9703183904919C510.4356010875758 430.0122217175156 516.7462073232585 375.133612240459 532.5227229124655 372.76713490207794C548.2992385016726 370.4006575636969 554.6098447373554 419.95469302939614 570.3863603265625 421.61122716626284C586.1628759157693 423.2677613031296 600.3617399460556 389.23781717721005 608.2499977406592 380.71849875903825 " transform="rotate(51, 400, 400)"/><path d="M203.99998610063037 410.7181520946797C211.4242287308454 402.031788217328 224.78786546523256 366.0167872181548 239.63635072566268 369.02360548339186C254.4848359860928 372.03042374862895 260.42423009026487 423.36906153656616 275.27271535069497 425.15087976781774C290.1212006111251 426.9326979990694 296.06059471529716 377.4649693539464 310.9090799757273 377.5763329933996C325.75756523615746 377.68769663285286 331.6969593403295 427.2445161895384 346.54544460075965 425.6854252371933C361.39392986118975 424.1263342848481 367.3333239653618 369.75860550378314 382.1818092257919 370.0926964221428C397.03029448622203 370.42678734050253 402.9696885903941 423.6140615433632 417.8181738508242 427.2890616453197C432.6666591112544 430.96406174727616 438.6060532154264 386.95315143536124 453.45453847585657 387.7326969115338C468.30302373628666 388.5122423877064 474.2424178404587 433.81497091727874 489.09090310088885 431.0308799309481C503.939388361319 428.24678894461744 509.87878246549104 376.5963329662112 524.7272677259211 374.3690601771467C539.5757529863513 372.1417873880822 545.5151470905234 418.78087959109325 560.3636323509535 420.3399705434384C575.2121176113836 421.89906149578354 588.5757543457707 389.87087878903577 595.9999969759858 381.8526967484035 " transform="rotate(48, 400, 400)"/><path d="M216.24998601566665 410.0482801057376C223.21021348149327 401.90481397072045 235.7386229199812 368.1407505339955 249.65907785163444 370.9596426576553C263.5795327832877 373.77853478131505 269.147714755949 421.90850770750615 283.0681696876022 423.5789622993046C296.98862461925546 425.24941689110295 302.5568065919168 378.87342128630013 316.47726152357 378.9778246982876C330.3977164552233 379.08222811027497 335.9658984278846 425.54174644466764 349.8863533595378 424.08009867684405C363.80680829119103 422.61845090902045 369.3749902638524 371.6487051767721 383.29544519550564 371.9619154127343C397.2159001271589 372.27512564869653 402.7840820998202 422.1381952138784 416.70453703147336 425.5835078094626C430.62499196312666 429.0288204050468 436.19317393578797 387.76859198762656 450.1136288674412 388.49941587153836C464.03408379909445 389.23023975545016 469.6022657717557 431.70154775192424 483.522720703409 429.0914624522392C497.44317563506223 426.4813771525543 503.01135760772354 378.05907467279843 516.9318125393768 375.97100643305043C530.85226747103 373.88293819330244 536.4204494436914 417.6070871336253 550.3409043753445 419.0687349014489C564.2613593069977 420.5303826692725 576.7897687454857 390.50396138169646 583.7499962113124 382.98691571860365 " transform="rotate(45, 400, 400)"/><path d="M228.49998593070293 409.37839667270373C234.99619823214113 401.777828280021 246.68938037472986 370.2647024057444 259.68180497760625 372.8956683878269C272.6742295804826 375.52663436990935 277.87119942163315 420.4479424343544 290.8636240245095 422.00703338669956C303.8560486273858 423.5661243390447 309.0530184685364 380.2818617745621 322.04544307141276 380.3793049590837C335.03786767428915 380.4767481436053 340.2348375154397 423.8389652557051 353.22726211831605 422.4747606724031C366.2196867211924 421.11055608910107 371.41665656234295 373.53879340566925 384.4090811652193 373.831122959234C397.40150576809566 374.12345251279874 402.5984756092462 420.6623174403018 415.5909002121226 423.87794252951375C428.58332481499895 427.0935676187256 433.7802946561495 388.5840210958001 446.77271925902585 389.2661233874511C459.7651438619022 389.9482256791021 464.96211370305275 429.5881131424779 477.9545383059291 427.1520335294386C490.94696290880546 424.71595391639926 496.14393274995604 379.52180493529386 509.1363573528324 377.57294124486236C522.1287819557087 375.6240775544309 527.3257517968593 416.4332832320656 540.3181763997356 417.7974878153676C553.310601002612 419.16169239866963 565.0037831452007 391.1370325302653 571.4999954466389 384.12112324471207 " transform="rotate(42, 400, 400)"/><path d="M240.74998584573922 408.7085151470185C246.78218298278898 401.6508444966703 257.6401378294785 372.388656184842 269.704532103578 374.8316960253471C281.7689263776775 377.2747358658523 286.59468408731726 418.98737906855126 298.65907836141673 420.4351063814432C310.7234726355162 421.8828336943351 315.549230345156 381.6903041701727 327.61362461925546 381.78078712722845C339.678018893355 381.87127008428416 344.5037766029948 422.1361859740912 356.56817087709425 420.86942457531075C368.6325651511937 419.6026631765303 373.4583228608335 375.42888354191507 385.522717134933 375.7003324130823C397.58711140903245 375.9717812842495 402.41286911867223 419.1864415740739 414.47726339277176 422.1723791569135C426.54165766687123 425.1583167397531 431.3674153765111 389.39945211132226 443.4318096506105 390.0328328107125C455.49620392470996 390.6662135101027 460.3219616343497 427.4746804403802 472.3863559084492 425.21260651398654C484.45075018254875 422.95053258759293 489.27650789218853 380.98453710513786 501.340902166288 379.1748779640229C513.4052964403875 377.36521882290805 518.2310541500274 415.2594812378545 530.2954484241268 416.52624263663495C542.3598426982262 417.7930040354154 553.2177975449158 391.7701055861828 559.2499946819655 385.2553326781691 " transform="rotate(39, 400, 400)"/><path d="M252.99998576077553 408.03862217724145C258.5681677334368 401.52384926922775 268.59089528422714 374.51259851984776 279.72725922954976 376.7677122187756C290.8636231748724 379.0228259177034 295.3181687530014 417.5268042586563 306.454532698324 418.863167932095C317.5908966436466 420.1995316055337 322.0454422217756 383.0987351216915 333.1818061670982 383.1822578512814C344.31817011242083 383.2657805808713 348.77271569054983 420.4333952483855 359.90907963587244 419.2640770341266C371.04544358119506 418.09475881986776 375.49998915932406 377.31896223406903 386.6363531046467 377.5695304228388C397.7727170499693 377.82009861160856 402.2272626280983 417.71055426375415 413.3636265734209 420.4668043402215C424.4999905187435 423.2230544166888 428.9545360968725 390.21487168275263 440.09090004219513 390.79953078988206C451.22726398751774 391.3841898970115 455.68180956564674 425.36123629419075 466.81817351096936 423.27316805444275C477.954537456292 421.1850998146948 482.40908303442103 382.4472578308901 493.54544697974364 380.77680323909175C504.68181092506626 379.1063486472933 509.1363565031953 414.08566779955163 520.2727204485178 415.2549860138105C531.4090843938404 416.42430422806933 541.4318119446307 392.40316719800853 546.999993917292 386.3895306675343 " transform="rotate(36, 400, 400)"/><path d="M265.2499856758118 407.36874255890484C270.35415248408464 401.3968673932256 279.5416527389758 376.63655420629397 289.7499863555215 378.7037417636445C299.9583199720672 380.770929320995 304.04165341868554 416.0662428002018 314.24998703523124 417.29124283418724C324.45832065177694 418.51624286817275 328.5416540983952 384.5071794246507 338.74998771494097 384.5837419267748C348.9583213314867 384.6603044288989 353.04165477810494 418.73061787412024 363.24998839465064 417.6587428443829C373.4583220111964 416.58686781464564 377.54165545781467 379.2090542776635 387.74998907436037 379.43874178403576C397.9583226909061 379.668429290408 402.04165613752434 416.2346803048748 412.24998975407004 418.76124287496987C422.4583233706158 421.2878054450649 426.54165681723407 391.0303046056234 436.7499904337798 391.56624212049206C446.9583240503255 392.1021796353607 451.0416574969438 423.2478054994417 461.2499911134895 421.3337429463394C471.4583247300352 419.41968039323706 475.5416581766535 383.90999190808276 485.74999179319923 382.37874186560094C495.958325409745 380.84749182311907 500.04165885636326 412.9118677126892 510.24999247290896 413.98374274242644C520.4583260894547 415.05561777216377 529.6458263443458 393.03624216127463 534.7499931526186 387.52374200834 " transform="rotate(33, 400, 400)"/><path d="M277.4999855908481 406.6988553111737C282.1401372347325 401.26987788782895 290.4924101937245 378.76050226334564 299.77271348149327 380.6397636791188C309.0530167692621 382.519025094892 312.76513808436965 414.60567371235277 322.0454413721385 415.719310106885C331.3257446599073 416.83294650141727 335.0378659750148 385.9156160982154 344.31816926278367 385.98521837287365C353.5984725505525 386.0548206475319 357.31059386566005 417.02783287046043 366.59089715342884 416.0534010252447C375.8712004411977 415.07896918002893 379.5833217563052 381.09913869186335 388.86362504407407 381.3079455158382C398.14392833184286 381.51675233981297 401.8560496469504 414.75879871660095 411.1363529347193 417.05567378032373C420.4166562224881 419.3525488440465 424.1287775375956 391.8457298990997 433.4090808253644 392.33294582170754C442.68938411313326 392.8201617443154 446.4015054282408 421.1343670752981 455.68180871600964 419.3943102088415C464.96211200377843 417.6542533423848 468.67423331888597 385.3727183558809 477.95453660665487 383.9806728627156C487.2348398944237 382.5886273695503 490.9469612095312 411.7380599964322 500.22726449730004 412.7124918416479C509.5075677850689 413.6869236868636 517.8598407440608 393.66930949514625 522.4999923879452 388.65794571975107 " transform="rotate(30, 400, 400)"/><path d="M289.7500007646734 406.02897378548846C293.9261372441694 401.14289410447816 301.44318290726216 380.8844560424432 309.7954558662541 382.5757913166391C318.1477288252461 384.26712659083495 321.4886380088428 413.1451103465496 329.8409109678348 414.14738310162863C338.1931839268267 415.1496558567077 341.5340931104235 387.324058493826 349.88636606941543 387.3867005410184C358.2386390284074 387.44934258821087 361.57954821200417 415.3250535888465 369.93182117099616 414.44806492815235C378.2840941299881 413.5710762674582 381.62500331358484 382.98922882810916 389.9772762725768 383.1771549696865C398.32954923156876 383.3650811112638 401.6704584151655 413.282922850373 410.0227313741575 415.3501104077235C418.37500433314943 417.417297965074 421.71591351674624 392.66116091462186 430.0681864757382 393.0996552449689C438.4204594347301 393.53814957531597 441.76136861832686 419.0209343732004 450.11364157731884 417.45488319338943C458.46591453631083 415.88883201357845 461.8068237199076 386.835450525725 470.1590966788996 385.58260958187617C478.51136963789145 384.32976863802736 481.85227882148826 410.5642580022211 490.2045517804802 411.44124666291526C498.5568247394721 412.3182353236094 506.07387040256486 394.3023825510638 510.25000688206086 389.7921551532081 " transform="rotate(27, 400, 400)"/><path d="M302.00000067970973 405.35908272306006C305.71212199481727 401.01590078438426 312.3939403620108 383.0084002847976 319.81818299222584 384.51180941741615C327.2424256224409 386.0152185500347 330.212122674527 411.6845374440033 337.636365304742 412.5754465596291C345.0606079349571 413.46635567525493 348.0303049870431 388.7324913526934 355.4545476172582 388.78817317242004C362.87879024747326 388.84385499214665 365.8484872995593 413.62226477048944 373.27272992977436 412.84271929431685C380.6969725599894 412.06317381814426 383.66666961207545 384.8793094276118 391.09091224229047 385.0463548867916C398.51515487250555 385.2134003459715 401.48485192459157 411.80703744740185 408.90909455480664 413.6445374983801C416.3333371850217 415.48203754935827 419.30303423710774 393.47658239340086 426.7272768673228 393.8663551314871C434.15151949753783 394.25612786957345 437.1212165496239 416.9074921343596 444.545459179839 415.5154466411943C451.96970181005406 414.12340114802896 454.93939886214 388.2981731588258 462.3636414923551 387.18453676429357C469.7878841225702 386.0709003697613 472.75758117465625 409.39044647126684 480.18182380487127 410.1699919474394C487.60606643508635 410.949537423612 494.2878848022799 394.9354460702381 498.00000611738744 390.926355049922 " transform="rotate(24, 400, 400)"/><path d="M314.24999296535145 404.6892011973748C317.49809911607053 400.88891700103346 323.3446901873649 385.13235406389515 329.8409024888031 386.4478370549364C336.3371147902413 387.76332004597765 338.9355997108166 410.2239740782001 345.43181201225474 411.0035195543727C351.9280243136929 411.7830650305453 354.5265092342682 390.140933748304 361.0227215357064 390.1896553405648C367.5189338371446 390.2383769328256 370.11741875771986 411.9194854888755 376.613631059158 411.2373831972245C383.1098433605962 410.5552809055735 385.7083282811715 386.7693995638576 392.20454058260964 386.91556434063995C398.7007528840478 387.0617291174223 401.2992378046231 410.3311615811739 407.7954501060613 411.9389741257798C414.2916624074995 413.54678667038576 416.89014732807476 394.292013408923 423.3863596295129 394.6330645547485C429.8825719309511 394.97411570057403 432.4810568515264 414.7940594322619 438.97726915296454 413.5760196257422C445.47348145440276 412.3579798192226 448.07196637497805 389.7609053286699 454.5681786764162 388.78647348345413C461.0643909778544 387.8120416382384 463.66287589842966 408.21664447705575 470.1590881998678 408.89874676870676C476.655300501306 409.58084906035776 482.50189157260036 395.5685191261556 485.74999772331944 392.060564483379 " transform="rotate(21, 400, 400)"/><path d="M326.49999288038777 404.01931204229504C329.2840838667184 400.7619255882882 334.2954476421136 387.2563002135982 339.8636296147749 388.3838570630621C345.4318115874362 389.511413912526 347.6590843765007 408.76340308300246 353.227266349162 409.43158491972184C358.7954483218233 410.09976675644117 361.0227211108878 391.54936851452004 366.5909030835491 391.591129879315C372.1590850562104 391.63289124411 374.3863578452749 410.2166985778671 379.9545398179362 409.63203947073765C385.52272179059753 409.04738036360817 387.74999457966203 388.65948207070886 393.31817655232334 388.78476616509374C398.88635852498464 388.9100502594786 401.11363131404914 408.8552780855514 406.68181328671045 410.233403123785C412.24999525937176 411.6115281620187 414.47726804843626 395.1074367950506 420.04545002109757 395.39976634861534C425.6136319937589 395.6920959021801 427.8409047828234 412.6806191007697 433.4090867554847 411.6365849808957C438.977268728146 410.5925508610217 441.2045415172105 391.22362986911935 446.77272348987185 390.38840257322016C452.3409054625331 389.553175277321 454.56817825159766 407.04283485345013 460.1363602242589 407.62749396057956C465.7045421969202 408.212153067709 470.71590597231534 396.2015845526786 473.499996958646 393.1947662874415 " transform="rotate(18, 400, 400)"/><path d="M338.7499966101213 403.34942765558685C341.0700724320635 400.63493894391445 345.2462089115595 389.3802511316728 349.8863605554439 390.3198818395594C354.5265121993283 391.259512547446 356.3825728568821 407.3028368561764 361.0227245007665 407.8596550534425C365.6628761446509 408.41647325070863 367.5189368022047 392.9578080491077 372.1590884460891 392.9926091864368C376.7992400899735 393.02741032376593 378.6553007475273 408.5139164352302 383.2954523914117 408.02670051262237C387.93560403529614 407.53948459001447 389.79166469284985 390.5495693459317 394.4318163367343 390.65397275791906C399.0719679806187 390.75837616990646 400.92802863817246 407.3793993583005 405.5681802820569 408.52783689016184C410.2083319259413 409.67627442202325 412.0643925834951 395.9228649495498 416.7045442273795 396.16647291085377C421.34469587126387 396.4100808721577 423.2007565288177 410.56718353764904 427.8409081727021 409.69715510442074C432.4810598165865 408.8271266711924 434.33712047414025 392.68635917794046 438.9772721180247 391.9903364313578C443.6174237619091 391.29431368477515 445.47348441946286 405.8690299982161 450.11363606334726 406.35624592082394C454.7537877072317 406.8434618434318 458.92992418672765 396.83465474757315 461.2500000086699 394.32897285987553 " transform="rotate(15, 400, 400)"/><path d="M350.9999965251576 402.67954326887866C352.85605718271137 400.50795229954076 356.1969663663082 391.50420204974745 359.90908768141566 392.2559066160567C363.6212089965232 393.00761118236596 365.10605752256623 405.84227062935025 368.8181788376737 406.2877251871632C372.53030015278125 406.7331797449761 374.0151486788243 394.3662475836953 377.7272699939318 394.3940884935586C381.43939130903937 394.4219294034219 382.9242398350824 406.81113429259335 386.63636115018994 406.42136155450703C390.3484824652974 406.03158881642076 391.83333099134046 392.43965662115454 395.54545230644794 392.52317935074444C399.2575736215555 392.60670208033434 400.7424221475985 405.90352063104956 404.45454346270606 406.82227065653865C408.1666647778136 407.7410206820278 409.65151330385663 396.73829310404903 413.36363461896417 396.9331794730922C417.07575593407165 397.12806584213536 418.5606044601147 408.4537479745284 422.2727257752222 407.75772522794574C425.98484709032977 407.0617024813631 427.46969561637275 394.14908848676157 431.1818169314803 393.59227028949545C434.8939382465878 393.03545209222926 436.37878677263086 404.69522514298205 440.0909080877384 405.0849978810683C443.80302940284594 405.47477061915464 447.1439385864427 397.46772494246767 448.99999924399646 395.46317943230963 " transform="rotate(12, 400, 400)"/><path d="M363.24999644019385 402.0096607895191C364.6420419333592 400.38096756251565 367.1477238210568 393.6281548751707 369.93181480738747 394.19193329990264C372.7159057937181 394.7557117246346 373.82954218825034 404.3817063098728 376.61363317458097 404.7157972282325C379.39772416091165 405.0498881465922 380.5113605554439 395.77468902563163 383.2954515417746 395.7955697080291C386.0795425281052 395.81645039042655 387.19317892263746 405.1083540573051 389.9772699089681 404.8160245037404C392.76136089529876 404.5236949501757 393.874997289831 394.329745803726 396.6590882761617 394.39238785091845C399.4431792624923 394.45502989811087 400.5568156570246 404.4276438111473 403.3409066433552 405.1167063302641C406.1249976296859 405.80576884938097 407.23863402421813 397.5537231658969 410.0227250105488 397.69988794267925C412.80681599687944 397.8460527194616 413.9204523914117 406.34031431875644 416.7045433777423 405.8182972588194C419.488634364073 405.2962801988824 420.60227075860524 395.61181970293126 423.3863617449359 395.1942060549817C426.17045273126655 394.77659240703207 427.2840891257988 403.52142219509665 430.0681801121294 403.8137517486614C432.8522710984601 404.1060813022261 435.35795298615767 398.1007970447109 436.74999847932304 396.5973879120923 " transform="rotate(9, 400, 400)"/><path d="M375.50000016992743 401.3397744954623C376.4280304987043 400.25397901079333 378.0984850905027 395.75210388589664 379.9545457480565 396.1279561690513C381.8106064056102 396.50380845220593 382.5530306686317 402.9211381756981 384.4090913261855 403.14386545460457C386.26515198373926 403.36659273351097 387.0075762467608 397.1831266528706 388.86363690431455 397.1970471078023C390.7196975618683 397.2109675627339 391.46212182488983 403.4055700073196 393.3181824824436 403.21068363827646C395.1742431399973 403.0157972692333 395.9166674030189 396.2198311716002 397.7727280605726 396.26159253639514C399.6287887181264 396.3033539011901 400.3712129811479 402.95176317654773 402.22727363870166 403.4111381892923C404.08333429625543 403.8705132020368 404.82575855927695 398.36914941304747 406.6818192168307 398.46659259756905C408.53787987438443 398.5640357820906 409.280304137406 404.22687684828713 411.1363647949597 403.87886547499585C412.99242545251354 403.5308541017045 413.734849715535 397.07454710440373 415.5909103730888 396.7961380057707C417.44697103064254 396.5177289071376 418.18939529366406 402.347615432514 420.04545595121783 402.54250180155714C421.9015166087716 402.73738817060024 423.57197120057 398.7338653322568 424.50000152934683 397.73159257717776 " transform="rotate(6, 400, 400)"/><path d="M387.75000008496374 400.6698853403825C388.21401524935214 400.126987598048 389.04924254525133 397.8760500355997 389.97727287402824 398.06397617717704C390.9053032028051 398.25190231875433 391.2765153343159 401.4605671805004 392.20454566309274 401.57193081995365C393.13257599186966 401.68329445940685 393.5037881233804 398.5915614190867 394.43181845215724 398.5985216465525C395.35984878093416 398.6054818740183 395.73106091244495 401.7027830963112 396.6590912412218 401.6053399117896C397.58712156999866 401.507896727268 397.95833370150945 398.10991367845145 398.8863640302863 398.13079436084894C399.81439435906316 398.1516750432464 400.18560649057395 401.47587968092523 401.11363681935086 401.7055671872975C402.0416671481277 401.9352546936698 402.41287927963845 399.1845727991751 403.34090960841536 399.2332943914359C404.2689399371922 399.2820159836967 404.640152068703 402.11343651679493 405.56818239747986 401.93943083014926C406.4962127262568 401.7654251435036 406.8674248577675 398.5372716448532 407.79545518654436 398.3980670955367C408.7234855153213 398.25886254622014 409.09469764683206 401.17380580890836 410.0227279756089 401.27124899342994C410.9507583043858 401.3686921779515 411.785985600285 399.36693075877974 412.2500007646734 398.8657943812402 " transform="rotate(3, 400, 400)"/></g></svg>