<svg xmlns="http://www.w3.org/2000/svg" version="1.1" xmlns:xlink="http://www.w3.org/1999/xlink" xmlns:svgjs="http://svgjs.dev/svgjs" viewBox="0 0 800 800"><defs><linearGradient x1="50%" y1="0%" x2="50%" y2="100%" id="vvvortex-grad"><stop stop-color="hsl(0, 0%, 0%)" stop-opacity="1" offset="0%"></stop><stop stop-color="hsl(105, 69%, 60%)" stop-opacity="1" offset="100%"></stop></linearGradient></defs><g stroke="url(#vvvortex-grad)" fill="none" stroke-linecap="round"><circle r="342" cx="400" cy="400" stroke-width="11" stroke-dasharray="22 27" stroke-dashoffset="25" transform="rotate(109, 400, 400)" opacity="0.05"></circle><circle r="324" cx="400" cy="400" stroke-width="11" stroke-dasharray="18 16" stroke-dashoffset="25" transform="rotate(241, 400, 400)" opacity="0.10"></circle><circle r="306" cx="400" cy="400" stroke-width="10" stroke-dasharray="18 30" stroke-dashoffset="25" transform="rotate(303, 400, 400)" opacity="0.16"></circle><circle r="288" cx="400" cy="400" stroke-width="10" stroke-dasharray="20 36" stroke-dashoffset="25" transform="rotate(34, 400, 400)" opacity="0.21"></circle><circle r="270" cx="400" cy="400" stroke-width="10" stroke-dasharray="46 35" stroke-dashoffset="25" transform="rotate(237, 400, 400)" opacity="0.26"></circle><circle r="252" cx="400" cy="400" stroke-width="9" stroke-dasharray="26 12" stroke-dashoffset="25" transform="rotate(76, 400, 400)" opacity="0.31"></circle><circle r="234" cx="400" cy="400" stroke-width="9" stroke-dasharray="18 34" stroke-dashoffset="25" transform="rotate(65, 400, 400)" opacity="0.37"></circle><circle r="216" cx="400" cy="400" stroke-width="9" stroke-dasharray="29 18" stroke-dashoffset="25" transform="rotate(334, 400, 400)" opacity="0.42"></circle><circle r="198" cx="400" cy="400" stroke-width="8" stroke-dasharray="14 13" stroke-dashoffset="25" transform="rotate(287, 400, 400)" opacity="0.47"></circle><circle r="180" cx="400" cy="400" stroke-width="8" stroke-dasharray="45 29" stroke-dashoffset="25" transform="rotate(92, 400, 400)" opacity="0.53"></circle><circle r="162" cx="400" cy="400" stroke-width="8" stroke-dasharray="23 14" stroke-dashoffset="25" transform="rotate(139, 400, 400)" opacity="0.58"></circle><circle r="144" cx="400" cy="400" stroke-width="7" stroke-dasharray="49 37" stroke-dashoffset="25" transform="rotate(0, 400, 400)" opacity="0.63"></circle><circle r="126" cx="400" cy="400" stroke-width="7" stroke-dasharray="23 20" stroke-dashoffset="25" transform="rotate(164, 400, 400)" opacity="0.68"></circle><circle r="108" cx="400" cy="400" stroke-width="7" stroke-dasharray="17 19" stroke-dashoffset="25" transform="rotate(30, 400, 400)" opacity="0.74"></circle><circle r="90" cx="400" cy="400" stroke-width="6" stroke-dasharray="22 46" stroke-dashoffset="25" transform="rotate(129, 400, 400)" opacity="0.79"></circle><circle r="72" cx="400" cy="400" stroke-width="6" stroke-dasharray="31 50" stroke-dashoffset="25" transform="rotate(92, 400, 400)" opacity="0.84"></circle><circle r="54" cx="400" cy="400" stroke-width="6" stroke-dasharray="44 48" stroke-dashoffset="25" transform="rotate(151, 400, 400)" opacity="0.89"></circle><circle r="36" cx="400" cy="400" stroke-width="5" stroke-dasharray="50 35" stroke-dashoffset="25" transform="rotate(134, 400, 400)" opacity="0.95"></circle><circle r="18" cx="400" cy="400" stroke-width="5" stroke-dasharray="26 49" stroke-dashoffset="25" transform="rotate(44, 400, 400)" opacity="1.00"></circle></g></svg>