<svg xmlns="http://www.w3.org/2000/svg" version="1.1" xmlns:xlink="http://www.w3.org/1999/xlink" xmlns:svgjs="http://svgjs.dev/svgjs" viewBox="0 0 800 800"><defs><linearGradient x1="50%" y1="0%" x2="50%" y2="100%" id="wwwhirl-grad"><stop stop-color="hsla(0, 0%, 0%, 1.00)" stop-opacity="1" offset="45%"></stop><stop stop-color="hsla(119, 90%, 56%, 1.00)" stop-opacity="1" offset="100%"></stop></linearGradient></defs><g stroke-width="2" stroke="url(#wwwhirl-grad)" fill="none" stroke-linecap="round"><path d="M-994.2499979591366 377.9101472964641C-941.4374964939461 362.066396856907 -846.3749938566029 295.52264501076684 -740.7499909262219 301.8601451865897C-635.1249879958407 308.1976453624126 -592.8749868236882 417.0442108821704 -487.2499838933071 408.3301481404139C-381.624980962926 399.61608539865745 -339.3749797907734 248.14983119649085 -233.74997686039228 260.0326440261587C-128.12497393001115 271.9154568558266 -85.87497275785859 478.8348375964433 19.750030172522656 465.3676497228197C125.37503310290367 451.9004618491961 167.62503427505612 190.63701710089833 273.25003720543737 195.39014223276547C378.8750401358184 200.1432673646326 421.12504130797106 456.4951494766677 526.7500442383521 488.182650355782C632.3750471687331 519.8701512348964 674.6250483408858 332.438583534935 780.2500512712668 347.49014645251435C885.8750542016478 362.54170937009366 928.1250553738003 557.2614022722513 1033.750058304182 560.4301523601628C1139.375061234563 563.5989024480743 1181.6250624067152 353.9860841327328 1287.2500653370967 362.70014687448923C1392.8750682674781 371.41420961624567 1435.1250694396304 632.3607793557524 1540.7500723700114 602.2576535205937C1646.3750753003924 572.1545276854351 1741.437577937735 298.2160825854915 1794.250079402926 218.2051428657278 " transform="rotate(99, 400, 400)"></path><path d="M-951.9999982521748 378.57953607874754C-900.7878756192628 363.2158992888739 -808.6060548800209 298.6886247714047 -706.1818096141967 304.83407948735413C-603.7575643483726 310.97953420330356 -562.7878662420429 416.5277189497354 -460.36362097621884 408.0777187153049C-357.93937571039476 399.62771848087436 -316.96967760406494 252.75135076968255 -214.54543233824074 264.2740783620878C-112.12118707241655 275.796805954493 -71.15148896608684 476.4459024302425 31.272756299737466 463.38681115885C133.69700156556132 450.32771988745736 174.6666996718909 196.98134922244128 277.090944937715 201.59044025940338C379.5151902035393 206.19953129636548 420.4848883098689 454.7831745565207 522.9091335756932 485.510448136268C625.3333788415173 516.2377217160152 666.3030769478469 334.4858984918102 768.7273222136712 349.0813534421902C871.151567479495 363.67680839257014 912.1212655858246 552.495904540117 1014.5455108516489 555.5686318980917C1116.9697561174735 558.6413592560664 1157.9394542238033 355.3804445260384 1260.3636994896274 363.8304447604689C1362.787944755452 372.28044499489937 1403.7576428617813 625.319542924118 1506.1818881276054 596.1286330233581C1608.606133393429 566.9377231225983 1700.7879541326706 301.3004430256832 1752.000076765583 223.7140772368214 " transform="rotate(96, 400, 400)"></path><path d="M-909.7499985452129 379.2489248610309C-860.1382547445794 364.36540172084085 -770.8371159034389 301.8546045320426 -671.6136283021717 307.8080137881186C-572.3901407009046 313.7614230441946 -532.7007456603977 416.0112270173004 -433.4772580591306 407.8252892901959C-334.2537704578634 399.63935156309134 -294.5643754173565 257.3528703428742 -195.34088781608932 268.5155126980168C-96.11740021482228 279.67815505315934 -56.42800517431533 474.0569672640417 42.79548242695182 461.40597259488015C142.01897002821897 448.75497792571855 181.7083650687257 203.32568134398426 280.93185266999285 207.7907382860413C380.15534027126 212.2557952280983 419.84473531176695 453.07119963637365 519.0682229130341 482.83824591675386C618.2917105143013 512.6052921971341 657.9811055548084 336.5332134486854 757.2045931560754 350.67256043186603C856.4280807573423 364.81190741504656 896.117475797849 547.7304068079825 995.3409633991164 550.7071114360206C1094.564451000384 553.6838160640586 1134.2538460408905 356.7748049193439 1233.4773336421576 364.96074264644847C1332.7008212434253 373.146680373553 1372.3902162839317 618.2783064924836 1471.613703885199 589.9996125261223C1570.8371914864656 561.7209185597612 1660.1383303276061 304.3848034658748 1709.7500741282397 229.223011607915 " transform="rotate(93, 400, 400)"></path><path d="M-867.499998838251 379.9182831257362C-819.4886338698959 365.5148736352297 -733.0681769268567 305.0205537751023 -637.0454469901466 310.7819175713049C-541.0227170534365 316.54328136750746 -502.6136250787524 415.49470456728733 -406.5908951420423 407.57282934750873C-310.5681652053322 399.65095412773013 -272.1590732306481 261.9543593984878 -176.1363432939379 272.7569165163677C-80.11361335722768 283.5594736342476 -41.70452138254359 471.66800158026274 54.31820855416652 459.4251035133322C150.34093849087662 447.18220544640167 188.7500304655607 209.6699829479491 284.7727604022707 213.99100579510107C380.7954903389809 218.312028642253 419.204582313665 451.35919419864854 515.227312250375 480.1660131796616C611.2500421870852 508.97283216067467 649.6591341617695 338.58049788798246 745.6818640984795 352.2637369039637C841.7045940351893 365.94697591994486 880.1136860098736 542.96487855827 976.1364159465838 545.8455604563713C1072.159145883294 548.7262423544727 1110.5682378579781 358.1691347950714 1206.5909677946884 366.0910100148499C1302.6136977313986 374.01288523462847 1341.0227897060827 611.237039543271 1437.0455196427924 583.8705615113086C1533.0682495795027 556.5040834793461 1619.4887065225416 307.4691333884884 1667.500071490897 234.73191546143045 " transform="rotate(90, 400, 400)"></path><path d="M-825.2499991312891 380.5876413904415C-778.8390129952126 366.66434554961853 -695.2992379502747 308.18650301816206 -602.4772656781216 313.7558213544912C-509.65529340596845 319.3251396908204 -472.5265044971072 414.9781821172743 -379.70453222495405 407.3203694048216C-286.882559952801 399.662556692369 -249.75377104393954 266.55584845410135 -156.93179877178648 276.9983203347186C-64.10982649963341 287.4407922153358 -26.98103759077196 469.27903589648383 65.8409346813811 457.4442344317843C158.66290695353428 445.6094329670848 195.7916958623955 216.01428455191396 288.61366813454856 220.19127330416086C381.4356404067016 224.36826205640773 418.5644293155631 449.6471887609234 511.38640158771614 477.4937804425694C604.2083738598692 505.3403721242154 641.3371627687306 340.62778232727953 734.1591350408839 353.8549133760614C826.9811073130368 367.0820444248432 864.109896221898 538.1993503085575 956.9318684940513 540.9840094767221C1049.7538407662043 543.7686686448867 1086.8826296750656 359.5634646707988 1179.704601947219 367.22127738325145C1272.5265742193724 374.8790900957041 1309.6553631282336 604.1957725940586 1402.4773354003864 577.7415104964948C1495.2993076725393 551.2872483989312 1578.8390827174771 310.55346331110195 1625.2500688535538 240.24081931494592 " transform="rotate(87, 400, 400)"></path><path d="M-782.9999994243273 381.257060690303C-738.1893921205292 367.8138784991636 -657.5302989736927 311.35251329637805 -567.9090843660965 316.72978617283377C-478.2878697585004 322.10705904928955 -442.439383915462 414.46172070241744 -352.8181693078658 407.06797049729073C-263.19695470026977 399.674220292164 -227.34846885723107 271.15739854487117 -137.72725424963505 281.2397851882257C-48.10603964203881 291.3221718315803 -12.257553799000448 466.89013124786106 77.3636608085958 455.4634263853926C166.98487541619193 444.0367215229241 202.83336125923006 222.35864719103506 292.4545758668264 226.39160184837687C382.07579047442255 230.4245565057187 417.9242763174609 447.9352443583545 507.54549092505727 474.8216087406334C597.1667055326534 501.7079731229122 633.0151913756918 342.67512780173286 722.6364059832879 355.44615088331534C812.2576205908838 368.2171739648978 848.1061064339224 533.4338830940012 937.7273210415185 536.1225195322291C1027.3485356491146 538.8111559704571 1063.1970214921535 360.95785558168245 1152.8182360997496 368.35160578680916C1242.4394507073457 375.74535599193587 1278.287936550384 597.1545666800021 1367.90915115798 571.6125205168372C1457.5303657655759 546.0704743536724 1538.1894589124126 313.6378542688717 1583.0000662162106 245.74978420361765 " transform="rotate(84, 400, 400)"></path><path d="M-740.7499997173654 381.9264952489536C-697.5397712458458 368.9634267074977 -619.7613599971105 314.5185388333831 -533.3409030540714 319.7037662499654C-446.92044611103233 324.8889936665478 -412.35226333381667 413.94527454634965 -325.9318063907776 406.81558684854883C-239.51134944773844 399.6858991507481 -204.94316667052271 275.75896389443005 -118.52270972748352 285.4812653005219C-32.102252784444545 295.20356670661386 2.4659299927712937 464.50124185802747 88.88638693581049 453.48263359779C175.30684387884958 442.46402533755247 209.87502665606507 228.7030250889452 296.2954835991043 232.591945651382C382.71594054214324 236.48086621381873 417.28412331935897 446.22331521457465 503.70458026239817 472.14945229748645C590.1250372054374 498.07558938039824 624.6932199826531 344.72248853497524 711.1136769256921 357.03740364935834C797.5341338687313 369.35231876374144 832.1023166459468 528.6684311382339 918.522773588986 531.2610448465252C1004.9432305320252 533.8536585548164 1039.5114133092407 362.35226175135523 1125.9318702522803 369.481949449156C1212.3523271953193 376.6116371469567 1246.920509972535 590.1133760247349 1333.340966915574 565.4835457959687C1419.761423858613 540.8537155672027 1497.5398351073482 316.7222604854306 1540.7500635788679 251.25876435107844 " transform="rotate(81, 400, 400)"></path><path d="M-698.5000000104035 382.5958535136589C-656.8901503711625 370.1128986218866 -581.9924210205285 317.68448807644285 -498.77272174204643 322.67767003315174C-415.5530224635643 327.6708519898607 -382.2651427521714 413.42875209633655 -299.0454434736893 406.56312690586174C-215.82574419520722 399.6975017153869 -182.53786448381425 280.36045295004357 -99.3181652053322 289.72266911887283C-16.09846592684994 299.08488528770204 17.18941378454292 462.11227617424856 100.40911306302496 451.50176451624213C183.6288123415071 440.8912528582356 216.91669205289998 235.04732669291008 300.13639133138213 238.79221316044175C383.35609060986417 242.53709962797345 416.64397032125726 444.51130977684954 499.8636695997393 469.47721956039425C583.0833688782213 494.4431293439389 616.3712485896142 346.7697729742723 699.5909478680962 358.628580121456C782.8106471465783 370.48738726863974 816.0985268579709 523.9029028885216 899.3182261364534 526.399493866876C982.5379254149357 528.8960848452305 1015.8258051263285 363.7465916270827 1099.0455044048106 370.61221681755745C1182.265203683293 377.4778420080322 1215.5530833946857 583.0721090755223 1298.772782673168 559.3544947811549C1381.9924819516496 535.6368804867875 1456.8902113022837 319.80659040804414 1498.5000609415247 256.7676682045939 " transform="rotate(78, 400, 400)"></path><path d="M-656.2500003034417 383.26527281352037C-616.2405294964791 371.26243157143165 -544.2234820439464 320.85049835465884 -464.2045404300213 325.65163485149435C-384.1855988160962 330.4527713483298 -352.1780221705261 412.9122906814797 -272.15908055660105 406.3107279983309C-192.1401389426759 399.70916531518196 -160.13256229710578 284.9620030408134 -80.11362068318067 293.96413397237995C-0.09467906925556235 302.9662649039465 31.91289757631455 459.7233715256258 111.93183919023966 449.5209564698504C191.95078080416476 439.31854141407496 223.95835744973476 241.39168933203115 303.97729906365976 244.99254170465778C383.99624067758486 248.59339407728442 416.0038173231551 442.7993653742807 496.0227589370802 466.80504785845824C576.0417005510053 490.8107303426358 608.0492771965755 348.81711844872564 688.0682188105006 360.21981762870996C768.0871604244255 371.6225168086943 800.0947370699953 519.1374356739652 880.1136786839209 521.538003922383C960.1326202978462 523.9385721708009 992.140196943416 365.14098253796635 1072.1591385573413 371.74254522111517C1152.1780801712666 378.344107904264 1184.1856568168364 576.0309031614661 1264.2045984307615 553.2255048014974C1344.2235400446862 530.4201064415288 1416.2405874972192 322.8909813658139 1456.2500583041815 262.2766330932656 " transform="rotate(75, 400, 400)"></path><path d="M-614.000061631636 383.9346463370147C-575.590969656952 372.4119187446095 -506.4546041025206 324.0164628565076 -429.63642015315247 328.6255538934697C-352.81823620378435 333.2346449304318 -322.0909626240371 412.39578349025567 -245.27277867466904 406.05828331443274C-168.45459472530092 399.7207831386099 -137.72732114555356 289.563507355216 -60.9091371961855 298.20555304951995C15.909046753182679 306.8475987438238 46.63632033292993 457.33442110063595 123.4545042822981 447.54010264709154C200.27268823166617 437.74578419354714 230.9999618114133 247.73600619478506 307.8181457607815 251.19282447250663C384.63632971014977 254.6496427502282 415.3636032898969 441.08737519534463 492.18178723926485 464.13283038015504C568.999971188633 487.17828556496556 599.7272447683804 350.8644181468118 676.5454287177486 361.8110093595967C753.3636126671165 372.75760057238165 784.0908862468636 514.3719226830417 860.9090701962318 516.6764682015228C937.7272541456002 518.9810137200038 968.4545277253474 366.5353276724829 1045.2727116747158 372.87282784830575C1122.0908956240837 379.21032802412856 1152.818169203831 568.9896514710425 1229.6363531531988 547.0964690454726C1306.4545371025667 525.2032866199027 1375.590902656998 325.97532654721647 1413.999994631682 267.7855522055701 " transform="rotate(72, 400, 400)"></path><path d="M-571.7500619246741 384.6040198605091C-534.9413487822685 373.56140591778745 -468.6856651259385 327.18242735835645 -395.06823884112737 331.5994729354451C-321.45081255631635 336.01651851253376 -292.00384204239185 411.87927629903163 -218.38641575758078 405.8058386305347C-144.76898947276965 399.7324009620378 -115.32201895884509 294.16501166961865 -41.704592674034075 302.4469721266599C31.912833610777056 310.7289325837011 61.359804124701554 454.9454706756461 134.97723040951269 445.5592488243327C208.59465669432382 436.1730269730193 238.0416272082481 254.08032305753898 311.6590534930592 257.39310724035545C385.27647977787035 260.705891423172 414.72345029179496 439.37538501640853 488.340876576606 461.4606129018519C561.958302861417 483.5458407872952 591.4052733753417 352.9117178448979 665.0226996601527 363.40220109048346C738.6401259449635 373.8926843360691 768.087096458888 509.60640969211835 841.7045227436993 511.8149324806627C915.3219490285105 514.023455269207 944.7689195424348 367.9296728069994 1018.386345827246 374.0031104754963C1092.0037721120573 380.0765481439932 1121.4507426259818 561.9483997806192 1195.0681689107928 540.9674332894479C1268.6855951956038 519.9864667982768 1334.9412788519337 329.0596717286191 1371.7499919943393 273.2944713178747 " transform="rotate(69, 400, 400)"></path><path d="M-529.5000622177122 385.27342390158157C-494.29172790758514 374.71092360854345 -430.9167261493564 330.3484223777833 -360.5000575291024 334.57342249499857C-290.08338890884824 338.7984226122138 -261.9167214607466 411.3627996253857 -191.50005284049251 405.55342446421474C-121.08338422023843 399.74404930304377 -92.91671677213668 298.76654650159935 -22.500048151882538 306.68842172137795C47.91662046837155 314.61029694115655 76.08328791647318 452.55655076823433 146.49995653672727 443.57842551915195C216.91662515698147 434.6003002700695 245.083292605083 260.424670437871 315.4999612253371 263.59342052578245C385.91662984559116 266.7621706136939 414.0832972936929 437.6634253550506 484.4999659139471 458.78842594112683C554.9166345342012 479.9134265272031 583.0833019823028 354.95904806056217 653.4999706025569 364.99342333894833C723.9166392228108 375.0277986173346 752.0833066709124 504.840927218773 822.4999752911667 506.9534272773807C892.9166439114208 509.0659273359883 921.0833113595224 369.324048459094 991.4999799797768 375.133423620265C1061.916648600031 380.9427987814359 1090.0833160481325 554.9071786077736 1160.4999846683866 534.8384280510013C1230.9166532886404 514.7696774942289 1294.2916550468692 332.14404742759984 1329.4999893569961 278.80342094775733 " transform="rotate(66, 400, 400)"></path><path d="M-487.25006251075035 385.9427669074978C-453.6421070329018 375.8603802641432 -393.1477871727744 333.51435636205406 -325.9318762170773 337.54731101939586C-258.7159652613801 341.58026567673767 -231.82960087910135 410.84626191658356 -164.61368992340425 405.3009492627385C-97.39777896770721 399.7556366088935 -70.51141458542827 303.36802029842386 -3.2955036297311153 310.9298102809398C63.920407325965925 318.4916002634557 90.80677170824492 450.16756982566636 158.02268266394196 441.59754117881505C225.23859361963912 433.02751253196357 252.1249580019179 266.7689567830468 319.34086895761493 269.7936727760532C386.55677991331197 272.81838876905954 413.44314429559086 435.9514046585364 480.659055251288 456.11617794524557C547.8749662069852 476.28095123195476 574.7613305892639 357.0063172410702 641.9772415449611 366.584584552257C709.193152500658 376.16285186344385 736.0795168829368 500.07538371027147 803.2954278386339 502.0918610389424C870.5113387943313 504.1083383676133 897.3977031766101 370.7183630760324 964.6136141323075 376.2636757298774C1031.8295250880046 381.8089883837224 1058.7158894702832 547.8658963997722 1125.93180042598 528.7093617773985C1193.147711381677 509.55282715502483 1253.6420312418045 335.2283620914243 1287.2499867196532 284.3123095424837 " transform="rotate(63, 400, 400)"></path><path d="M-445.0000628037884 386.6121938367538C-412.9924861582184 377.0099208430828 -355.3788481961923 336.6803742696645 -291.36369490505217 340.52128346713295C-227.34854161391212 344.36219266460137 -201.74248029745604 410.32980813112124 -137.727327006316 405.0485579846022C-73.71217371517588 399.7673078380831 -48.1061123987198 307.9695780185882 15.909040892420308 315.1712827638415C79.92419418356042 322.37298750909474 105.53025550001655 447.7786728064382 169.54540879115655 439.6167407618178C233.56056208229666 431.45480871719747 259.1666233987527 273.1133270515624 323.1817766898927 275.99400894966374C387.1969299810328 278.874690847765 412.8029912974889 434.23946788536205 476.818144588629 453.4440138727041C540.8332978797691 472.64855986004613 566.4393591962253 359.05367034491803 630.4545124873653 368.1758296889055C694.4696657785053 377.29798903289293 720.0757270949612 495.30992412510966 784.0908803861014 497.23037872384396C848.1060336772416 499.15083332257814 873.7120949936975 372.1127616163106 937.7272482848377 377.3940117628297C1001.742401575978 382.6752619093487 1027.3484628924339 540.8246981151103 1091.363616183574 522.5803794271354C1155.3787694747139 504.33606073916053 1212.99240743674 338.31276067858863 1244.9999840823102 289.82128206055 " transform="rotate(60, 400, 400)"></path><path d="M-402.7500630968266 387.2815521014591C-372.34286528353505 378.15939275747166 -317.60990921961024 339.8463235127243 -256.7955135930271 343.49518725031925C-195.981117966444 347.1440509879143 -171.65535971581085 409.81328568110814 -110.84096408922773 404.796098041915C-50.02656846264466 399.7789104027219 -25.70081021201139 312.5710670742018 35.11358541457173 319.41268658219235C95.9279810411548 326.254306090183 120.25373929178807 445.3897071226592 181.06813491837124 437.63587168026993C241.8825305449543 429.8820362378806 266.20828879558746 279.4576286555273 327.0226844221705 282.1942764587235C387.8370800487537 284.93092426191976 412.16283829938686 432.52746244763694 472.97723392597004 450.77178113561183C533.7916295525531 469.0160998235868 558.1173878031864 361.1009547842151 618.9317834297694 369.76700616100317C679.7461790563525 378.4330575377913 704.0719373069858 490.5443958753972 764.8863329335688 492.3688277441947C825.7007285601519 494.19325961299216 850.0264868107852 373.50709149203806 910.8408824373685 378.52427913123114C971.6552780639515 383.5414667704242 995.9810363145848 533.7834311658978 1056.7954319411679 516.4513284123216C1117.6098275677507 499.11922565874545 1172.3427836316753 341.39709060120214 1202.749981444967 295.33018591406545 " transform="rotate(57, 400, 400)"></path><path d="M-360.5000633898647 387.95094851313706C-331.6932444088516 379.30890281883313 -279.84097024302815 343.01231090275667 -222.22733228100205 346.46912918047826C-164.61369431897594 349.9259474581998 -141.56823913416554 409.2968013780677 -83.95460117213946 404.54367624620056C-26.340963210113387 399.79055111433337 -3.2955080253029223 317.172594276788 54.31812993672315 323.65412854751594C111.93176789874929 330.1356628182439 134.9772230835597 443.00077958585297 192.59086104558583 435.65504074569463C250.20449900761196 428.3093019055363 273.24995419242225 285.80196840646477 330.8635921544484 288.39458211475596C388.4772301164745 290.9871958230471 411.5226853012849 430.8154951568844 469.13632326331094 448.0995865454923C526.7499612253371 465.3836779341001 549.7954164101477 363.14827737048483 607.4090543721736 371.3582207800735C665.0226923341997 379.56816418966224 688.0681475190099 485.7789057726573 745.6817854810363 487.50731491151816C803.2954234430624 489.23572405037896 826.3408786278728 374.9014595147381 883.954516589899 379.65458464660526C941.5681545519253 384.4077097784724 964.6136097367355 526.742202363658 1022.2272476987614 510.3223155444805C1079.8408856607875 493.902428725303 1131.693159826611 344.48145867078836 1160.499978807624 300.8391279145536 " transform="rotate(54, 400, 400)"></path><path d="M-318.2500636829028 388.620360183604C-291.04362353416826 380.45842813898366 -242.07203126644606 346.1783135515782 -187.659150968977 349.4430863694263C-133.24627067150792 352.70785918727444 -111.48111855252029 408.7803323338163 -57.0682382550512 404.2912697092751C-2.655357957582112 399.80220708473394 19.109794161405603 321.7741367381633 73.52267445887463 327.89558577162853C127.93555475634366 334.01703480509383 149.70070687533143 440.6118673078357 204.1135871728004 433.67422506990846C258.5264674702696 426.7365828319811 280.29161958925715 292.14632341619136 334.70449988672624 294.59490302957744C389.1173801841952 297.04348264296357 410.88253230318287 429.10354312492103 465.29541260065207 445.42740721416175C519.7082928981212 461.7512713034025 541.4734450171088 365.19561521554357 595.8863253145779 372.94945065793297C650.299205612047 380.7032861003223 672.0643577310343 481.0134309287065 726.4772380285035 482.64581733763066C780.8901183259727 484.2782037465547 802.6552704449603 376.2958427962273 857.0681507424295 380.7849054207685C911.4810310398987 385.2739680453097 933.2461831588864 519.7009888202072 987.6590634563552 504.19331793542835C1042.0719437538244 488.6856470506497 1091.0435360215465 347.5658419991636 1118.2499761702811 306.3480851738308 " transform="rotate(51, 400, 400)"></path><path d="M-276.0000639759409 389.2897642246765C-250.3940026594849 381.6079458297397 -204.30309228986397 349.34430857100506 -153.0909696569519 352.41703592897983C-101.87884702403983 355.48976328695454 -81.39399797087498 408.2638556601704 -30.181875337962936 404.03885554295516C21.030247294949106 399.8138554257399 41.515096348114014 326.375671570144 92.72721898102611 332.1370353663466C143.9393416139382 337.89839916254925 164.42419066710306 438.222947400424 215.63631330001522 431.6934017647277C266.84843593292715 425.1638561290314 287.33328498609194 298.4906707965234 338.545407619004 300.79521631500444C389.75753025191614 303.09976183348545 410.24237930508093 427.39158346356305 461.4545019379931 442.75522025343673C512.6666245709051 458.11885704331036 533.1514736240699 367.24294543120783 584.3635962569821 374.54067290639784C635.575718889894 381.8384003815878 656.0605679430588 476.2479484553612 707.272690575971 477.78431213434857C758.4848132088832 479.3206758133359 778.9696622620481 377.69021844832196 830.1817848949602 381.9152185655372C881.3939075278724 386.14021868275245 901.8787565810371 512.6597676473617 953.0908792139492 498.0643126969818C1004.303001846861 483.4688577466019 1050.3939122164818 350.65021769814433 1075.999973532938 311.8570348037134 " transform="rotate(48, 400, 400)"></path><path d="M-233.75006426897903 389.9591453775654C-209.7443817848015 382.7574406323121 -166.5341533132819 352.5102807022484 -118.52278834492682 355.3909626003497C-70.51142337657177 358.271644498451 -51.306877389229726 407.7473560983409 -3.2955124208746724 403.78641848845166C44.71585254748038 399.8254808785623 63.920398534822425 330.97718351394116 111.93176350317754 336.3784620728811C159.94312847153265 341.779740631821 179.1476744588747 435.83400460482864 227.1590394272298 429.7125555713634C275.1704043955848 423.5911065378981 294.37495038292684 304.83499528867185 342.38631535128184 306.9955067122478C390.39768031963695 309.1560181358238 409.602226306979 425.67960091402153 457.613591275334 440.08301040452807C505.6249562436891 454.4864198950346 524.8295022310313 369.2902527586885 572.8408671993863 376.1318722666791C620.8522321677411 382.9734917746697 640.0567781550833 471.4824430938323 688.0681431234384 472.92278404288294C736.0795080917935 474.3631249919336 755.2840540791356 379.08457121223296 803.2954190474907 383.0455088221222C851.3067840158458 387.0064464320115 870.5113300031878 505.61852358633274 918.5226949715427 491.93528457035154C966.5340599398978 478.25204555437034 1009.7442884114173 353.7345705089415 1033.749970895595 317.3659615454125 " transform="rotate(45, 400, 400)"></path><path d="M-191.50006456201714 390.6285723068214C-169.0947609101181 383.9069812112517 -128.76521433669984 355.6762986098589 -83.95460703290178 358.3649350480868C-39.14399972910371 361.0535714863147 -21.219756807584503 407.23090231287864 23.59085049621359 403.5340272103153C68.4014578000116 399.83715210775193 86.32570072153095 335.5787412341055 131.13630802532896 340.6199345557828C175.94691532912708 345.66112787746005 193.87115825064626 433.44510758560045 238.68176555444438 427.7317551543662C283.49237285824245 422.018402723132 301.4166157797615 311.17936555718745 346.2272230835597 313.1958428858584C391.03783038735776 315.21232021452926 408.96207330887694 423.9676641408472 453.7726806126751 437.4108463319866C498.5832879164732 450.85402852312603 516.5075308379924 371.33760586253635 561.3181381417904 377.7231174033276C606.1287454455884 384.10862894411883 624.0529883671077 466.7169835086705 668.8635956709057 468.0613017277845C713.6742029747038 469.40561994689847 731.5984458962232 380.47896975251115 776.4090532000214 384.1758448550745C821.2196605038193 387.87271995763786 839.1439034253385 498.57732530167095 883.9545107291365 485.8063022200885C928.7651180329344 473.0352791385061 969.0946646063528 356.8189690961058 991.4999682582518 322.87493406347875 " transform="rotate(42, 400, 400)"></path><path d="M-149.25006485505526 391.2979229421322C-128.44514003543475 385.05644549624606 -90.99627536011775 358.84224022352413 -49.38642572087673 361.33883120187863C-7.776576081635653 363.8354221802331 8.867363774060777 406.714372233471 50.4772134133018 403.2815596382336C92.08706305254287 399.8487470429962 108.73100290823936 340.18022266032455 150.34085254748038 344.8613307447391C191.95070218672151 349.54243882915375 208.59464204241795 431.056134272427 250.20449168165896 425.7508784434238C291.81434132090004 420.44562261442053 308.45828117659653 317.52365953175774 350.06813081583755 319.3961027655236C391.67798045507857 321.2685459992895 408.3219203107751 422.2556510737275 449.93176995001613 434.73860596549986C491.54161958925715 447.22156085727215 508.1855594449536 373.3848826724389 549.7954090841946 379.31428624603075C591.4052587234356 385.2436898196226 608.0491985791319 461.9514476295635 649.6590482183732 463.19974311874074C691.2688978576143 464.44803860791797 707.9128377133108 381.8732919988441 749.5226873525518 385.3061045940815C791.132536991793 388.73891718931884 807.7764768474893 491.5360507230639 849.3863264867305 479.6772435758802C890.9961761259713 467.8184364286965 928.4450408012883 359.9032913893248 949.2499656209088 328.38383028759966 " transform="rotate(39, 400, 400)"></path><path d="M-107.00002700112073 391.9673307979019C-87.7954810137787 386.20596700169926 -53.22729823656303 362.0082390576483 -14.81820626187897 364.3127845761294C23.59088571280509 366.6173300946104 38.954522502678714 406.19789937452236 77.36361447736274 403.0291492866109C115.7727064520468 399.8603991986995 131.13634324192049 344.7817613070025 169.54543521660452 349.1027841541545C207.9545271912886 353.42380700130644 223.31816398116223 428.6672181797125 261.7272559558463 423.7700589529403C300.13634793053035 418.8728997261681 315.4999847204039 323.8680107267871 353.90907669508806 325.5964198656478C392.31816866977215 327.3248290045086 407.6818054596457 420.54369522706685 446.0908974343297 432.06642281947205C484.4999894090138 443.5891504118773 499.86362619888746 375.4322167028004 538.2727181735715 380.9055123091929C576.6818101482555 386.37880791558536 592.0454469381291 457.1859689709154 630.4545389128132 458.3382417301559C668.8636308874974 459.49051448939645 684.227267677371 383.26767146563594 722.6363596520551 386.4364215535474C761.0454516267391 389.6051716414588 776.4090884166128 484.4948333649158 814.8181803912967 473.54824215213085C853.2272723659808 462.60165093934586 887.7954551431962 362.98767090300277 907.0000011305383 333.8927837321796 " transform="rotate(36, 400, 400)"></path><path d="M-64.74999677658072 392.63670050669896C-47.145829621517194 387.35545036017993 -15.458328742402813 365.17419974479986 19.7500055677242 367.2866998034075C54.95833987785127 369.3991998620151 69.04167360190209 405.68138836860106 104.25000791202913 402.77670078801555C139.45834222215615 399.8720132074301 153.54167594620708 349.3832618067079 188.75001025633412 353.3441994165972C223.95834456646116 357.3051370264865 238.04167829051198 426.27826394002534 273.250012600639 421.7892013154842C308.4583469107661 417.30013869094296 322.5416806348169 330.2123237748437 357.7500149449439 331.7966988187994C392.95834925507097 333.38107386275516 407.0416829791218 418.8317012334335 442.25001728924894 429.39420152647165C477.458351599376 439.95670181950976 491.5416853234268 377.4795125861893 526.7500196335538 382.49670022538237C561.9583539436808 387.5138878645755 576.0416876677316 452.4204521652947 611.2500219778588 453.47670219459854C646.4583562879858 454.5329522239024 660.5416900120366 384.6620127854552 695.7500243221638 387.56670036604066C730.9583586322909 390.4713879466262 745.0416923563416 477.453577859795 780.2500266664687 467.41920258140885C815.4583609765956 457.38482730302263 847.14586185571 366.0720122697081 864.7500290107735 339.40169902978687 " transform="rotate(33, 400, 400)"></path><path d="M-22.49999706961883 393.30610454777144C-6.496208746833815 388.50496805093593 22.31061023417925 368.3401947642268 54.318186879749305 370.26064936296103C86.32576352531933 372.1811039616952 99.12879418354737 405.16491169495515 131.1363708291174 402.52428662169564C163.14394747468745 399.88366154843607 175.9469781329155 353.98479663868864 207.95455477848554 357.58564901131524C239.9621314240556 361.1865013839419 252.76516208228367 423.8893440326136 284.77273872785366 419.80837801030344C316.7803153734237 415.72741198799326 329.58334603165173 336.55667115517576 361.5909226772217 337.9970121042264C393.5984993227918 339.43735305327704 406.40152998101985 417.11974157207555 438.40910662658985 426.7220145657466C470.41668327215996 436.3242875594176 483.219713930388 379.52684280185355 515.227290575958 384.08792247384724C547.234867221528 388.649002145841 560.037897879756 447.65496969194936 592.0454745253261 448.6151969913165C624.0530511708962 449.5754242906836 636.8560818291242 386.05638843754986 668.8636584746943 388.69701351080937C700.8712351202644 391.3376385840689 713.6742657784923 470.4123566869497 745.6818424240624 461.29019734296224C777.6894190696323 452.1680379989748 806.4962380506454 369.1563879686888 822.5000263734305 344.9106486596695 " transform="rotate(30, 400, 400)"></path><path d="M19.750002637343044 393.9755009594494C34.15341212784958 389.6544781122974 60.079549210761314 371.5061821542592 88.88636819177435 373.23459129312C117.69318717278742 374.9630004319808 129.21591476519262 404.6484273919147 158.02273374620566 402.27186482598114C186.8295527272187 399.8953022600476 198.35228031962393 358.58632384127486 227.15909930063697 361.82709097663883C255.96591828165003 365.0678581120028 267.48864587405524 421.50041649580737 296.2954648550683 417.82754707572815C325.10228383608137 414.15467765564904 336.6250114284865 342.90101090611324 365.4318304094996 344.19731776025884C394.23864939051265 345.49362461440444 405.76137698291785 415.4077742813231 434.56819596393086 424.049819975627C463.3750149449439 432.6918656699309 474.89774253734925 381.5741653881233 503.7045615183622 385.67913709291764C532.5113804993753 389.784108797712 544.0341080917804 442.8894795892095 572.8409270727935 443.75368415863994C601.6477460538066 444.61788872807034 613.1704736462118 387.4507564602499 641.9772926272249 389.8273190261835C670.784111608238 392.20388159211706 682.3068392006431 463.37112788470984 711.1136581816561 455.1611844751211C739.9204771626692 446.9512410655324 765.8466142455809 372.24075603827504 780.2500237360874 350.41959066015767 " transform="rotate(27, 400, 400)"></path><path d="M62.00000234430493 394.6448630388519C74.80303300253296 390.80395384138353 97.8484881873434 374.6721352120162 123.45454950379946 376.20849889100356C149.06061082025548 377.7448625699909 159.3030353468379 404.1319087565989 184.90909666329392 402.01940869799125C210.51515797974994 399.90690863938363 220.7575825063324 363.1878167115857 246.36364382278845 366.06849860968697C271.9697051392445 368.9491805077883 282.2121296658269 419.1114546267257 307.818190982283 415.8466818088775C333.42425229873896 412.58190899102937 343.66667682532136 349.24531632477533 369.2727381417774 350.39758908401586C394.87879945823346 351.5498618432564 405.12122398481586 413.6957726582952 430.72728530127193 421.37759105323204C456.33334661772795 429.0594094481688 466.57577114431035 383.6214536421176 492.18183246076643 387.2703173797126C517.7878937772224 390.9191811173076 528.0303183038047 438.1239551541943 553.6363796202609 438.8921369936879C579.242440936717 439.66031883318163 589.4848654632995 388.84509015067465 615.0909267797555 390.9575902092823C640.6969880962116 393.0700902678899 650.939412622794 456.32986475019453 676.54547393925 449.0321372750046C702.1515352557059 441.7344097998146 725.1969904405163 375.32508977558587 738.0000210987444 355.9284983283704 " transform="rotate(24, 400, 400)"></path><path d="M104.25000205126682 395.31428233871344C115.45265387721633 391.9534867909286 135.61742716392547 377.8381454902322 158.0227308158245 379.18246370934617C180.42803446772353 380.5267819284601 189.39015592848313 403.615447341742 211.7954595803822 401.76700979046035C234.2007632322812 399.91857223917873 243.16288469304087 367.78936680235546 265.56818834493987 370.30996346319415C287.9734919968389 372.8305601240328 296.9356134575985 416.72254997810296 319.3409171094976 413.8658737624859C341.7462207613966 411.00919754686873 350.70834222215615 355.58967896389646 373.11364587405524 356.5979176282319C395.51894952595427 357.6061562925674 404.48107098671386 411.98382825572634 426.88637463861295 418.70541935129603C449.291678290512 425.4270104468658 458.2537997512716 385.66879911657094 480.6591034031706 388.86155488696653C503.0644070550696 392.0543106573621 512.0265285158292 433.358487939638 534.4318321677283 434.03064704919495C556.8371358196273 434.70280615875197 565.799257280387 390.2394810615583 588.2045609322861 392.08791861284C610.6098645841851 393.93635616412166 619.5719860449447 449.2886588361382 641.9772896968436 442.903147295347C664.3825933487426 436.5176357545558 684.5473666354518 378.4094807333556 695.7500184614013 361.43746321704214 " transform="rotate(21, 400, 400)"></path><path d="M146.49998649943964 395.98366349160233C156.10225949311064 393.102981593501 173.3863508817185 381.00411762147553 192.59089686906051 382.15639038071606C211.79544285640253 383.3086631399566 219.47726125133937 403.0989477799126 238.68180723868136 401.51457273595685C257.8863532260234 399.9301976920011 265.56817162096024 372.3908787461526 284.7727176083023 374.5513901697286C303.97726359564433 376.7119015933046 311.6590819905811 414.3336071825076 330.86362797792316 411.8850275691215C350.06817396526515 409.4364479557354 357.749992360202 361.9340034560449 376.95453834754403 362.7982080254753C396.1590843348861 363.6624125949057 403.84090272982286 410.27184570618476 423.04544871716485 416.0332095023874C442.2499947045069 421.79457329859 449.93181309944373 387.71610644405155 469.1363590867858 390.4527542472478C488.34090507412776 393.1894020504441 496.02272346906454 428.59298257810906 515.2272694564066 429.1691189577293C534.4318154437487 429.7452553373496 542.1136338386855 391.63383382546937 561.3181798260275 393.21820886942504C580.5227258133696 394.8025839133808 588.2045442083064 442.2474147751093 607.4090901956483 436.77411916871677C626.6136361829904 431.3008235623243 643.8977275715981 381.4938335441528 653.5000005652691 366.9463899587412 " transform="rotate(18, 400, 400)"></path><path d="M188.7499862064015 396.6530446444912C196.75188036779403 394.25247639607346 211.15528985830056 384.17008975271887 227.1590781810856 385.13031705208596C243.1628665038706 386.09054435145305 249.56438183298462 402.5824482180831 265.5681701557696 401.2621356814533C281.5719584785547 399.9418231448235 287.9734738076687 376.9923906899498 303.9772621304537 378.7928168762631C319.9810504532387 380.59324306257645 326.3825657823528 411.9446643869123 342.3863541051378 409.90418137575716C358.3901424279228 407.8636983646021 364.7916577570368 368.27832794819335 380.7954460798218 368.9984984227187C396.7992344026068 369.718668897244 403.20074973172086 408.55986315664325 419.20453805450586 413.36099965347876C435.2083263772909 418.16213615031427 441.60984170640495 389.7634137715322 457.61363002918995 392.0439536075291C473.61741835197495 394.32449344352597 480.0189336810889 423.8274772165802 496.022722003874 424.3075908662637C512.026510326659 424.78770451594727 518.428025655773 393.02818658938037 534.431813978558 394.34849912601015C550.4356023013431 395.6688116626399 556.8371176304571 435.2061707140803 572.8409059532421 430.6450910420866C588.8446942760271 426.08401137009287 603.2481037665336 384.5781863549499 611.2499979279262 372.4553167004402 " transform="rotate(15, 400, 400)"></path><path d="M230.9999859133634 397.3224391488205C237.40150124247742 395.4019845500863 248.92422883488263 387.33607523540263 261.72725949311064 388.10425707489634C274.5302901513387 388.87243891439 279.6515024146299 402.065962007694 292.4545330728579 401.00971197839016C305.2575637310859 399.9534619490864 310.3787759943771 381.5939159851874 323.18180665260513 383.03425693423804C335.9848373108332 384.47459788328865 341.1060495741244 409.55573494275734 353.90908023235244 407.9233485338333C366.71211089058045 406.29096212490924 371.8333231538716 374.6226657917822 384.6363538120996 375.19880217140246C397.4393844703277 375.77493855102273 402.56059673361887 406.84789395854216 415.3636273918469 410.6888031560105C428.16665805007494 414.52971235347894 433.2878703133661 391.8107344504533 446.0909009715941 393.6351663192508C458.89393162982213 395.4595981880483 464.0151438931133 419.06198520649167 476.8181745513414 419.4460761262385C489.62120520956944 419.8301670459854 494.74241747286067 394.42255270473186 507.5454481310887 395.47880273403564C520.3484787893167 396.5350527633395 525.4696910526079 428.16494000449177 538.2727217108359 424.5160762668968C551.0757523690638 420.8672125293018 562.5984799614691 387.66255251718746 568.9999952905831 377.9642567935797 " transform="rotate(12, 400, 400)"></path><path d="M273.2499856203253 397.9918279311039C278.0511221171608 396.55148698205323 286.6931678114647 390.5020549960405 296.29544080513574 391.07819137566077C305.89771379880676 391.65432775528103 309.7386229962751 401.549470075259 319.34089598994615 400.75728255328113C328.94316898361717 399.9650950313033 332.7840781810856 386.1954355583791 342.3863511747566 387.27569127016704C351.98862416842763 388.355946981955 355.82953336589605 407.16679977655656 365.4318063595671 405.9425099698635C375.03407935323804 404.71822016317043 378.87498855070646 380.9669979133252 388.4772615443775 381.3991001980404C398.0795345380485 381.8312024827556 401.92044373551687 405.1359190383951 411.5227167291879 408.01660093649645C421.1249897228589 410.8972828345977 424.96589892032733 393.8580494073285 434.56817191399836 395.22637330892667C444.1704449076693 396.59469721052477 448.01135410513774 414.29648747435726 457.61362709880876 414.5845556641674C467.21590009247984 414.87262385397753 471.0568092899482 395.8169130980374 480.6590822836192 396.6091006200153C490.26135527729025 397.4012881419931 494.10226447475867 421.1237035728574 503.70453746842963 418.3870557696611C513.3068104621007 415.6504079664649 521.9488561564045 390.7469129573791 526.74999265324 383.4731911646733 " transform="rotate(9, 400, 400)"></path><path d="M315.4999929566817 398.661215759713C318.70075062123874 397.70098846034585 324.4621144174413 393.66803380300405 330.8636297465553 394.0521247227509C337.26514507566935 394.43621564249776 339.82575120731497 401.03297718914973 346.22726653642894 400.50485217449784C352.6287818655429 399.9767271598459 355.18938799718853 390.7969541778964 361.59090332630257 391.5171246524217C367.9924186554166 392.23729512694706 370.5530247870622 404.7778636566814 376.9545401161762 403.9616704522194C383.3560554452902 403.14547724775736 385.9166615769358 387.31132908119383 392.3181769060498 387.59939727100397C398.71969223516385 387.8874654608141 401.28029836680946 403.4239431645738 407.68181369592344 405.344397763308C414.0833290250375 407.26485236204223 416.643935156683 395.9053634105294 423.04545048579706 396.81757934492816C429.4469658149111 397.7297952793269 432.00757194655665 409.5309887885486 438.4090872756707 409.723034248422C444.8106026047847 409.9150797082954 447.37120873643033 397.21127253766866 453.77272406554437 397.73939755232055C460.17423939465834 398.26752256697245 462.73484552630396 414.0824661875486 469.13636085541793 412.25803431875113C475.5378761845319 410.43360244995364 481.29923998073457 393.83127244389647 484.49999764529156 388.9821245820926 " transform="rotate(6, 400, 400)"></path><path d="M357.74999647834085 399.33061026404226C359.35037531061937 398.85049661435875 362.23105720872064 396.8340192856878 365.43181487327763 397.02606474556126C368.6325725378347 397.21811020543464 369.9128756036575 400.51649097876066 373.11363326821447 400.2524284714347C376.31439093277146 399.98836596410877 377.59469399859427 395.398479473134 380.7954516631513 395.7585647103967C383.9962093277083 396.1186499476593 385.2765123935311 402.3889342125265 388.4772700580881 401.98083761029545C391.6780277226451 401.57274100806444 392.9583307884679 393.65566692478274 396.1590884530249 393.79970101968775C399.3598461175819 393.94373511459287 400.64014918340473 401.71197396647267 403.8409068479617 402.6722012658398C407.04166451251876 403.6324285652069 408.3219675783415 397.9526840894505 411.52272524289856 398.4087920566499C414.72348290745555 398.86490002384926 416.00378597327835 404.7654967784601 419.20454363783534 404.8615195083968C422.40530130239233 404.9575422383335 423.6856043682152 398.60563865302015 426.8863620327722 398.8697011603461C430.0871196973292 399.13376366767204 431.367422763152 407.04123547796013 434.56818042770897 406.12901954356136C437.76893809226596 405.21680360916264 440.6496199903673 396.91563860613405 442.2499988226458 394.4910646752321 " transform="rotate(3, 400, 400)"></path></g></svg>